<svg height="496pt" viewBox="0 0 496 496" width="496pt" xmlns="http://www.w3.org/2000/svg" xmlns:xlink="http://www.w3.org/1999/xlink"><linearGradient id="a" gradientUnits="userSpaceOnUse" x1="248" x2="248" y1="496" y2="0"><stop offset="0" stop-color="#9f2fff"/><stop offset="1" stop-color="#0bb1d3"/></linearGradient><path d="m448 8c0 40.113281-16.390625 78.726562-44.921875 107.230469-39.292969-31.558594-94.269531-51.230469-155.078125-51.230469s-115.785156 19.671875-155.078125 51.230469c-28.53125-28.503907-44.921875-67.117188-44.921875-107.230469v-8h-48v8c0 53.246094 21.632812 104.609375 59.511719 142.097656-17.488281 24.246094-27.511719 52.175782-27.511719 81.902344 0 68.726562 52.839844 129.832031 134.632812 155.65625 29.527344 9.328125 49.367188 36.785156 49.367188 68.320312v40.023438h64v-40.023438c0-31.535156 19.839844-58.992187 49.367188-68.320312 81.792968-25.824219 134.632812-86.929688 134.632812-155.65625 0-29.726562-10.023438-57.65625-27.511719-81.902344 37.878907-37.488281 59.511719-88.851562 59.511719-142.097656v-8h-48zm-431.824219 8h16.015625c1.992188 41.105469 19.488282 80.246094 48.625 109.753906-3.9375 3.734375-7.664062 7.613282-11.183594 11.613282-32.191406-32.480469-51.449218-75.847657-53.457031-121.367188zm308.375 356.398438c-36.214843 11.441406-60.550781 45.027343-60.550781 83.578124v24.023438h-32v-24.023438c0-38.542968-24.335938-72.136718-60.550781-83.578124-74.992188-23.679688-123.449219-78.789063-123.449219-140.398438 0-83.816406 89.71875-152 200-152s200 68.183594 200 152c0 61.609375-48.457031 116.71875-123.449219 140.398438zm155.273438-356.398438c-2 45.519531-21.265625 88.886719-53.464844 121.367188-3.519531-4-7.246094-7.871094-11.183594-11.613282 29.144531-29.507812 46.632813-68.648437 48.632813-109.753906zm-82.183594 197.960938-15.472656 4.085937c-11.144531-42.214844-68.824219-74.046875-134.167969-74.046875v-16c72.375 0 136.703125 36.953125 149.640625 85.960938zm-149.640625-117.960938c-101.464844 0-184 61.007812-184 136s82.535156 136 184 136 184-61.007812 184-136-82.535156-136-184-136zm0 256c-92.632812 0-168-53.832031-168-120 0-2.601562.320312-5.144531.542969-7.703125 21.65625 1.367187 33.671875 7.863281 46.257812 14.726563 15.304688 8.34375 31.121094 16.976562 62.480469 16.976562 31.382812 0 47.199219-8.632812 62.503906-16.976562 14.175782-7.726563 27.558594-15.023438 54.855469-15.023438s40.679687 7.296875 54.847656 15.023438c13.34375 7.28125 27.105469 14.769531 51.207031 16.5625-15.382812 54.910156-83.367187 96.414062-164.695312 96.414062zm167.457031-112.289062c-21.671875-1.367188-33.714843-7.863282-46.304687-14.726563-15.3125-8.351563-31.128906-16.984375-62.511719-16.984375s-47.199219 8.632812-62.503906 16.976562c-14.175781 7.726563-27.5625 15.023438-54.855469 15.023438-27.28125 0-40.648438-7.296875-54.808594-15.023438-13.335937-7.273437-27.089844-14.761718-51.175781-16.5625 15.390625-54.910156 83.375-96.414062 164.703125-96.414062 92.632812 0 168 53.832031 168 120 0 2.601562-.320312 5.144531-.542969 7.710938zm0 0" fill="url(#a)"/></svg>