<svg height="496pt" viewBox="0 -2 496 496" width="496pt" xmlns="http://www.w3.org/2000/svg" xmlns:xlink="http://www.w3.org/1999/xlink"><linearGradient id="a" gradientTransform="matrix(8 0 0 -8 -8 500.688)" gradientUnits="userSpaceOnUse" x1="32" x2="32" y1="1" y2="62.586"><stop offset="0" stop-color="#9f2fff"/><stop offset="1" stop-color="#0bb1d3"/></linearGradient><path d="m248 444.6875v16c-47.703125 0-88-29.304688-88-64h16c0 25.570312 33.648438 48 72 48zm14.726562-1.078125 2.328126 15.832031c6.289062-.921875 12.488281-2.378906 18.417968-4.320312l-4.96875-15.199219c-5.078125 1.644531-10.382812 2.894531-15.777344 3.6875zm-14.726562-94.921875c-18.3125 0-32-8.449219-32-16h-16c0 17.945312 21.089844 32 48 32s48-14.054688 48-32h-16c0 7.550781-13.6875 16-32 16zm-136-16c0 3.265625-6.230469 8-16 8s-16-4.734375-16-8h-16c0 13.464844 14.054688 24 32 24s32-10.535156 32-24zm384 48c0 44.113281-43.0625 80-96 80-18.304688 0-35.824219-4.214844-51.097656-12.230469-21.367188 26.558594-58.566406 44.230469-100.902344 44.230469s-79.535156-17.671875-100.902344-44.230469c-15.273437 8.015625-32.785156 12.230469-51.097656 12.230469-52.9375 0-96-35.886719-96-80s43.0625-80 96-80c27.113281 0 52.320312 9.359375 70.464844 25.769531 21.429687-15.9375 50.039062-25.769531 81.535156-25.769531s60.105469 9.832031 81.535156 25.769531c18.136719-16.402343 43.351563-25.769531 70.464844-25.769531 52.9375 0 96 35.886719 96 80zm-358.015625 54.222656c-6.390625-11.71875-9.984375-24.636718-9.984375-38.222656 0-22.597656 9.871094-43.359375 26.265625-59.785156-15.097656-12.917969-35.882813-20.214844-58.265625-20.214844-44.113281 0-80 28.710938-80 64s35.886719 64 80 64c15.089844 0 29.375-3.480469 41.984375-9.777344zm214.015625-38.222656c0-44.113281-46.65625-80-104-80s-104 35.886719-104 80 46.65625 80 104 80 104-35.886719 104-80zm128-16c0-35.289062-35.886719-64-80-64-22.390625 0-43.167969 7.304688-58.265625 20.214844 16.394531 16.425781 26.265625 37.1875 26.265625 59.785156 0 13.585938-3.59375 26.496094-9.984375 38.222656 12.625 6.296875 26.90625 9.777344 41.984375 9.777344 44.113281 0 80-28.710938 80-64zm-80-40c-9.769531 0-16-4.734375-16-8h-16c0 13.464844 14.054688 24 32 24s32-10.535156 32-24h-16c0 3.265625-6.230469 8-16 8zm-152-340.6875 87.742188 107.992188c15.640624 19.253906 24.257812 43.527343 24.257812 68.335937 0 59.742187-48.609375 108.359375-108.367188 108.359375h-7.265624c-59.757813 0-108.367188-48.617188-108.367188-108.367188 0-24.808593 8.617188-49.074218 24.257812-68.335937zm75.320312 118.070312-75.320312-92.695312-75.320312 92.695312c-13.335938 16.417969-20.679688 37.105469-20.679688 58.25 0 50.925782 41.441406 92.367188 92.367188 92.367188h7.265624c50.925782 0 92.367188-41.441406 92.367188-92.367188 0-21.136718-7.34375-41.824218-20.679688-58.25zm-83.320312 86.617188h16v-16h-16zm17.433594-78.304688c4.65625-1.078124 9.535156-1.695312 14.566406-1.695312 30.871094 0 56 21.527344 56 48 0 16.066406-9.449219 30.914062-24.800781 39.769531-4.351563 22.773438-27.414063 40.230469-55.199219 40.230469-30.871094 0-56-21.527344-56-48 0-.214844.03125-.429688.039062-.648438-14.917968-8.902343-24.039062-23.527343-24.039062-39.351562 0-26.472656 25.128906-48 56-48 12.152344 0 23.792969 3.527344 33.433594 9.695312zm-40.691406 38.496094c2.347656-12.246094 10.113281-22.902344 21.066406-30.160156-4.382813-1.292969-9.03125-2.03125-13.808594-2.03125-22.054688 0-40 14.351562-40 32 0 8.550781 4.390625 16.695312 11.847656 22.648438 4.167969-9.175782 11.496094-17.015626 20.894532-22.457032zm71.257812 39.808594c0-17.648438-17.945312-32-40-32s-40 14.351562-40 32 17.945312 32 40 32 40-14.351562 40-32zm-16-64c-15.167969 0-28.390625 6.871094-35.160156 16.960938 3.609375-.625 7.335937-.960938 11.160156-.960938 26.3125 0 48.390625 15.65625 54.359375 36.664062 6.074219-5.726562 9.640625-13.023437 9.640625-20.664062 0-17.648438-17.945312-32-40-32zm0 0" fill="url(#a)"/></svg>