<svg height="496pt" viewBox="0 0 496 496" width="496pt" xmlns="http://www.w3.org/2000/svg" xmlns:xlink="http://www.w3.org/1999/xlink"><linearGradient id="a" gradientUnits="userSpaceOnUse" x1="248" x2="248" y1="496" y2="0"><stop offset="0" stop-color="#9f2fff"/><stop offset="1" stop-color="#0bb1d3"/></linearGradient><path d="m248 0c-136.753906 0-248 111.246094-248 248s111.246094 248 248 248 248-111.246094 248-248-111.246094-248-248-248zm0 480c-127.921875 0-232-104.078125-232-232s104.078125-232 232-232 232 104.078125 232 232-104.078125 232-232 232zm114.496094-320h-1.761719c-.246094 0-.488281.070312-.734375.070312v-16.070312c0-17.648438-14.351562-32-32-32s-32 14.351562-32 32v96c0 17.648438 14.351562 32 32 32 14.289062 0 26.273438-9.464844 30.367188-22.40625l35.601562 55.375c6.054688 9.414062 16.351562 15.03125 27.535156 15.03125h1.761719c18.046875 0 32.734375-14.6875 32.734375-32.734375 0-6.289063-1.800781-12.417969-5.199219-17.707031l-60.769531-94.527344c-6.054688-9.414062-16.351562-15.03125-27.535156-15.03125zm-18.496094 80c0 8.824219-7.175781 16-16 16s-16-7.175781-16-16v-96c0-8.824219 7.175781-16 16-16s16 7.175781 16 16v20.753906c-9.535156 5.726563-16 16.070313-16 27.972656 0 6.289063 1.800781 12.417969 5.199219 17.707032l10.800781 16.796875zm96 47.265625c0 9.230469-7.503906 16.734375-16.734375 16.734375h-1.761719c-5.71875 0-10.984375-2.871094-14.089844-7.6875l-60.765624-94.527344c-1.726563-2.707031-2.648438-5.832031-2.648438-9.050781 0-9.230469 7.503906-16.734375 16.734375-16.734375h1.761719c5.71875 0 10.984375 2.871094 14.089844 7.6875l60.765624 94.527344c1.726563 2.707031 2.648438 5.832031 2.648438 9.050781zm-221.246094-41.113281c3.445313 1.199218 7.085938 1.847656 10.75 1.847656h1.761719c18.046875 0 32.734375-14.6875 32.734375-32.734375 0-6.289063-1.800781-12.417969-5.199219-17.707031l-60.769531-94.527344c-6.054688-9.414062-16.351562-15.03125-27.535156-15.03125h-1.761719c-18.046875 0-32.734375 14.6875-32.734375 32.734375 0 6.289063 1.800781 12.417969 5.199219 17.707031l19.007812 29.566406c-.0625 0-.136719-.007812-.207031-.007812-18.105469 0-34.921875 6.558594-47.007812 18.0625-5.425782-1.300781-11.105469-2.0625-16.992188-2.0625-35.289062 0-64 25.128906-64 56 0 16.519531 8.273438 31.34375 21.320312 41.609375-3.496093 7.015625-5.320312 14.636719-5.320312 22.390625 0 30.871094 28.710938 56 64 56s64-25.128906 64-56c0-8.71875-2.382812-17.105469-6.625-24.671875 22.210938-2.871094 40.746094-15.703125 49.378906-33.175781zm-64.097656-116.367188c-1.734375-2.707031-2.65625-5.832031-2.65625-9.050781 0-9.230469 7.503906-16.734375 16.734375-16.734375h1.761719c5.71875 0 10.984375 2.871094 14.089844 7.6875l60.765624 94.527344c1.726563 2.707031 2.648438 5.832031 2.648438 9.050781 0 9.230469-7.503906 16.734375-16.734375 16.734375h-1.761719c-2.070312 0-4.113281-.433594-6.03125-1.175781.320313-2.238281.527344-4.511719.527344-6.824219 0-24.328125-17.855469-45.023438-42.671875-52.734375zm5.34375 54.214844c26.472656 0 48 17.945312 48 40s-21.527344 40-48 40c-1.191406 0-2.359375-.097656-3.535156-.167969-.601563-.511719-1.167969-1.039062-1.792969-1.527343 3.40625-6.839844 5.328125-14.375 5.328125-22.304688 0-19.863281-11.921875-37.304688-29.792969-47.246094 8.417969-5.5625 18.90625-8.753906 29.792969-8.753906zm-64 16c26.472656 0 48 17.945312 48 40s-21.527344 40-48 40-48-17.945312-48-40 21.527344-40 48-40zm16 144c-26.472656 0-48-17.945312-48-40 0-4.839844 1.128906-9.59375 3.160156-14.070312 8.679688 3.847656 18.464844 6.070312 28.839844 6.070312 19.921875 0 37.734375-8.007812 49.480469-20.535156 9.167969 7.480468 14.519531 17.710937 14.519531 28.535156 0 22.054688-21.527344 40-48 40zm192-40c-32.335938 0-59.078125 21.113281-63.335938 48.398438-31.839843 3.203124-56.664062 26.898437-56.664062 55.601562 0 30.871094 28.710938 56 64 56 32.335938 0 59.078125-21.113281 63.335938-48.398438 31.839843-3.203124 56.664062-26.898437 56.664062-55.601562 0-30.871094-28.710938-56-64-56zm-56 144c-26.472656 0-48-17.945312-48-40s21.527344-40 48-40 48 17.945312 48 40-21.527344 40-48 40zm63.183594-48.496094c-4.261719-24.320312-26.414063-43.496094-54.328125-46.902344 4.183593-18.53125 23.710937-32.601562 47.144531-32.601562 26.472656 0 48 17.945312 48 40 0 20.015625-17.753906 36.601562-40.816406 39.503906zm-63.183594-303.503906h32c17.648438 0 32-14.351562 32-32s-14.351562-32-32-32h-32c-17.648438 0-32 14.351562-32 32s14.351562 32 32 32zm0-48h32c8.824219 0 16 7.175781 16 16s-7.175781 16-16 16h-32c-8.824219 0-16-7.175781-16-16s7.175781-16 16-16zm0 0" fill="url(#a)"/></svg>