<svg height="496pt" viewBox="0 0 496 496" width="496pt" xmlns="http://www.w3.org/2000/svg" xmlns:xlink="http://www.w3.org/1999/xlink"><linearGradient id="a" gradientUnits="userSpaceOnUse" x1="248" x2="248" y1="496" y2="0"><stop offset="0" stop-color="#9f2fff"/><stop offset="1" stop-color="#0bb1d3"/></linearGradient><path d="m464 236.496094v11.503906h-16v-11.503906c0-42.175782-34.320312-76.496094-76.496094-76.496094-11.816406 0-23.640625 2.800781-34.214844 8.078125l-5.703124 2.851563-7.160157-14.3125 5.703125-2.847657c12.78125-6.394531 27.085938-9.769531 41.375-9.769531 51 0 92.496094 41.496094 92.496094 92.496094zm-338.617188-76.496094c11.816407 0 23.640626 2.800781 34.21875 8.078125l5.703126 2.851563 7.160156-14.3125-5.703125-2.847657c-12.792969-6.394531-27.097657-9.769531-41.378907-9.769531-51.007812 0-92.503906 41.496094-92.503906 92.496094v11.503906h16v-11.503906c0-42.175782 34.320313-76.496094 76.503906-76.496094zm187.679688 100.375c30.554688 53.113281 52.175781 112.929688 62.554688 172.984375l15.765624-2.71875c-10.6875-61.886719-32.976562-123.519531-64.445312-178.25zm56.738281-32.871094c21.960938 45.007813 37.375 92.609375 45.824219 141.472656l15.765625-2.71875c-8.703125-50.363281-24.582031-99.402343-47.207031-145.769531zm-2.863281-39.496094-13.875 7.984376c3 5.191406 5.898438 10.457031 8.707031 15.75l14.140625-7.484376c-2.902344-5.464843-5.886718-10.882812-8.972656-16.25zm-230.089844 2.648438c-29.449218 41.742188-52.886718 87.65625-69.6875 136.457031l15.128906 5.199219c16.304688-47.367188 39.0625-91.921875 67.640626-132.441406zm-80.464844 171.601562 15.457032 4.167969c1.558594-5.792969 3.214844-11.5625 4.984375-17.304687l-15.304688-4.679688c-1.808593 5.910156-3.527343 11.855469-5.136719 17.816406zm48.234376 68.382813 15.765624 2.71875c10.378907-60.054687 32-119.871094 62.554688-172.984375l-13.875-7.984375c-31.46875 54.730469-53.757812 116.363281-64.445312 178.25zm391.382812-194.144531v36.785156c0 58.496094-10.414062 115.941406-30.953125 170.726562l-4.976563 13.257813c-8.6875 23.167969-31.148437 38.734375-55.902343 38.734375-26.742188 0-49.535157-17.375-57.054688-42.304688l-.320312.375-49.441407-42.375c-2.777343-2.382812-6.328124-3.695312-9.992187-3.695312-8.472656 0-15.359375 6.886719-15.359375 15.359375v72.640625h-16v-72.640625c0-17.289063 14.070312-31.359375 31.359375-31.359375 7.488281 0 14.738281 2.679688 20.417969 7.550781l34.34375 29.441407c-11.59375-59.71875-34.472656-117.585938-66.855469-169.054688l-5.019531 20.0625h-44.492188l-5.019531-20.054688c-32.382813 51.46875-55.261719 109.328126-66.855469 169.054688l34.351563-29.441406c5.671875-4.878906 12.929687-7.558594 20.410156-7.558594 17.289063 0 31.359375 14.070312 31.359375 31.359375v72.640625h-16v-72.640625c0-8.472656-6.886719-15.359375-15.359375-15.359375-3.664063 0-7.214844 1.3125-9.992187 3.695312l-49.449219 42.375-.320313-.375c-7.519531 24.929688-30.3125 42.304688-57.046875 42.304688-24.753906 0-47.207031-15.566406-55.894531-38.742188l-4.976562-13.25c-20.546876-54.785156-30.960938-112.222656-30.960938-170.726562v-36.785156c0-68.648438 55.847656-124.496094 124.496094-124.496094 19.222656 0 38.480468 4.542969 55.679687 13.144531l33.097657 16.550781 11.34375-141.695312h46.765624l11.335938 141.695312 33.105469-16.550781c17.199219-8.59375 36.457031-13.144531 55.679687-13.144531 68.648438 0 124.496094 55.847656 124.496094 124.496094zm-280.625 2.007812-7.453125-29.832031.101563-1.3125 3.878906-48.464844-38.878906-19.4375c-14.992188-7.496093-31.777344-11.457031-48.527344-11.457031-59.824219 0-108.496094 48.671875-108.496094 108.496094v36.785156c0 56.574219 10.070312 112.125 29.9375 165.109375l4.972656 13.25c6.355469 16.960937 22.800782 28.359375 40.921875 28.359375 21.632813 0 39.785157-15.503906 43.167969-36.878906 11.367188-72.03125 38.761719-142.167969 79.199219-202.832032zm42.378906 25.496094 14.167969-56.671875-15.304687-191.328125h-17.234376l-15.304687 191.328125 14.167969 56.671875zm222.246094-27.503906c0-59.824219-48.671875-108.496094-108.496094-108.496094-16.75 0-33.527344 3.960938-48.519531 11.457031l-38.878906 19.445313 3.984375 49.777344-7.457032 29.832031 1.183594 1.777343c40.449219 60.664063 67.832032 130.808594 79.199219 202.832032 3.382813 21.375 21.527344 36.878906 43.167969 36.878906 18.121094 0 34.558594-11.398438 40.914062-28.351562l4.972656-13.265626c19.859376-52.976562 29.929688-108.527343 29.929688-165.101562zm0 0" fill="url(#a)"/></svg>