<svg height="496pt" viewBox="0 -72 496 496" width="496pt" xmlns="http://www.w3.org/2000/svg" xmlns:xlink="http://www.w3.org/1999/xlink"><linearGradient id="a" gradientTransform="matrix(8 0 0 -8 -8 432)" gradientUnits="userSpaceOnUse" x1="32" x2="32" y1="9.999" y2="54"><stop offset="0" stop-color="#9f2fff"/><stop offset="1" stop-color="#0bb1d3"/></linearGradient><path d="m496 184c0-26.472656-21.527344-48-48-48h-16c-12.488281 0-23.214844 7.265625-28.488281 17.71875-15.390625-11.4375-33.917969-17.71875-53.457031-17.71875h-18.71875c-13.886719 0-27.800782 3.289062-40.222657 9.496094l-43.464843 21.734375-23.648438-5.566407v-32.878906c0-11.9375-1.785156-23.777344-5.289062-35.175781l-2.816407-9.152344c-15.542969-50.519531-61.496093-84.457031-114.351562-84.457031-55.992188 0-101.542969 45.550781-101.542969 101.550781 0 29.28125 12.640625 57.136719 34.679688 76.425781 18.632812 16.3125 29.320312 39.855469 29.320312 64.625v48.375c0 33.65625 27.375 61.03125 61.03125 61.03125 24.457031 0 46.472656-14.519531 56.191406-37.230468l22.328125-57.304688c6.023438-15.472656 20.640625-25.464844 37.234375-25.464844 3.96875 0 7.925782.59375 11.75 1.769532l79.839844 24.566406c12.242188 3.777344 24.785156 5.640625 37.753906 5.511719 8.613282-.039063 17.230469.878906 25.625 2.832031l100.246094 23.390625v-64.414063l-17.992188-4.230468c11.007813-8.847656 17.992188-22.402344 17.992188-37.433594zm-16 85.921875-80.609375-18.816406c-9.621094-2.242188-19.269531-3.257813-29.398437-3.257813-11.113282.007813-22.230469-1.519531-32.902344-4.816406l-79.851563-24.566406c-5.351562-1.640625-10.878906-2.472656-16.445312-2.472656-23.242188 0-43.714844 13.992187-52.144531 35.648437l-22.222657 57.0625c-7.105469 16.578125-23.355469 27.289063-41.394531 27.289063-24.832031 0-45.03125-20.199219-45.03125-45.03125v-48.375c0-29.378907-12.679688-57.320313-34.792969-76.664063-18.558593-16.25-29.207031-39.714844-29.207031-64.386719 0-47.160156 38.375-85.535156 85.542969-85.535156 45.785156 0 85.59375 29.398438 99.058593 73.160156l2.8125 9.152344c3.050782 9.878906 4.585938 20.136719 4.585938 30.480469v45.550781l272 64zm-27.054688-54.386719-180.960937-42.574218 26.289063-13.144532c10.214843-5.113281 21.648437-7.808594 33.070312-7.808594h18.71875c18.867188 0 36.601562 7.089844 50.328125 19.886719 1.945313 15.792969 15.289063 28.105469 31.609375 28.105469 17.648438 0 32-14.351562 32-32h-16c0 8.824219-7.175781 16-16 16s-16-7.175781-16-16 7.175781-16 16-16h16c17.648438 0 32 14.351562 32 32 0 15.816406-11.566406 29.128906-27.054688 31.535156zm-264.816406-112.527344c2.566406 8.367188 3.871094 17.046876 3.871094 25.785157v15.207031h-8c-13.230469 0-24 14.351562-24 32s10.769531 32 24 32v16c-22.054688 0-40-21.527344-40-48 0-23.175781 13.769531-42.574219 32-47.03125v-.175781c0-7.144531-1.070312-14.234375-3.167969-21.082031l-2.816406-9.152344c-9.304687-30.238282-36.824219-50.558594-68.472656-50.558594-29.519531 0-53.542969 24.015625-53.542969 53.542969 0 15.441406 6.664062 30.136719 18.289062 40.3125 29.054688 25.417969 45.710938 62.136719 45.710938 100.738281v53.40625h-16v-53.40625c0-33.992188-14.671875-66.320312-40.238281-88.699219-15.105469-13.214843-23.761719-32.292969-23.761719-52.34375 0-38.351562 31.191406-69.550781 69.542969-69.550781 38.722656 0 72.386719 24.855469 83.769531 61.855469zm0 0" fill="url(#a)"/></svg>