<svg height="496pt" viewBox="-43 0 496 496" width="496pt" xmlns="http://www.w3.org/2000/svg" xmlns:xlink="http://www.w3.org/1999/xlink"><linearGradient id="a" gradientUnits="userSpaceOnUse" x1="205.2656" x2="205.2656" y1="496" y2="0"><stop offset="0" stop-color="#9f2fff"/><stop offset="1" stop-color="#0bb1d3"/></linearGradient><path d="m405.472656 72.414062 5.0625 15.171876-34.535156 11.519531v-99.105469h16v76.894531zm0 48 5.0625 15.171876-18.535156 6.183593v354.230469h-64v-296h-28.761719c-15.695312 0-30.992187 5.527344-43.046875 15.585938-15.367187 12.8125-24.191406 31.636718-24.191406 51.652343v118.105469c0 61.015625-49.640625 110.65625-110.664062 110.65625h-10.679688c-61.015625 0-110.65625-49.640625-110.65625-110.65625 0-33.808594 15.136719-65.304688 41.527344-86.414062l166.410156-133.136719c24.03125-19.207031 54.199219-29.792969 84.957031-29.792969h35.105469v-136h16v152h-51.105469c-27.140625 0-53.765625 9.335938-74.964843 26.296875l-137.121094 109.703125h31.191406v16h-51.191406l-9.289063 7.433594c-3.320312 2.65625-6.359375 5.550781-9.253906 8.566406h37.734375v16h-50.121094c-5.046875 8.238281-8.765625 17.222656-11.078125 26.65625 2.871094 2.542969 5.589844 5.121094 8.144531 7.65625 9.710938 9.65625 18.101563 17.992188 38.285157 21.558594 20.195312 3.542968 30.9375-1.398438 43.378906-7.144532 12.992187-6.007812 27.734375-12.824218 52.871094-8.367187 25.144531 4.433594 36.65625 15.863281 46.816406 25.953125 1.695313 1.679688 3.367187 3.28125 5.054687 4.871094 1.671876-7.015625 2.648438-14.3125 2.648438-21.839844v-25.34375h-48v-16h48v-48h-56v-16h56v-12.761719c0-24.78125 10.921875-48.085937 29.953125-63.949219 14.925781-12.441406 33.855469-19.289062 53.285156-19.289062h44.761719v296h32v-349.769531zm-197.65625 303.25c-3.984375-3.257812-7.449218-6.664062-10.800781-9.992187-9.71875-9.648437-18.113281-17.984375-38.320313-21.550781-20.199218-3.546875-30.941406 1.398437-43.382812 7.144531-13 6.007813-27.71875 12.832031-52.863281 8.367187-24.722657-4.367187-36.25-15.496093-46.273438-25.457031-.03125 1.054688-.175781 2.097657-.175781 3.167969 0 52.191406 42.464844 94.65625 94.664062 94.65625h10.679688c38.542969 0 71.726562-23.191406 86.472656-56.335938zm0 0" fill="url(#a)"/></svg>