<svg height="496pt" viewBox="0 0 496 496" width="496pt" xmlns="http://www.w3.org/2000/svg" xmlns:xlink="http://www.w3.org/1999/xlink"><linearGradient id="a" gradientUnits="userSpaceOnUse" x1="248" x2="248" y1="496" y2="0"><stop offset="0" stop-color="#9f2fff"/><stop offset="1" stop-color="#0bb1d3"/></linearGradient><path d="m416 0c-16.832031 0-32.878906 7.144531-46.441406 20.65625-13.222656 13.183594-19.367188 32.152344-17.65625 51.734375-58.414063 27.855469-95.902344 86.65625-95.902344 151.609375v48h-16v-48c0-64.953125-37.488281-123.753906-95.910156-151.609375 1.710937-19.582031-4.433594-38.550781-17.65625-51.734375-13.554688-13.511719-29.601563-20.65625-46.433594-20.65625-44.113281 0-80 50.238281-80 112s35.886719 112 80 112c16.832031 0 32.878906-7.144531 46.441406-20.65625 17.933594-17.878906 22.964844-46.414062 12.816406-72.679688-.867187-2.238281-1.449218-4.71875-1.96875-7.222656 33.613282 21.972656 54.710938 60 54.710938 100.558594v50.878906c-14.863281 4.664063-27.425781 14.816406-34.128906 28.5625-9.136719 18.703125-7.464844 40.816406 4.367187 57.710938l32.875 46.960937c13.664063 19.261719 20.878907 40.175781 20.878907 60.488281v27.398438h64v-27.398438c0-20.3125 7.214843-41.226562 21.085937-60.769531l31.761719-45.367187c6.089844-8.695313 9.832031-18.25 10.824218-27.601563 1.71875-16.070312-3.457031-32.136719-14.175781-44.0625-6.921875-7.695312-15.777343-13.242187-25.488281-16.242187v-50.558594c0-40.558594 21.097656-78.585938 54.71875-100.566406-.527344 2.503906-1.101562 4.980468-1.964844 7.222656-10.160156 26.273438-5.128906 54.800781 12.8125 72.679688 13.554688 13.519531 29.601563 20.664062 46.433594 20.664062 44.113281 0 80-50.238281 80-112s-35.886719-112-80-112zm-300.855469 192.015625c-10.496093 10.457031-22.648437 15.984375-35.144531 15.984375-35.289062 0-64-43.0625-64-96s28.710938-96 64-96c12.496094 0 24.648438 5.527344 35.144531 15.984375 13.449219 13.40625 17.054688 35.230469 9.183594 55.589844-2.832031 7.328125-4.328125 15.777343-4.328125 24.425781s1.496094 17.097656 4.328125 24.425781c7.863281 20.359375 4.257813 42.183594-9.183594 55.589844zm21.496094-87.550781c.519531-3.9375 1.304687-7.738282 2.605469-11.128906.617187-1.59375 1-3.214844 1.507812-4.824219 50.847656 25.863281 83.246094 78.03125 83.246094 135.488281v48h-13.808594c-.742187 0-1.457031.121094-2.191406.152344v-48.152344c0-49.625-27.855469-95.886719-71.359375-119.535156zm180.945313 197.023437c7.8125 8.6875 11.421874 19.9375 10.167968 31.679688-.714844 6.671875-3.488281 13.632812-8.027344 20.121093l-31.894531 45.566407c-15.59375 21.984375-23.832031 46.105469-23.832031 69.746093v11.398438h-32v-11.398438c0-23.640624-8.238281-47.761718-23.976562-69.945312l-32.671876-46.671875c-8.496093-12.136719-9.679687-28.046875-3.105468-41.519531 6.65625-13.648438 21.554687-22.464844 37.945312-22.464844h77.144532c11.511718 0 22.542968 4.921875 30.25 13.488281zm-29.585938-77.488281v48.03125c-.222656 0-.441406-.03125-.664062-.03125h-15.335938v-48c0-57.457031 32.398438-109.625 83.246094-135.480469.507812 1.609375.890625 3.222657 1.507812 4.824219 1.300782 3.382812 2.085938 7.183594 2.605469 11.128906-43.503906 23.640625-71.359375 69.902344-71.359375 119.527344zm128-16c-12.496094 0-24.648438-5.527344-35.144531-15.984375-13.449219-13.40625-17.054688-35.230469-9.183594-55.589844 2.832031-7.328125 4.328125-15.777343 4.328125-24.425781s-1.496094-17.097656-4.328125-24.425781c-7.863281-20.359375-4.257813-42.175781 9.183594-55.589844 10.496093-10.457031 22.648437-15.984375 35.144531-15.984375 35.289062 0 64 43.0625 64 96s-28.710938 96-64 96zm8-96c0 31.398438-17.566406 56-40 56v-16c13.007812 0 24-18.320312 24-40s-10.992188-40-24-40v-16c22.433594 0 40 24.601562 40 56zm-312-56v16c-13.007812 0-24 18.320312-24 40s10.992188 40 24 40v16c-22.433594 0-40-24.601562-40-56s17.566406-56 40-56zm189.664062 252.222656 6.761719-3.375 7.160157 14.3125-6.761719 3.375c-32.585938 16.289063-52.824219 49.039063-52.824219 85.464844h-16c0-36.425781-20.238281-69.175781-52.824219-85.464844l-6.761719-3.375 7.160157-14.3125 6.761719 3.375c25.015624 12.503906 43.734374 33.351563 53.664062 58.234375 9.929688-24.890625 28.648438-45.730469 53.664062-58.234375zm0 0" fill="url(#a)"/></svg>