<svg height="497pt" viewBox="0 0 497.568 497" width="497pt" xmlns="http://www.w3.org/2000/svg" xmlns:xlink="http://www.w3.org/1999/xlink"><linearGradient id="a" gradientUnits="userSpaceOnUse" x1="248.784" x2="248.784" y1="496.284" y2=".284"><stop offset="0" stop-color="#9f2fff"/><stop offset="1" stop-color="#0bb1d3"/></linearGradient><path d="m393.566406 32.285156c-11.40625 0-22.605468 2.519532-33.285156 7.503906-26.304688 12.246094-43.28125 37.671876-46.816406 66.144532-15.585938-16.226563-24.679688-38.082032-24.679688-61.167969v-44.480469h-80v44.480469c0 23.453125-8.921875 45.015625-24.679687 61.230469-3.511719-28.496094-20.496094-53.953125-46.816407-66.207032-10.679687-4.984374-21.882812-7.503906-33.289062-7.503906-57.34375 0-104 64.597656-104 144 0 79.398438 46.65625 144 104 144 11.40625 0 22.609375-2.519531 33.289062-7.503906 26.414063-12.304688 43.414063-37.898438 46.847657-66.511719 6.152343 13.972657 9.4375 29.230469 9.4375 44.742188v205.273437h48v-205.265625c0-48.878906-22.367188-94.703125-60.277344-124.429687 31.871094-15.785156 55.808594-42.90625 67.488281-75.503906 11.726563 32.78125 35.839844 59.988281 67.984375 75.742187-37.738281 29.734375-59.984375 75.441406-59.984375 124.191406v205.265625h48v-205.265625c0-14.960937 3.101563-29.65625 8.832032-43.214843 3.847656 28 20.726562 52.902343 46.671874 64.984374 10.671876 4.976563 21.871094 7.496094 33.277344 7.496094 57.34375 0 104-64.601562 104-144 0-79.402344-46.644531-144-104-144zm-263.039062 266c-8.550782 3.984375-17.472656 6-26.527344 6-48.519531 0-88-57.425781-88-128 0-70.578125 39.480469-128 88-128 9.054688 0 17.984375 2.015625 26.527344 6 30.6875 14.292969 45.632812 51.070313 34.753906 85.550782-.191406.609374-.328125 1.28125-.511719 1.894531-10.265625-13.03125-26.144531-21.445313-43.984375-21.445313v16c20.078125 0 36.597656 14.925782 39.414063 34.246094-.078125 1.921875-.199219 3.824219-.199219 5.753906 0 1.925782.121094 3.839844.199219 5.75-2.816407 19.320313-19.335938 34.25-39.414063 34.25v16c17.839844 0 33.71875-8.417968 43.984375-21.457031.183594.625.320313 1.289063.511719 1.894531 10.871094 34.488282-4.066406 71.265625-34.753906 85.5625zm95.039062-7.265625v189.265625h-16v-189.265625c0-28.917969-9.910156-57.128906-27.910156-79.398437l-.105469.085937c-.34375-1.261719-.613281-2.527343-1.015625-3.792969-2.320312-7.367187-3.75-15.671874-4.277344-24.335937.015626-.109375.039063-.214844.046876-.324219 31.0625 26.71875 49.261718 65.980469 49.261718 107.765625zm31.21875-246.253906h-16c0 44.230469-23.800781 84.007813-61.609375 104.964844.433594-1.710938.839844-3.445313 1.359375-5.078125 1.816406-5.753906 2.984375-11.558594 3.640625-17.351563 25.425781-19.511719 40.609375-50.105469 40.609375-82.535156v-28.480469h48v28.480469c0 32.496094 15.175782 62.957031 40.605469 82.488281.65625 5.804688 1.824219 11.628906 3.648437 17.398438.511719 1.632812.929688 3.367187 1.359376 5.085937-37.839844-20.949219-61.613282-60.671875-61.613282-104.972656zm32 246.253906v189.265625h-16v-189.265625c0-41.457031 17.902344-80.441406 48.519532-107.136719-.542969 8.5625-1.976563 16.761719-4.273438 24.042969-.535156 1.695313-.933594 3.390625-1.359375 5.09375-17.320313 22.054688-26.886719 49.65625-26.886719 78zm104.78125 13.265625c-9.054687 0-17.980468-2.015625-26.527344-6-30.6875-14.296875-45.632812-51.074218-34.75-85.554687.191407-.605469.328126-1.277344.511719-1.894531 10.261719 13.03125 26.144531 21.449218 43.984375 21.449218v-16c-20.082031 0-36.601562-14.929687-39.417968-34.25.082031-1.917968.199218-3.824218.199218-5.75 0-1.929687-.117187-3.839844-.199218-5.753906 2.816406-19.320312 19.335937-34.246094 39.417968-34.246094v-16c-17.839844 0-33.722656 8.414063-43.984375 21.453125-.183593-.621093-.320312-1.285156-.511719-1.894531-10.882812-34.488281 4.054688-71.253906 34.75-85.550781 8.554688-3.992188 17.472657-6.007813 26.527344-6.007813 48.523438 0 88 57.421875 88 128 0 70.574219-39.46875 128-88 128zm-3.757812-200.570312c-9.542969-3.824219-18.5625-7.429688-37.023438-7.429688v-16c21.535156 0 32.429688 4.359375 42.976563 8.566406 9.542969 3.824219 18.558593 7.433594 37.023437 7.433594v16c-21.539062 0-32.433594-4.359375-42.976562-8.570312zm16 57.136718c10.542968-4.207031 21.4375-8.566406 42.976562-8.566406v16c-18.464844 0-27.480468 3.605469-37.023437 7.429688-10.546875 4.210937-21.441407 8.570312-42.976563 8.570312v-16c18.460938 0 27.480469-3.609375 37.023438-7.433594zm-16 88c10.542968-4.207031 21.4375-8.566406 42.976562-8.566406v16c-18.464844 0-27.480468 3.605469-37.023437 7.429688-10.546875 4.210937-21.441407 8.570312-42.976563 8.570312v-16c18.460938 0 27.480469-3.609375 37.023438-7.433594zm-282.046875-145.136718c-10.546875 4.210937-21.441407 8.570312-42.976563 8.570312v-16c18.460938 0 27.480469-3.609375 37.023438-7.433594 10.542968-4.207031 21.4375-8.566406 42.976562-8.566406v16c-18.464844 0-27.480468 3.605469-37.023437 7.429688zm-21.953125 72c-9.542969-3.824219-18.5625-7.429688-37.023438-7.429688v-16c21.535156 0 32.429688 4.359375 42.976563 8.566406 9.542969 3.824219 18.558593 7.433594 37.023437 7.433594v16c-21.539062 0-32.433594-4.359375-42.976562-8.570312zm21.953125 73.136718c9.542969 3.824219 18.558593 7.433594 37.023437 7.433594v16c-21.539062 0-32.433594-4.359375-42.976562-8.570312-9.542969-3.824219-18.5625-7.429688-37.023438-7.429688v-16c21.535156 0 32.429688 4.359375 42.976563 8.566406zm0 0" fill="url(#a)"/></svg>