<svg height="496pt" viewBox="-96 0 496 496" width="496pt" xmlns="http://www.w3.org/2000/svg" xmlns:xlink="http://www.w3.org/1999/xlink"><linearGradient id="a" gradientUnits="userSpaceOnUse" x1="152" x2="152" y1="496" y2="0"><stop offset="0" stop-color="#9f2fff"/><stop offset="1" stop-color="#0bb1d3"/></linearGradient><path d="m181.929688 206.246094c2.285156 1.144531 4.863281 1.753906 7.421874 1.753906h2.082032v16h-2.082032c-5.03125 0-10.078124-1.191406-14.582031-3.449219l-5.714843-2.863281c-25.382813-12.6875-56.734376-12.671875-82.09375 0l-5.761719 2.878906c-4.480469 2.25-9.511719 3.433594-14.550781 3.433594h-2.082032v-16h2.082032c2.558593 0 5.121093-.601562 7.382812-1.734375l5.777344-2.890625c29.785156-14.878906 66.582031-14.878906 96.40625.007812zm18.070312-206.246094v56.230469c0 33.824219 13.167969 65.625 37.089844 89.539062 12.191406 12.199219 18.910156 28.414063 18.910156 45.664063 0 .902344-.097656 1.773437-.136719 2.671875l1.273438.359375c27.597656 7.863281 46.863281 33.398437 46.863281 62.101562 0 17.25-6.71875 33.464844-18.910156 45.65625-23.921875 23.921875-37.089844 55.722656-37.089844 89.546875v104.230469h-144v-104.230469c0-28.113281-9.214844-54.746093-26.015625-76.699219-3.863281 10.921876-5.984375 22.554688-5.984375 34.464844v82.464844h-18.425781l-2.015625-1.34375c-17.253906-11.503906-27.558594-30.761719-27.558594-51.496094v-49.296875c-10.472656-21.597656-16-45.632812-16-69.640625v-37.71875c-5.089844-9.222656-8-19.816406-8-31.070312 0-17.25 6.71875-33.464844 18.910156-45.65625 23.921875-23.921875 37.089844-55.722656 37.089844-89.546875v-56.230469zm-135.425781 305.023438c.136719-.335938.355469-.855469 1.777343-3.421876-11.824218-12.121093-18.351562-28.066406-18.351562-45.035156 0-.925781.097656-1.847656.136719-2.765625-8.945313-2.359375-17.144531-6.542969-24.136719-12.199219v18.621094c0 22.175782 5.238281 44.378906 15.160156 64.203125l.839844 1.6875v53.046875c0 13.503906 5.894531 26.167969 16 34.824219v-64.441406c0-15.320313 2.878906-30.296875 8.574219-44.519531zm188.664062-94.992188c-8.007812 26.5625-32.671875 45.96875-61.804687 45.96875h-2.074219c-9.976563 0-19.96875-2.359375-28.878906-6.816406l-5.746094-2.871094c-16.511719-8.257812-36.949219-8.257812-53.46875 0l-5.746094 2.871094c-8.910156 4.457031-18.894531 6.816406-28.871093 6.816406h-2.074219c-.183594 0-.359375-.023438-.542969-.023438 0 .199219-.03125.398438-.03125.597657 0 12.976562 5.046875 25.167969 14.222656 34.347656 26.945313 26.925781 41.777344 62.742187 41.777344 100.847656v88.230469h112v-88.230469c0-38.097656 14.832031-73.914062 41.777344-100.847656 9.175781-9.1875 14.222656-21.378906 14.222656-34.355469 0-21.421875-14.28125-40.46875-34.761719-46.535156zm-69.238281-153.800781v-40.230469h-112v40.230469c0 32.089843-10.640625 62.496093-30.054688 87.402343l25.816407.3125 31.300781-46.960937 67-16.753906 3.882812 15.523437-53.53125 13.382813 16.113282 26.863281h35.472656v16h-44.527344l-19.824218-33.039062-27.402344 41.09375-48.183594-.574219c-7.773438 8.847656-12.0625 20.054687-12.0625 31.953125 0 26.773437 21.792969 48.566406 48.566406 48.566406h2.074219c7.503906 0 15.015625-1.777344 21.71875-5.128906l5.753906-2.871094c10.472657-5.230469 22.183594-8 33.886719-8s23.425781 2.769531 33.886719 8l5.746093 2.871094c6.703126 3.351562 14.214844 5.128906 21.71875 5.128906h2.074219c26.78125 0 48.574219-21.792969 48.574219-48.566406 0-12.976563-5.046875-25.167969-14.222656-34.34375-26.945313-26.9375-41.777344-62.753906-41.777344-100.859375zm21.710938 225.664062c-22.359376 8.945313-48.3125 7.867188-69.839844-2.902343l-12.296875-6.152344-7.160157 14.3125 12.296876 6.152344c12.191406 6.09375 25.664062 9.519531 39.28125 10.34375v36.351562l-32 24v52h16v-44l23.246093-17.441406 35.097657 35.097656 11.3125-11.3125-37.648438-37.65625v-37.191406c9.472656-.929688 18.742188-3.175782 27.664062-6.742188l23.3125-9.328125-5.945312-14.859375zm0 0" fill="url(#a)"/></svg>