<svg height="496pt" viewBox="0 0 496 496" width="496pt" xmlns="http://www.w3.org/2000/svg" xmlns:xlink="http://www.w3.org/1999/xlink"><linearGradient id="a" gradientUnits="userSpaceOnUse" x1="248" x2="248" y1="496" y2="0"><stop offset="0" stop-color="#9f2fff"/><stop offset="1" stop-color="#0bb1d3"/></linearGradient><path d="m10.152344 296.078125c-6.082032 8.730469-9.792969 19.128906-10.1289065 30.179687-.5117185 16.703126 7.6015625 33.054688 22.2421875 44.863282 11.328125 9.136718 23.175781 13.34375 36.101563 12.808594 4.824218 16.183593 16.871093 29.605468 32.785156 36 2.945312 1.191406 4.847656 4.054687 4.847656 7.300781v36.769531h48v-46.144531c0-2.390625 1.183594-4.726563 3.257812-6.40625 12.734376-10.328125 20.292969-25.617188 20.726563-41.945313.441406-16.601562-7.671875-32.871094-22.257813-44.640625-11.320312-9.136719-23.117187-13.296875-36.085937-12.800781-1.695313-5.734375-4.328125-11.140625-7.753906-16.0625 6.351562-9.070312 10.113281-20.097656 10.113281-32 0-11.496094-3.542969-22.632812-10.097656-32 6.554687-9.367188 10.097656-20.503906 10.097656-32 0-11.671875-3.679688-22.792969-10.097656-32 6.523437-9.34375 10.097656-20.472656 10.097656-32 0-9.089844-2.214844-17.953125-6.382812-25.886719 15.75 4.207031 33.054687 1.117188 46.382812-8.210937 9.367188 6.554687 20.503906 10.097656 32 10.097656 11.710938 0 22.816406-3.6875 32.007812-10.097656 9.34375 6.523437 20.472657 10.097656 31.992188 10.097656 11.496094 0 22.632812-3.542969 32-10.097656 9.367188 6.554687 20.503906 10.097656 32 10.097656 11.527344 0 22.65625-3.574219 32.007812-10.105469 9.082032 6.351563 20.097657 10.105469 31.992188 10.105469 4.863281 0 9.695312-.640625 14.382812-1.886719-4.167968 7.933594-6.382812 16.796875-6.382812 25.886719 0 11.496094 3.542969 22.632812 10.097656 32-6.554687 9.367188-10.097656 20.503906-10.097656 32 0 11.535156 3.574219 22.65625 10.105469 32.007812-6.351563 9.082032-10.105469 20.097657-10.105469 31.992188 0 11.535156 3.574219 22.71875 10.167969 32.105469-3.464844 4.925781-6.089844 10.308593-7.792969 15.964843-12.878906-.582031-24.78125 3.65625-36.109375 12.800782-14.585937 11.769531-22.699219 28.039062-22.257813 44.640625.382813 14.519531 6.328126 28.152343 16.710938 38.359375 4.695312 4.609375 7.28125 10.433594 7.28125 16.410156v71.71875h48v-59.816406c0-7.976563 4.558594-15.398438 12.183594-19.855469 12.457031-7.265625 21.457031-18.824219 25.457031-32.398437 12.886719.550781 24.726563-3.648438 36.03125-12.753907 14.886719-11.984375 23.007813-28.609375 22.28125-45.609375-.457031-10.589844-3.984375-20.871094-10.050781-29.566406 6.546875-9.367188 10.097656-20.503906 10.097656-32 0-11.527344-3.574219-22.65625-10.105469-32.007812 6.351563-9.082032 10.105469-20.097657 10.105469-31.992188 0-11.496094-3.542969-22.632812-10.097656-32 6.554687-9.367188 10.097656-20.503906 10.097656-32 0-11.894531-3.753906-22.910156-10.105469-31.992188 6.53125-9.351562 10.105469-20.480468 10.105469-32.007812 0-30.878906-25.121094-56-56-56-7.207031 0-14.367188 1.414062-21.039062 4.128906-10.585938-12.722656-26.183594-20.128906-42.960938-20.128906-11.519531 0-22.640625 3.574219-31.992188 10.097656-9.183593-6.402344-20.253906-10.097656-32.007812-10.097656-11.496094 0-22.632812 3.542969-32 10.097656-9.367188-6.554687-20.503906-10.097656-32-10.097656-11.894531 0-22.910156 3.753906-31.992188 10.105469-9.351562-6.53125-20.472656-10.105469-32.007812-10.105469-11.496094 0-22.632812 3.542969-32 10.097656-9.367188-6.554687-20.503906-10.097656-32-10.097656-16.769531 0-32.457031 7.519531-43.039062 20.28125-6.554688-2.671875-13.601563-4.28125-20.960938-4.28125-30.878906 0-56 25.121094-56 56 0 2.617188.238281 5.175781.59375 7.695312.070312.542969.148438 1.082032.246094 1.617188.878906 5.214844 2.480468 10.175781 4.695312 14.800781.152344.320313.296875.628907.457032.949219 1.199218 2.386719 2.542968 4.691406 4.0625 6.867188.015624.023437.023437.046874.042968.070312-6.554687 9.367188-10.097656 20.503906-10.097656 32 0 11.894531 3.753906 22.910156 10.105469 31.992188-6.53125 9.351562-10.105469 20.472656-10.105469 32.007812 0 11.496094 3.542969 22.632812 10.097656 32-6.554687 9.367188-10.097656 20.503906-10.097656 32 0 11.550781 3.601562 22.710938 10.152344 32.078125zm45.847656-264.078125c17.847656 0 33.671875 12.015625 38.480469 29.222656l15.40625-4.300781c-3.207031-11.496094-10-21.257813-18.863281-28.402344 7.496093-7.902343 17.898437-12.519531 28.976562-12.519531 9.824219 0 19.289062 3.640625 26.664062 10.246094l5.335938 4.792968 5.335938-4.792968c12.695312-11.390625 32.128906-12.863282 46.632812-4.742188-7.464844 9.519532-11.96875 21.480469-11.96875 34.496094h16c0-22.054688 17.945312-40 40-40 9.824219 0 19.289062 3.640625 26.664062 10.246094l5.335938 4.792968 5.335938-4.792968c7.375-6.605469 16.839843-10.246094 26.664062-10.246094 17.152344 0 32.375 10.902344 37.886719 27.136719l15.152343-5.144531c-2.078124-6.128907-5.214843-11.65625-9.054687-16.542969 6.046875-3.503907 12.910156-5.449219 20.015625-5.449219 13.6875 0 26.289062 6.921875 33.695312 18.511719l4.082032 6.382812 6.589844-3.726562c5.992187-3.375 12.785156-5.167969 19.632812-5.167969 22.054688 0 40 17.945312 40 40 0 7.105469-1.9375 13.976562-5.449219 20.023438-9.527343-7.503907-21.511719-12.023438-34.550781-12.023438v16c22.054688 0 40 17.945312 40 40 0 9.824219-3.640625 19.289062-10.246094 26.664062l-4.792968 5.335938 4.792968 5.335938c6.605469 7.375 10.246094 16.839843 10.246094 26.664062 0 22.054688-17.945312 40-40 40v16c13.039062 0 25.023438-4.519531 34.550781-12.015625 3.503907 6.039063 5.449219 12.910156 5.449219 20.015625 0 9.816406-3.640625 19.28125-10.246094 26.664062l-4.785156 5.335938 4.785156 5.34375c6.191406 6.894531 9.820313 15.753906 10.214844 24.914062.503906 11.863282-5.441406 23.695313-16.328125 32.453126-12.761719 10.265624-23.175781 10-30.808594 8.601562l-8.113281-1.472656-1.222656 8.160156c-1.808594 11.992188-8.863282 22.382812-19.367188 28.511719-12.609375 7.359375-20.128906 19.953125-20.128906 33.671875v43.816406h-16v-55.71875c0-10.296875-4.28125-20.175781-12.046875-27.824219-7.425781-7.296875-11.664063-17.015625-11.9375-27.378906-.304687-11.574219 5.640625-23.15625 16.3125-31.765625 12.769531-10.289062 23.183594-10.046875 30.847656-8.632812l8.113281 1.472656 1.222657-8.160156c1.136719-7.527344 4.535156-14.640626 9.832031-20.578126l4.785156-5.351562-4.808594-5.335938c-6.65625-7.375-10.320312-16.871093-10.320312-26.726562 0-22.054688 17.945312-40 40-40v-16c-13.039062 0-25.023438 4.519531-34.550781 12.023438-3.503907-6.046876-5.449219-12.917969-5.449219-20.023438 0-9.824219 3.640625-19.289062 10.246094-26.664062l4.792968-5.335938-4.792968-5.335938c-6.605469-7.375-10.246094-16.839843-10.246094-26.664062s3.640625-19.289062 10.246094-26.664062l4.792968-5.335938-4.792968-5.34375c-1.476563-1.648438-2.796875-3.382812-3.941406-5.167969l-4.082032-6.382812-6.597656 3.726562c-5.984375 3.375-12.777344 5.167969-19.625 5.167969-22.054688 0-40-17.945312-40-40h-16c0 13.015625 4.503906 24.976562 11.976562 34.496094-14.511718 8.128906-33.9375 6.640625-46.640624-4.742188l-5.335938-4.792968-5.335938 4.792968c-12.695312 11.375-32.097656 12.863282-46.617187 4.75 3.6875-4.695312 6.695313-9.984375 8.761719-15.816406l-15.089844-5.335938c-5.640625 15.9375-20.796875 26.648438-37.71875 26.648438-9.824219 0-19.289062-3.640625-26.664062-10.246094l-5.335938-4.792968-5.335938 4.792968c-12.503906 11.222656-31.703124 13.316406-46.289062 5.078125l-6.597656-3.726562-4.082032 6.382812c-1.144531 1.785157-2.464843 3.519531-3.941406 5.167969l-4.792968 5.34375 4.792968 5.335938c6.605469 7.375 10.246094 16.839843 10.246094 26.664062 0 7.089844-1.9375 13.953125-5.425781 19.984375-4.503907-3.550781-9.574219-6.464844-15.125-8.519531l-5.5625 15.015625c15.617187 5.777343 26.113281 20.855469 26.113281 37.519531 0 9.824219-3.640625 19.289062-10.246094 26.664062l-4.792968 5.335938 4.792968 5.335938c6.605469 7.375 10.246094 16.839843 10.246094 26.664062 0 22.054688-17.945312 40-40 40v16c13.015625 0 24.976562-4.503906 34.496094-11.976562 2.488281 4.304687 4.246094 9 5 13.976562l1.222656 8.160156 8.113281-1.472656c7.664063-1.421875 18.089844-1.65625 30.847657 8.632812 10.671874 8.609376 16.617187 20.183594 16.3125 31.769532-.3125 11.644531-5.710938 22.558594-14.816407 29.941406-5.832031 4.738281-9.175781 11.59375-9.175781 18.824219v30.144531h-16v-20.769531c0-9.832031-5.839844-18.511719-14.886719-22.152344-13.082031-5.253906-22.503906-17.167969-24.609375-31.085937l-1.222656-8.152344-8.113281 1.472656c-7.664063 1.414062-18.089844 1.664062-30.855469-8.640625-10.710938-8.640625-16.648438-20.273437-16.296875-31.929687.511719-16.636719 11.464844-31.382813 27.257813-36.679688l-5.089844-15.167969c-6.183594 2.074219-11.769532 5.273438-16.71875 9.183594-3.519532-6.070313-5.464844-12.957031-5.464844-20.078125 0-9.824219 3.640625-19.289062 10.246094-26.664062l4.792968-5.335938-4.792968-5.335938c-6.605469-7.375-10.246094-16.839843-10.246094-26.664062 0-7.105469 1.945312-13.976562 5.449219-20.023438 9.527343 7.503907 21.511719 12.023438 34.550781 12.023438v-16c-22.054688 0-40-17.945312-40-40 0-7.070312 1.953125-13.9375 5.480469-19.992188 9.519531 7.488282 21.496093 11.992188 34.519531 11.992188v-16c-12.640625 0-23.800781-6.015625-31.136719-15.199219-.894531-1.121093-1.792969-2.242187-2.558593-3.441406-.609376-.953125-1.097657-1.984375-1.625-2.992187-.625-1.183594-1.28125-2.359376-1.777344-3.597657-.503906-1.265625-.847656-2.601562-1.222656-3.929687-.304688-1.078125-.695313-2.128906-.910157-3.230469-.480469-2.464844-.769531-5-.769531-7.609375 0-22.054688 17.945312-40 40-40zm0 0" fill="url(#a)"/></svg>