<svg height="497pt" viewBox="0 0 497 497.456" width="497pt" xmlns="http://www.w3.org/2000/svg" xmlns:xlink="http://www.w3.org/1999/xlink"><linearGradient id="a" gradientUnits="userSpaceOnUse" x1="248.228" x2="248.228" y1="497.456" y2=".0032"><stop offset="0" stop-color="#9f2fff"/><stop offset="1" stop-color="#0bb1d3"/></linearGradient><path d="m64.226562 249.457031v8h-16v-8c0-74.992187 61.007813-136 136-136v16c-66.167968 0-120 53.832031-120 120zm-16 40h16v-16h-16zm40 144h-88v-17.890625l.839844-1.6875c9.921875-19.824218 15.160156-42.023437 15.160156-64.199218v-100.222657c0-92.640625 75.363282-168 168-168h82.585938l32.582031-81.457031 79.738281 19.9375-13.710937 33.503906c-2.609375 6.367188-1.898437 13.300782 1.933594 19.015625 3.839843 5.71875 9.992187 9 16.871093 9h112v31.296875c0 85.078125-53.519531 162.316406-133.191406 192.191406l-1.359375.511719h-1.449219c-9.039062 0-17.292968-3.128906-24-8.210937v176.210937c0 13.230469-10.765624 24-24 24-13.230468 0-24-10.769531-24-24v-102.3125c0-30.6875-14.109374-59.234375-37.917968-78.082031-.6875.785156-1.367188 1.5625-2.082032 2.320312v106.074219h-48v-79.753906l-21.75 5.441406c3.726563 8.222657 5.75 17.128907 5.75 26.3125 0 35.285157-28.710937 64-64 64-3.109374 0-6.207031-.226562-9.261718-.664062-3.121094 9.632812-12.074219 16.664062-22.738282 16.664062zm80-80c0-7.824219-1.949218-15.367187-5.519531-22.183593-29.917969 9.351562-50.480469 36.964843-50.480469 68.648437v.804687c2.632813.441407 5.296876.730469 8 .730469 26.472657 0 48-21.527343 48-48zm64 32v-76.6875c-4.972656 3.230469-10.34375 5.925781-16 8.125v68.5625zm176-288c-39.695312 0-72 32.304688-72 72v96c0 12.773438 10.035157 23.246094 22.632813 23.957031 72.664063-27.925781 121.367187-98.726562 121.367187-176.660156v-15.296875zm-124.183593-16h70.089843c-.015624-.023437-.039062-.050781-.058593-.074219-6.757813-10.0625-8.054688-22.773437-3.460938-34l6.710938-16.40625-48.265625-12.066406zm-38.664063 16c16.351563 13.207031 26.847656 33.390625 26.847656 56v81.535157c0 16.382812-4.558593 31.855468-12.519531 45.160156 27.9375 21.863281 44.519531 55.160156 44.519531 90.992187v102.3125c0 4.40625 3.59375 8 8 8 4.410157 0 8-3.59375 8-8v-304c0-29.761719 14.890626-56.066406 37.5625-72zm-228.261718 320h71.109374c4.410157 0 8-3.59375 8-8v-9.535156c0-40.457031 27.410157-75.5625 66.65625-85.371094l38.808594-9.703125c32.113282-8.03125 54.535156-36.75 54.535156-69.855468v-81.535157c0-30.882812-25.117187-56-56-56h-16c-83.816406 0-152 68.183594-152 152v100.222657c0 23.320312-5.214843 46.664062-15.109374 67.777343zm446.207031-287.175781-15.914063-1.640625c-5.390625 52.382813-36.390625 98.40625-82.925781 123.121094l7.503906 14.132812c51.246094-27.222656 85.398438-77.917969 91.335938-135.613281zm0 0" fill="url(#a)"/></svg>