<svg height="496pt" viewBox="0 0 496 496" width="496pt" xmlns="http://www.w3.org/2000/svg" xmlns:xlink="http://www.w3.org/1999/xlink"><linearGradient id="a" gradientUnits="userSpaceOnUse" x1="248" x2="248" y1="496" y2="0"><stop offset="0" stop-color="#9f2fff"/><stop offset="1" stop-color="#0bb1d3"/></linearGradient><path d="m184 496c22.054688 0 40-17.945312 40-40v-188.878906c0-14.738282-8.054688-28.234375-21.039062-35.226563l-4.722657-2.535156c-4.359375-2.34375-8.503906-5-12.679687-7.597656l49.570312-45.761719h25.742188l49.570312 45.753906c-4.175781 2.597656-8.320312 5.246094-12.671875 7.589844l-4.730469 2.542969c-12.984374 6.992187-21.039062 20.488281-21.039062 35.234375v188.878906c0 22.054688 17.945312 40 40 40 101.457031 0 184-82.535156 184-184v-136c0-44.113281-35.886719-80-80-80h-5.609375l-1.910156 5.265625c-9.671875 26.605469-23.984375 50.941406-41.929688 72.183594l-78.550781-72.9375v-100.511719h-80v100.511719l-78.550781 72.9375c-17.953125-21.234375-32.257813-45.570313-41.9375-72.183594l-1.902344-5.265625h-5.609375c-44.113281 0-80 35.886719-80 80v136c0 101.464844 82.542969 184 184 184zm237.449219-383.769531c32.742187 2.769531 58.550781 30.3125 58.550781 63.769531v136c0 92.632812-75.359375 168-168 168-13.230469 0-24-10.769531-24-24v-178.960938l48 54v66.296876l-22.398438 29.863281 12.796876 9.59375 25.601562-34.136719v-66.65625h55.351562l-23.351562 29.191406v50.808594h16v-32l21.335938 16h18.664062v-16h-13.335938l-23.265624-17.449219 24.449218-30.550781h.273438l42.390625-59.351562-13.023438-9.296876-37.609375 52.648438h-72.285156l-56.769531-63.871094c2.183593-4.207031 5.464843-7.816406 9.792969-10.144531l4.726562-2.542969c35.191406-18.953125 64.902344-45.816406 87.433594-78.015625l27.09375 32.519531-35.871094 21.527344v68.527344h16v-59.472656l24-14.398438v41.871094h16v-58.894531l-37.976562-45.578125c7.535156-12.449219 14.074218-25.566406 19.425781-39.296875zm-97.359375 100.34375-47.960938-44.269531 32.34375-26.953126 47.246094 43.871094c-9.6875 10.015625-20.253906 19.152344-31.628906 27.351563zm-52.089844-116.574219h-48v-16h48zm0-32h-48v-16h48zm0-48v16h-48v-16zm-52.855469 96h57.71875l19.792969 18.375-35.550781 29.625h-26.210938l-35.542969-29.625zm-31.617187 29.351562 32.34375 26.953126-47.960938 44.269531c-11.367187-8.207031-21.941406-17.34375-31.621094-27.34375zm-171.527344 34.648438c0-33.457031 25.808594-61 58.550781-63.769531 5.351563 13.730469 11.890625 26.859375 19.425781 39.304687l-37.976562 45.570313v58.894531h16v-41.871094l24 14.398438v59.472656h16v-68.527344l-35.871094-21.519531 27.09375-32.519531c22.53125 32.191406 52.242188 59.0625 87.433594 78.015625l4.71875 2.535156c4.335938 2.335937 7.617188 5.945313 9.800781 10.152344l-56.769531 63.863281h-72.285156l-37.609375-52.648438-13.023438 9.296876 42.390625 59.351562h.273438l24.441406 30.550781-23.257812 17.449219h-13.335938v16h18.664062l21.335938-16v32h16v-50.808594l-23.351562-29.191406h55.351562v66.664062l25.601562 34.136719 12.796876-9.59375-22.398438-29.871093v-66.296876l48-54v178.960938c0 13.230469-10.769531 24-24 24-92.640625 0-168-75.367188-168-168zm0 0" fill="url(#a)"/></svg>