<svg height="496pt" viewBox="0 0 496 496" width="496pt" xmlns="http://www.w3.org/2000/svg" xmlns:xlink="http://www.w3.org/1999/xlink"><linearGradient id="a" gradientUnits="userSpaceOnUse" x1="248" x2="248" y1="496" y2="0"><stop offset="0" stop-color="#9f2fff"/><stop offset="1" stop-color="#0bb1d3"/></linearGradient><path d="m411.136719 53.585938c3.175781-14.867188 4.863281-30.121094 4.863281-45.585938v-8h-48v8c0 26.375-6.191406 51.9375-17.71875 75.046875-27.976562-17.429687-63.839844-27.046875-102.28125-27.046875s-74.304688 9.617188-102.28125 27.046875c-11.527344-23.117187-17.71875-48.671875-17.71875-75.046875v-8h-48v8c0 15.464844 1.6875 30.71875 4.863281 45.585938-53.199219 38.183593-84.863281 99.390624-84.863281 164.949218v22.710938c0 48.921875 17.734375 95.890625 49.816406 132.898437-1.144531 5.726563-1.816406 11.6875-1.816406 17.855469 0 39.703125 25.128906 72 56 72s56-32.296875 56-72-25.128906-72-56-72c-10.160156 0-19.664062 3.550781-27.886719 9.65625-18.113281-26.03125-28.113281-57.070312-28.113281-88.410156v-22.710938c0-44.582031 19.753906-87.519531 53.257812-116.839844 2.503907 5.242188 5.238282 10.375 8.167969 15.410157-8.882812 13.460937-13.425781 27.863281-13.425781 42.894531 0 44.640625 40.097656 83.191406 100.617188 97.886719-2.96875 6.898437-4.617188 14.378906-4.617188 22.113281v86.113281l-8.425781 16.839844c-4.957031 9.910156-7.574219 21.023437-7.574219 32.109375 0 12.472656 3.273438 24.785156 9.464844 35.617188l20.679687 36.183593c3.214844 5.632813 9.246094 9.136719 15.726563 9.136719 4.632812 0 8.824218-1.800781 12.03125-4.671875 3.96875 2.902344 8.816406 4.671875 14.097656 4.671875s10.128906-1.769531 14.097656-4.671875c3.207032 2.871094 7.398438 4.671875 12.03125 4.671875 6.488282 0 12.511719-3.503906 15.734375-9.136719l20.679688-36.183593c6.183593-10.839844 9.457031-23.152344 9.457031-35.617188 0-11.085938-2.617188-22.191406-7.574219-32.109375l-8.425781-16.839844v-85.480469c.039062-3.976562-.335938-8.015624-1.144531-12.066406-.742188-3.71875-2-7.253906-3.472657-10.6875 60.511719-14.695312 100.617188-53.253906 100.617188-97.878906 0-14.816406-4.648438-29.535156-13.414062-42.894531 2.925781-5.035157 5.652343-10.160157 8.15625-15.402344 33.503906 29.320313 53.257812 72.226563 53.257812 116.832031v22.710938c0 31.339844-10 62.378906-28.113281 88.410156-8.222657-6.105469-17.726563-9.65625-27.886719-9.65625-30.871094 0-56 32.296875-56 72s25.128906 72 56 72 56-32.296875 56-72c0-6.167969-.671875-12.128906-1.816406-17.855469 32.082031-37.007812 49.816406-83.976562 49.816406-132.898437v-22.710938c0-65.558594-31.664062-126.765625-84.863281-164.949218zm-27.304688-37.585938h16.015625c-1.742187 44.160156-18.015625 86.167969-46.128906 120.089844-3.816406-3.664063-8.269531-6.808594-13.214844-9.335938 26.328125-31.304687 41.574219-69.945312 43.328125-110.753906zm-31.832031 152c0 17.648438-17.945312 32-40 32s-40-14.351562-40-32 17.945312-32 40-32 40 14.351562 40 32zm-239.832031-152c1.753906 40.808594 17 79.449219 43.335937 110.753906-4.953125 2.519532-9.398437 5.671875-13.222656 9.335938-28.113281-33.921875-44.386719-75.929688-46.121094-120.089844zm71.832031 120c22.054688 0 40 14.351562 40 32s-17.945312 32-40 32-40-14.351562-40-32 17.945312-32 40-32zm-80 200c22.054688 0 40 25.128906 40 56s-17.945312 56-40 56-40-25.128906-40-56 17.945312-56 40-56zm-72-117.464844v22.710938c0 35.480468 11.59375 70.59375 32.542969 99.722656-3.488281 4.457031-6.480469 9.527344-8.96875 15.03125-25.542969-32.808594-39.574219-73.007812-39.574219-114.753906v-22.710938c0-58.304687 27.136719-112.925781 73.121094-148.277344 1.632812 5.453126 3.429687 10.855469 5.480468 16.15625-39.28125 32.355469-62.601562 81.257813-62.601562 132.121094zm192 259.335938c0 1.929687-3.015625 2.730468-3.96875 1.058594l-20.679688-36.1875c-4.816406-8.421876-7.351562-17.988282-7.351562-27.679688 0-8.613281 2.039062-17.246094 5.886719-24.949219l10.113281-20.226562v-50.75c.648438.664062 1.3125 1.3125 2 1.941406 9.03125 8.328125 14 18.816406 14 29.53125zm24 2.128906c-4.414062 0-8-3.585938-8-8v-121.382812c0-15.234376-6.808594-29.90625-19.152344-41.289063-8.289062-7.65625-12.847656-18.082031-12.847656-29.328125 0-12.105469 5.390625-23.425781 14.800781-31.0625 9.40625-7.648438 21.785157-10.554688 33.925781-8.027344 15.167969 3.167969 27.410157 15.539063 30.449219 30.785156 2.886719 14.535157-1.953125 28.921876-12.960937 38.472657-11.574219 10.023437-18.214844 25.351562-18.214844 42.054687v119.777344c0 4.414062-3.585938 8-8 8zm56-64.9375c0 9.691406-2.535156 19.257812-7.351562 27.679688l-20.679688 36.1875c-.953125 1.671874-3.96875.878906-3.96875-1.058594v-125.648438c0-12.054687 4.625-22.984375 12.695312-29.976562 1.152344-.988282 2.25-2.03125 3.304688-3.101563v50.742188l10.113281 20.21875c3.847657 7.710937 5.886719 16.34375 5.886719 24.957031zm80-255.0625c0 37.632812-38.367188 71.6875-93.585938 83.542969-7.820312-9.09375-18.414062-15.78125-30.414062-18.285157-16.894531-3.546874-34.136719.566407-47.289062 11.253907-2.621094 2.128906-4.949219 4.519531-7.117188 7.023437-55.234375-11.847656-93.59375-45.886718-93.59375-83.535156 0-9.558594 2.382812-18.871094 7.039062-27.800781 4.136719 5.921875 8.601563 11.648437 13.351563 17.167969-2.824219 5.738281-4.390625 12.03125-4.390625 18.632812 0 26.472656 25.128906 48 56 48s56-21.527344 56-48-25.128906-48-56-48c-4.175781 0-8.230469.425781-12.152344 1.167969-6.847656-7.566407-12.992187-15.617188-18.304687-24.128907 25.335937-15.917968 59.21875-25.039062 94.457031-25.039062s69.113281 9.121094 94.449219 25.039062c-5.3125 8.511719-11.457031 16.5625-18.304688 24.128907-3.914062-.742188-7.96875-1.167969-12.144531-1.167969-30.871094 0-56 21.527344-56 48s25.128906 48 56 48 56-21.527344 56-48c0-6.601562-1.566406-12.894531-4.390625-18.632812 4.734375-5.511719 9.191406-11.222657 13.320313-17.128907 4.644531 8.914063 7.070312 18.210938 7.070312 27.761719zm8 288c-22.054688 0-40-25.128906-40-56s17.945312-56 40-56 40 25.128906 40 56-17.945312 56-40 56zm88-206.753906c0 41.746094-14.03125 81.945312-39.574219 114.753906-2.488281-5.503906-5.480469-10.574219-8.96875-15.03125 20.949219-29.128906 32.542969-64.242188 32.542969-99.722656v-22.710938c0-50.902344-23.3125-99.765625-62.601562-132.121094 2.050781-5.300781 3.859374-10.703124 5.480468-16.15625 45.984375 35.351563 73.121094 89.980469 73.121094 148.277344zm0 0" fill="url(#a)"/></svg>