<svg height="495pt" viewBox="0 -23 495.99417 495" width="495pt" xmlns="http://www.w3.org/2000/svg" xmlns:xlink="http://www.w3.org/1999/xlink"><linearGradient id="a" gradientUnits="userSpaceOnUse" x1="247.998165" x2="247.998165" y1="448.493085" y2=".497085"><stop offset="0" stop-color="#9f2fff"/><stop offset="1" stop-color="#0bb1d3"/></linearGradient><path d="m180.570312 448.464844c1.085938.023437 2.175782.03125 3.273438.03125 57.246094 0 113.390625-27.304688 148.125-72h76.027344c13.679687 0 24-17.191406 24-40s-10.320313-40-24-40h-122.65625c1.695312-7.742188 2.65625-15.757813 2.65625-24v-18.230469l58.492187-19.496094c38.050781-12.6875 71.859375-35.578125 97.769531-66.191406 33.359376-39.433594 51.738282-89.59375 51.738282-141.25v-26.832031h-19.632813l-3.351562 3.832031c-34.257813 39.144531-81.433594 65.058594-132.839844 72.96875-14.707031 2.265625-29.257813 5.929687-43.257813 10.894531l-90.761718 32.210938c1.195312-4.824219 1.84375-10.191406 1.84375-15.90625 0-22.808594-10.320313-40-24-40-46.722656 0-91.761719 20.546875-126.816406 57.839844-38.984376 41.488281-60.226563 99.007812-56.824219 153.882812 5.886719 94.855469 85.046875 170.511719 180.214843 172.246094zm235.425782-111.96875c0 15.488281-6.011719 24-8 24-1.992188 0-8-8.511719-8-24 0-15.488282 6.007812-24 8-24 1.988281 0 8 8.511718 8 24zm-74.570313-116.910156-69.429687 23.144531v29.765625c0 50.609375-39.394532 92.097656-89.113282 95.648437l-3.207031-22.4375c-1.960937-13.738281 3.230469-27.234375 13.886719-36.105469l10.390625-8.664062c9.296875-7.746094 15.65625-18.152344 18.433594-29.648438l20.808593 15.609376 9.597657-12.800782-28.796875-21.601562v-22.503906c16.878906-6.574219 71.023437-28.503907 124.757812-58.976563l15.726563 6.289063-16.0625 8.03125 7.160156 14.3125 20.417969-10.207032v14.808594c-10.992188 6.128906-22.53125 11.320312-34.570313 15.335938zm-177.589843 128.390624 2.863281 20.054688c-46.320313-4.46875-83.023438-42-86.359375-88.636719l29.230468-4.175781c14.726563-2.105469 27.75-9.816406 36.671876-21.714844 6.433593-8.566406 16.207031-14.238281 26.832031-15.566406l34.921875-4.375v24.597656c0 11.816406-5.210938 22.929688-14.28125 30.496094l-10.394532 8.664062c-14.949218 12.449219-22.230468 31.386719-19.484374 50.65625zm316.160156-327.511718v6.871094c0 47.875-17.027344 94.359374-47.953125 130.90625-11.730469 13.855468-25.226563 25.96875-40.046875 36.144531v-23.3125l-25.738282-10.296875c16.039063-9.726563 31.625-20.183594 45.777344-31.144532l4.199219 16.792969 15.519531-3.878906-6.03125-24.113281c15.503906-13.410156 28.496094-27.449219 37.128906-41.824219l-13.722656-8.230469c-12.460937 20.765625-35.375 41.117188-62.152344 59.789063l-26.351562-26.351563 13.28125-15.933594c40.398438-11.992187 77.175781-34.433593 106.089844-65.417968zm-177.730469 82.808594c13.046875-4.632813 26.625-8.046876 40.335937-10.167969 1.800782-.28125 3.550782-.738281 5.34375-1.054688l-26.101562 31.316407 12.285156 10.242187 16.210938-19.457031 23.117187 23.121094c-49.398437 32.03125-107.558593 58.046874-138.4375 70.9375l-19.023437-19.027344v-28.6875h-16v35.3125l18.949218 18.953125c-2.3125.910156-3.992187 1.558593-4.902343 1.910156l-42.953125 5.371094c-14.902344 1.863281-28.625 9.820312-37.648438 21.839843-6.359375 8.476563-15.648437 13.980469-26.144531 15.476563l-26.941406 3.851563c1.984375-27.234376 12.628906-52.625 29.605469-72.890626l13.601562 27.199219 45.992188-9.199219-3.144532-15.6875-34.007812 6.800782-10.6875-21.375c12.359375-11.304688 27-20.320313 43.414062-26.144532l22.648438-8.039062c.960937-.234375 1.878906-.585938 2.792968-.992188l37.085938-13.160156 12.320312 24.636719v30.136719h16v-24h32v-16h-35.054687l-10.070313-20.144532zm-110.269531 1.222656c0 13.152344-4.3125 21.210937-6.84375 23.359375l-1.453125.511719c-2.199219-.644532-7.703125-9-7.703125-23.871094 0-15.488282 6.007812-24 8-24 1.988281 0 8 8.511718 8 24zm-123.160156 28.800781c26.886718-28.609375 60.078124-46.246094 95.054687-51.207031-2.472656 6.320312-3.894531 13.96875-3.894531 22.40625 0 12.015625 2.910156 22.378906 7.621094 29.585937l-7.824219 2.773438c-57.304688 20.328125-95.796875 74.839843-95.796875 135.640625 0 61.761718 50.238281 112 112 112 47.652344 0 88.335937-29.96875 104.484375-72h108.144531c-2.894531 6.609375-4.628906 14.808594-4.628906 24s1.734375 17.394531 4.628906 24h-64.664062l-2.398438 3.242187c-32.128906 43.390625-85.769531 69.816407-140.703125 68.726563-86.890625-1.574219-159.160156-70.648438-164.527344-157.238282-3.144531-50.554687 16.492188-103.601562 52.503907-141.929687zm0 0" fill="url(#a)"/></svg>