<svg height="496pt" viewBox="0 0 496 496" width="496pt" xmlns="http://www.w3.org/2000/svg" xmlns:xlink="http://www.w3.org/1999/xlink"><linearGradient id="a" gradientUnits="userSpaceOnUse" x1="248" x2="248" y1="496" y2="0"><stop offset="0" stop-color="#9f2fff"/><stop offset="1" stop-color="#0bb1d3"/></linearGradient><path d="m464 219.257812c0 35.390626-20.664062 67.847657-52.632812 82.703126l-6.742188-14.511719c26.757812-12.425781 43.375-38.5625 43.375-68.191407 0-41.496093-33.761719-75.257812-75.257812-75.257812-6.476563 0-12.941407.617188-19.214844 1.832031l-3.054688-15.703125c7.28125-1.410156 14.773438-2.128906 22.269532-2.128906 50.320312 0 91.257812 40.9375 91.257812 91.257812zm32 0c0 54.207032-34.761719 101.496094-86.496094 117.644532-27.878906 8.722656-51.359375 28.707031-64.425781 54.832031l-21.621094 43.242187c-8.953125 17.894532-26.945312 29.023438-46.960937 29.023438-1.511719 0-3-.191406-4.496094-.320312v8.320312c0 13.230469-10.769531 24-24 24s-24-10.769531-24-24v-8.320312c-1.496094.128906-2.992188.320312-4.496094.320312-20.007812 0-38-11.128906-46.960937-29.023438l-21.621094-43.242187c-13.066406-26.125-36.546875-46.109375-64.425781-54.832031-51.734375-16.148438-86.496094-63.429688-86.496094-117.644532 0-67.960937 55.296875-123.257812 123.265625-123.257812 18.261719 0 35.941406 3.289062 52.734375 9.671875v-4.335937l16-21.335938c5.167969-6.871094 8-15.398438 8-24v-56h96v56c0 8.601562 2.839844 17.128906 8 23.992188l16 21.34375v4.335937c16.800781-6.382813 34.472656-9.671875 52.734375-9.671875 67.96875 0 123.265625 55.296875 123.265625 123.257812zm-216-163.257812v-8h-64v8c0 2.679688-.273438 5.351562-.65625 8h65.3125c-.382812-2.648438-.65625-5.320312-.65625-8zm-64-40v16h64v-16zm-24 116.6875 27.3125 27.3125h57.375l27.3125-27.3125v-26.023438l-12.800781-17.070312c-2.238281-2.976562-4.039063-6.234375-5.640625-9.59375h-75.125c-1.59375 3.359375-3.402344 6.617188-5.640625 9.601562l-12.792969 17.0625zm136 115.3125c0-11.703125 2.769531-23.425781 8-33.886719l6.113281-12.21875c1.238281-2.46875 1.886719-5.238281 1.886719-8 0-9.871093-8.023438-17.894531-17.886719-17.894531h-4.386719c-4.335937 0-8.519531 1.566406-11.773437 4.425781l-.152344.132813c1.367188 3.5625 2.199219 7.402344 2.199219 11.441406 0 9.609375-4.335938 18.128906-11.054688 24 6.71875 5.871094 11.054688 14.390625 11.054688 24s-4.335938 18.128906-11.054688 24c6.71875 5.871094 11.054688 14.390625 11.054688 24 0 8.433594-3.335938 16.046875-8.679688 21.769531l6.632813 5.796875c3.253906 2.867188 7.4375 4.433594 11.773437 4.433594h4.386719c9.863281 0 17.886719-8.023438 17.886719-17.886719 0-2.761719-.65625-5.527343-1.886719-8l-6.113281-12.226562c-5.230469-10.460938-8-22.183594-8-33.886719zm-160 0c0 11.703125-2.769531 23.425781-8 33.886719l-6.113281 12.21875c-1.238281 2.46875-1.886719 5.238281-1.886719 8 0 9.871093 8.023438 17.894531 17.886719 17.894531h4.386719c4.335937 0 8.519531-1.566406 11.773437-4.425781l6.632813-5.804688c-5.34375-5.722656-8.679688-13.335937-8.679688-21.769531 0-9.609375 4.335938-18.128906 11.054688-24-6.71875-5.871094-11.054688-14.390625-11.054688-24s4.335938-18.128906 11.054688-24c-6.71875-5.871094-11.054688-14.390625-11.054688-24 0-4.039062.832031-7.871094 2.207031-11.441406l-.152343-.125c-3.261719-2.867188-7.445313-4.433594-11.78125-4.433594h-4.386719c-9.863281 0-17.886719 8.023438-17.886719 17.886719 0 2.761719.65625 5.527343 1.886719 8l6.113281 12.226562c5.230469 10.460938 8 22.183594 8 33.886719zm48-72c-8.824219 0-16 7.175781-16 16s7.175781 16 16 16h64c8.824219 0 16-7.175781 16-16s-7.175781-16-16-16zm64 48h-64c-8.824219 0-16 7.175781-16 16s7.175781 16 16 16h64c8.824219 0 16-7.175781 16-16s-7.175781-16-16-16zm-64 80h64c8.824219 0 16-7.175781 16-16s-7.175781-16-16-16h-64c-8.824219 0-16 7.175781-16 16s7.175781 16 16 16zm8 143.679688v-75.589844c-14.734375-11.394532-23.496094-28.792969-23.921875-47.53125l-3.484375 3.058594c-6.179688 5.40625-14.105469 8.382812-22.320312 8.382812h-4.386719c-18.6875 0-33.886719-15.199219-33.886719-33.886719 0-5.234375 1.238281-10.480469 3.574219-15.160156l6.113281-12.21875c4.128906-8.253906 6.3125-17.503906 6.3125-26.734375s-2.183594-18.480469-6.3125-26.734375l-6.113281-12.21875c-2.335938-4.679687-3.574219-9.917969-3.574219-15.160156 0-18.6875 15.199219-33.886719 33.886719-33.886719h4.386719c7.765624 0 15.230468 2.742188 21.246093 7.617188 1.617188-1.359376 3.351563-2.546876 5.214844-3.570313l-24.734375-24.734375v-16.222656c-16.664062-7.25-34.34375-11.089844-52.734375-11.089844-59.144531 0-107.265625 48.121094-107.265625 107.257812 0 47.167969 30.246094 88.316407 75.273438 102.382813 32.007812 10.007813 58.964843 32.945313 73.964843 62.933594l21.625 43.242187c6.214844 12.449219 18.722657 20.183594 32.640625 20.183594 1.503906 0 3.007813-.136719 4.496094-.320312zm35.558594-86.335938c12.800781-8.527344 20.441406-22.808594 20.441406-38.183594v-3.160156h-64v3.160156c0 15.382813 7.640625 29.65625 20.441406 38.183594l3.558594 2.375v108.28125c0 4.414062 3.59375 8 8 8s8-3.585938 8-8v-108.28125zm220.441406-142.085938c0-59.136718-48.121094-107.257812-107.265625-107.257812-18.390625 0-36.078125 3.839844-52.734375 11.089844v16.222656l-24.734375 24.734375c1.863281 1.023437 3.589844 2.210937 5.207031 3.5625 6.015625-4.867187 13.480469-7.609375 21.253906-7.609375h4.386719c18.6875 0 33.886719 15.199219 33.886719 33.886719 0 5.234375-1.238281 10.480469-3.574219 15.160156l-6.113281 12.21875c-4.128906 8.253906-6.3125 17.503906-6.3125 26.734375s2.183594 18.480469 6.3125 26.734375l6.113281 12.21875c2.335938 4.679687 3.574219 9.917969 3.574219 15.160156 0 18.6875-15.199219 33.886719-33.886719 33.886719h-4.386719c-8.214843 0-16.140624-2.976562-22.320312-8.390625l-3.484375-3.050781c-.425781 18.738281-9.1875 36.144531-23.921875 47.539062v75.589844c1.488281.183594 2.992188.320312 4.496094.320312 13.910156 0 26.425781-7.734374 32.648437-20.175781l21.625-43.238281c15-29.992188 41.949219-52.929688 73.964844-62.9375 45.019531-14.082031 75.265625-55.222656 75.265625-102.398438zm-356.742188-75.257812c6.476563 0 12.941407.617188 19.214844 1.832031l3.054688-15.703125c-7.28125-1.410156-14.773438-2.128906-22.269532-2.128906-50.320312 0-91.257812 40.9375-91.257812 91.257812 0 35.390626 20.664062 67.847657 52.632812 82.703126l6.742188-14.511719c-26.757812-12.425781-43.375-38.5625-43.375-68.191407 0-41.496093 33.761719-75.257812 75.257812-75.257812zm0 0" fill="url(#a)"/></svg>