<svg height="496pt" viewBox="0 0 496 496" width="496pt" xmlns="http://www.w3.org/2000/svg" xmlns:xlink="http://www.w3.org/1999/xlink"><linearGradient id="a" gradientUnits="userSpaceOnUse" x1="248" x2="248" y1="496" y2="0"><stop offset="0" stop-color="#9f2fff"/><stop offset="1" stop-color="#0bb1d3"/></linearGradient><path d="m248 0c-136.753906 0-248 111.246094-248 248s111.246094 248 248 248 248-111.246094 248-248-111.246094-248-248-248zm0 480c-127.921875 0-232-104.078125-232-232s104.078125-232 232-232 232 104.078125 232 232-104.078125 232-232 232zm96.441406-109.6875c-9.714844-5.824219-21.464844-6.144531-31.417968-.832031-1.648438.878906-3.183594 1.757812-4.902344 2.734375-5.488282 3.128906-6.625 3.785156-12.152344 3.785156s-6.664062-.65625-12.167969-3.800781c-8.511719-4.855469-21.375-12.199219-43.863281-12.199219-22.496094 0-35.363281 7.351562-43.875 12.214844-5.476562 3.136718-6.613281 3.785156-12.117188 3.785156-5.488281 0-6.617187-.648438-12.089843-3.777344-1.503907-.863281-3.113281-1.78125-4.847657-2.71875-.800781-.425781-1.648437-.664062-2.464843-1.015625 2-6.609375 3.457031-14.542969 3.457031-24.433593 0-22.496094-7.351562-35.351563-12.214844-43.863282-3.136718-5.480468-3.785156-6.625-3.785156-12.128906 0-5.519531.65625-6.664062 3.800781-12.167969 4.855469-8.511719 12.199219-21.382812 12.199219-43.863281 0-22.472656-7.335938-35.34375-12.496094-44.382812-.574218-1.015626-1.105468-1.929688-1.550781-2.792969-5.472656-10.390625-16.273437-16.855469-28.175781-16.855469-11.34375 0-21.609375 5.824219-27.464844 15.558594-5.832031 9.714844-6.136719 21.464844-.832031 31.417968.878906 1.648438 1.757812 3.183594 2.734375 4.902344 3.128906 5.488282 3.785156 6.625 3.785156 12.152344s-.65625 6.664062-3.800781 12.167969c-4.855469 8.511719-12.199219 21.375-12.199219 43.863281 0 22.496094 7.351562 35.363281 12.214844 43.875 3.136718 5.476562 3.785156 6.613281 3.785156 12.117188 0 5.488281-.648438 6.617187-3.777344 12.089843-.863281 1.503907-1.78125 3.113281-2.710937 4.839844-5.320313 9.960937-5.023438 21.710937.808593 31.429687 5.121094 8.539063 13.625 14.074219 23.273438 15.320313 2.511719 7.785156 7.894531 14.355469 15.277344 18.257813.984375.511718 2.03125 1.121093 3.199218 1.785156 8.503907 4.863281 21.355469 12.222656 43.875 12.222656 22.496094 0 35.351563-7.351562 43.863282-12.214844 5.480468-3.136718 6.625-3.785156 12.128906-3.785156 5.519531 0 6.664062.65625 12.167969 3.800781 8.511719 4.855469 21.382812 12.199219 43.863281 12.199219 22.472656 0 35.34375-7.335938 44.382812-12.496094 1.015626-.574218 1.929688-1.105468 2.792969-1.550781 10.390625-5.472656 16.855469-16.273437 16.855469-28.175781 0-11.34375-5.824219-21.609375-15.558594-27.464844zm-232.402344 13.871094c-2.902343-4.847656-3.0625-10.703125-.414062-15.65625.847656-1.589844 1.6875-3.054688 2.488281-4.449219 3.542969-6.199219 5.886719-10.285156 5.886719-20.023437 0-9.742188-2.34375-13.839844-5.886719-20.054688-4.511719-7.878906-10.113281-17.6875-10.113281-35.9375 0-18.238281 5.601562-28.054688 10.105469-35.941406 3.550781-6.21875 5.894531-10.3125 5.894531-20.089844 0-9.773438-2.34375-13.871094-6.046875-20.34375-.746094-1.3125-1.539063-2.710938-2.34375-4.222656-2.648437-4.953125-2.488281-10.816406.421875-15.664063 2.9375-4.890625 8.074219-7.800781 13.746094-7.800781 5.949218 0 11.320312 3.183594 14.03125 8.328125.527344 1.007813 1.136718 2.0625 2.101562 3.777344 4.496094 7.878906 10.089844 17.695312 10.089844 35.925781 0 18.242188-5.601562 28.058594-10.105469 35.945312-3.550781 6.207032-5.894531 10.3125-5.894531 20.085938 0 9.753906 2.34375 13.847656 5.886719 20.066406 4.511719 7.878906 10.113281 17.6875 10.113281 35.925782 0 18.265624-5.609375 28.050781-10.121094 35.929687-.78125 1.359375-1.464844 2.558594-2.054687 3.679687-2.703125 5.144532-8.089844 8.335938-14.03125 8.335938-5.671875 0-10.816407-2.921875-13.753907-7.816406zm223.632813 27.625c-1.007813.527344-2.0625 1.136718-3.777344 2.101562-7.878906 4.496094-17.695312 10.089844-35.925781 10.089844-18.242188 0-28.058594-5.601562-35.945312-10.105469-6.207032-3.550781-10.3125-5.894531-20.085938-5.894531-9.753906 0-13.847656 2.34375-20.066406 5.886719-7.878906 4.511719-17.6875 10.113281-35.925782 10.113281-18.265624 0-28.050781-5.609375-35.929687-10.121094-1.359375-.78125-2.558594-1.464844-3.679687-2.046875-2.710938-1.441406-4.800782-3.664062-6.246094-6.289062 6.726562-2.773438 12.398437-7.78125 15.902344-14.421875.511718-.984375 1.121093-2.03125 1.785156-3.199219.824218-1.433594 1.71875-3.042969 2.628906-4.746094.355469.160157.722656.257813 1.074219.449219 1.589843.847656 3.054687 1.6875 4.449219 2.488281 6.191406 3.542969 10.277343 5.886719 20.015624 5.886719 9.742188 0 13.839844-2.34375 20.054688-5.886719 7.878906-4.511719 17.6875-10.113281 35.9375-10.113281 18.238281 0 28.054688 5.601562 35.941406 10.105469 6.21875 3.550781 10.3125 5.894531 20.089844 5.894531 9.773438 0 13.871094-2.34375 20.34375-6.046875 1.3125-.746094 2.710938-1.539063 4.222656-2.34375 4.953125-2.65625 10.824219-2.488281 15.664063.421875 4.890625 2.9375 7.800781 8.074219 7.800781 13.746094 0 5.949218-3.183594 11.320312-8.328125 14.03125zm-31.671875-210.046875v14.238281c0 22.054688 17.945312 40 40 40s40-17.945312 40-40v-14.238281c4.871094-4.394531 8-10.699219 8-17.761719 0-6.167969-2.40625-11.742188-6.238281-16 3.839843-4.257812 6.238281-9.832031 6.238281-16 0-7.0625-3.128906-13.359375-8-17.761719v-14.238281c0-22.054688-17.945312-40-40-40s-40 17.945312-40 40v14.238281c-4.871094 4.394531-8 10.699219-8 17.761719 0 6.167969 2.40625 11.742188 6.238281 16-3.839843 4.257812-6.238281 9.832031-6.238281 16 0 7.0625 3.128906 13.359375 8 17.761719zm8-49.761719c0-4.414062 3.585938-8 8-8h48c4.414062 0 8 3.585938 8 8s-3.585938 8-8 8h-48c-4.414062 0-8-3.585938-8-8zm56 24c4.414062 0 8 3.585938 8 8s-3.585938 8-8 8h-48c-4.414062 0-8-3.585938-8-8s3.585938-8 8-8zm0 40c0 13.230469-10.769531 24-24 24s-24-10.769531-24-24v-8h48zm-48-96c0-13.230469 10.769531-24 24-24s24 10.769531 24 24v8h-48zm20.785156 166.398438c-.9375.707031-1.601562 1.226562-2.128906 1.59375h-.007812c-.519532-.367188-1.175782-.878907-2.121094-1.578126-2.839844-2.140624-7.152344-5.382812-13.503906-8.167968-9.449219-4.140625-20.304688-3.238282-29.015626 2.457031-8.769531 5.722656-14.007812 15.386719-14.007812 25.824219v3.121094c0 10.710937 6.070312 20.664062 16.257812 26.617187.542969.320313 1.101563.765625 1.847657 1.328125 6.710937 5.03125 19.199219 14.40625 40.535156 14.40625 21.3125 0 33.808594-9.359375 40.535156-14.398438.9375-.707031 1.601563-1.226562 2.128907-1.59375h.015624c.527344.367188 1.191407.886719 2.136719 1.585938 2.839844 2.140625 7.144531 5.375 13.511719 8.167969 9.464844 4.148437 20.3125 3.238281 29.015625-2.464844 8.785156-5.722656 14.015625-15.375 14.015625-25.816406v-3.066407c0-10.75-6.089844-20.726562-16.296875-26.695312-.535156-.3125-1.078125-.75-1.855469-1.335938-6.710937-5.023437-19.207031-14.382812-40.527344-14.382812-21.3125 0-33.808593 9.359375-40.535156 14.398438zm74.855469 15.136718c5.3125 3.105469 8.359375 7.800782 8.359375 12.878906v3.066407c0 5.09375-2.464844 9.632812-6.761719 12.441406-4.222656 2.757813-9.253906 3.183594-13.839843 1.191406-4.671876-2.050781-7.804688-4.410156-10.335938-6.3125-4.527344-3.394531-6.40625-4.800781-11.742188-4.800781-5.335937 0-7.207031 1.40625-11.753906 4.816406-5.941406 4.449219-14.933594 11.183594-30.917968 11.183594-16 0-24.984376-6.742188-30.9375-11.199219-1.367188-1.03125-2.421876-1.792969-3.390626-2.351562-5.289062-3.097657-8.320312-7.761719-8.320312-12.800781v-3.121094c0-5.101563 2.472656-9.632813 6.769531-12.449219 2.46875-1.613281 5.222657-2.4375 8-2.4375 1.964844 0 3.941407.414063 5.832031 1.246094 4.644532 2.042969 7.789063 4.402343 10.320313 6.304687 4.855469 3.640625 6.636719 4.800782 11.726563 4.800782 5.335937 0 7.207031-1.40625 11.75-4.816407 5.945312-4.441406 14.9375-11.175781 30.921874-11.175781 15.992188 0 24.984376 6.734375 30.917969 11.175781 1.371094 1.039063 2.425781 1.792969 3.402344 2.359375zm-271.382813-189.269531c.542969.320313 1.101563.765625 1.847657 1.328125 6.710937 5.03125 19.199219 14.40625 40.535156 14.40625 21.3125 0 33.808594-9.359375 40.535156-14.398438.9375-.707031 1.601563-1.226562 2.128907-1.59375h.015624c.527344.367188 1.191407.886719 2.136719 1.585938 2.839844 2.140625 7.144531 5.375 13.511719 8.167969 9.464844 4.140625 20.320312 3.238281 29.015625-2.464844 8.785156-5.722656 14.015625-15.375 14.015625-25.816406v-3.066407c0-10.75-6.089844-20.726562-16.296875-26.695312-.535156-.3125-1.078125-.75-1.855469-1.335938-6.710937-5.023437-19.207031-14.382812-40.527344-14.382812-21.3125 0-33.808593 9.359375-40.535156 14.398438-.9375.707031-1.601562 1.226562-2.128906 1.59375h-.007812c-.519532-.367188-1.175782-.878907-2.121094-1.578126-2.839844-2.140624-7.152344-5.382812-13.503906-8.167968-9.449219-4.140625-20.304688-3.238282-29.015626 2.457031-8.769531 5.722656-14.007812 15.386719-14.007812 25.824219v3.121094c0 10.710937 6.070312 20.664062 16.257812 26.617187zm-.257812-29.738281c0-5.101563 2.472656-9.632813 6.769531-12.449219 2.46875-1.613281 5.222657-2.4375 8-2.4375 1.964844 0 3.941407.414063 5.832031 1.246094 4.644532 2.042969 7.789063 4.402343 10.320313 6.304687 4.855469 3.640625 6.636719 4.800782 11.726563 4.800782 5.335937 0 7.207031-1.40625 11.75-4.816407 5.945312-4.441406 14.9375-11.175781 30.921874-11.175781 15.992188 0 24.984376 6.734375 30.917969 11.175781 1.371094 1.039063 2.425781 1.792969 3.402344 2.359375 5.3125 3.105469 8.359375 7.800782 8.359375 12.878906v3.066407c0 5.09375-2.464844 9.632812-6.761719 12.441406-4.222656 2.765625-9.253906 3.191406-13.839843 1.191406-4.671876-2.050781-7.804688-4.410156-10.335938-6.3125-4.527344-3.394531-6.40625-4.800781-11.742188-4.800781-5.335937 0-7.207031 1.40625-11.753906 4.816406-5.941406 4.449219-14.933594 11.183594-30.917968 11.183594-16 0-24.984376-6.742188-30.9375-11.199219-1.367188-1.03125-2.421876-1.792969-3.390626-2.351562-5.289062-3.097657-8.320312-7.761719-8.320312-12.800781zm62.40625 164.9375c-2.140625 2.839844-5.375 7.144531-8.167969 13.511718-4.148437 9.472657-3.222656 20.3125 2.464844 29.015626 5.722656 8.777343 15.375 14.007812 25.816406 14.007812h3.066407c10.75 0 20.726562-6.089844 26.695312-16.296875.3125-.535156.75-1.078125 1.335938-1.855469 5.023437-6.710937 14.382812-19.207031 14.382812-40.527344 0-21.3125-9.359375-33.808593-14.398438-40.535156-.707031-.9375-1.226562-1.601562-1.59375-2.128906v-.007812c.367188-.519532.878907-1.175782 1.578126-2.121094 2.140624-2.839844 5.382812-7.152344 8.167968-13.503906 4.148438-9.464844 3.230469-20.3125-2.457031-29.015626-5.722656-8.769531-15.386719-14.007812-25.824219-14.007812h-3.121094c-10.710937 0-20.664062 6.070312-26.617187 16.257812-.320313.542969-.765625 1.101563-1.328125 1.847657-5.03125 6.71875-14.40625 19.207031-14.40625 40.542969 0 21.3125 9.359375 33.808593 14.398438 40.535156.707031.9375 1.226562 1.601562 1.59375 2.128906v.015625c-.367188.527344-.886719 1.191406-1.585938 2.136719zm12.792969-75.753906c1.03125-1.367188 1.792969-2.421876 2.351562-3.390626 3.097657-5.289062 7.761719-8.320312 12.800781-8.320312h3.121094c5.101563 0 9.632813 2.472656 12.449219 6.769531 2.757813 4.222657 3.191406 9.269531 1.183594 13.832031-2.042969 4.644532-4.402344 7.789063-6.304688 10.320313-3.640625 4.855469-4.800781 6.636719-4.800781 11.726563 0 5.335937 1.40625 7.207031 4.816406 11.75 4.449219 5.945312 11.183594 14.9375 11.183594 30.921874 0 15.992188-6.734375 24.984376-11.175781 30.917969-1.039063 1.371094-1.792969 2.425781-2.359375 3.402344-3.105469 5.3125-7.800782 8.359375-12.878906 8.359375h-3.066407c-5.09375 0-9.632812-2.464844-12.441406-6.761719-2.765625-4.222656-3.191406-9.269531-1.191406-13.839843 2.050781-4.671876 4.410156-7.804688 6.3125-10.335938 3.394531-4.527344 4.800781-6.40625 4.800781-11.742188 0-5.335937-1.40625-7.207031-4.816406-11.753906-4.449219-5.941406-11.183594-14.933594-11.183594-30.917968 0-16 6.742188-24.984376 11.199219-30.9375zm0 0" fill="url(#a)"/></svg>