<svg height="496pt" viewBox="0 0 496 496" width="496pt" xmlns="http://www.w3.org/2000/svg" xmlns:xlink="http://www.w3.org/1999/xlink"><linearGradient id="a" gradientUnits="userSpaceOnUse" x1="248" x2="248" y1="496" y2="0"><stop offset="0" stop-color="#9f2fff"/><stop offset="1" stop-color="#0bb1d3"/></linearGradient><path d="m486.65625 12.441406 8.289062-12.441406h-26.257812l-2.34375 2.34375c-68.574219 68.578125-106.34375 159.753906-106.34375 256.734375v12.921875h-97.054688c11.0625-63.886719 35.269532-124.902344 71.710938-179.558594l8.289062-12.441406h-26.257812l-2.34375 2.34375c-52.488281 52.488281-86.839844 118.222656-100.113281 189.65625h-107.710938c7.761719-75.488281 33.65625-147.839844 76.136719-211.558594l8.289062-12.441406h-26.257812l-2.34375 2.34375c-60.238281 60.242188-96.679688 137.921875-104.65625 221.65625h-57.6875v224h496v-224h-88c.046875-92.679688 27.230469-182.441406 78.65625-259.558594zm-110.65625 365.34375v-118.707031c0-76.476563 24.558594-149.167969 69.960938-209.078125-35.441407 68.496094-53.960938 144.359375-53.960938 222.214844v105.5625l2.640625 2.382812c3.457031 3.121094 5.359375 7.328125 5.359375 11.839844 0 8.824219-7.175781 16-16 16s-16-7.175781-16-16c0-4.511719 1.902344-8.71875 5.359375-11.832031zm-16-89.785156v24.390625c-7.960938-4.75-17.871094-8.390625-32.070312-8.390625-22.808594 0-34.59375 9.433594-44.992188 17.753906-7.839844 6.277344-14.890625 11.78125-26.632812 13.582032.566406-15.902344 1.992187-31.6875 4.144531-47.328126h99.550781zm-136 51.078125c0-76.476563 24.558594-149.167969 69.960938-209.078125-35.441407 68.496094-53.960938 144.359375-53.960938 222.214844v32.394531l4.792969 2.09375c11.671875 5.113281 19.207031 16.609375 19.207031 29.296875 0 17.648438-14.351562 32-32 32s-32-14.351562-32-32c0-12.6875 7.535156-24.183594 19.207031-29.296875l4.792969-2.09375zm-12.398438-51.078125c-1.402343 10.03125-2.402343 20.160156-2.96875 30.367188-9.480468-7.296876-20.953124-14.367188-40.695312-14.367188-22.800781 0-34.585938 9.433594-44.984375 17.753906-6.050781 4.839844-11.503906 9.175782-18.953125 11.765625v-13.296875c0-10.78125.40625-21.527344 1.136719-32.214844h106.464843zm-139.601562 81.785156v-62.707031c0-76.476563 24.558594-149.167969 69.960938-209.078125-35.441407 68.496094-53.960938 144.359375-53.960938 222.214844v49.5625l2.640625 2.382812c3.457031 3.121094 5.359375 7.328125 5.359375 11.839844 0 8.824219-7.175781 16-16 16s-16-7.175781-16-16c0-4.511719 1.902344-8.71875 5.359375-11.832031zm-15.488281-81.785156c-.328125 6.335938-.511719 12.6875-.511719 19.078125v17c-1-.78125-2-1.511719-3.015625-2.316406-9.105469-7.289063-19.28125-15.433594-36.984375-17.347657v-16.414062zm-40.511719 192v-47.390625c11.960938 1.734375 19.0625 7.292969 26.976562 13.628906 10.398438 8.328125 22.183594 17.761719 44.984376 17.761719 22.800781 0 34.582031-9.433594 44.984374-17.753906 9.550782-7.644532 17.808594-14.246094 34.992188-14.246094v-16c-22.808594 0-34.59375 9.433594-44.992188 17.761719-9.554687 7.636719-17.792968 14.238281-34.984374 14.238281-17.191407 0-25.441407-6.601562-34.984376-14.246094-9.105468-7.289062-19.28125-15.425781-36.976562-17.339844v-95.804687c11.96875 1.734375 19.070312 7.292969 26.984375 13.636719 4.015625 3.210937 8.152344 6.496094 13.015625 9.386718v19.328126c-5.128906 5.832031-8 13.3125-8 21.039062 0 17.648438 14.351562 32 32 32s32-14.351562 32-32c0-7.726562-2.871094-15.207031-8-21.039062v-12.816407c12.9375-3.152343 21.390625-9.855469 28.953125-15.90625 9.542969-7.636719 17.800781-14.238281 34.984375-14.238281s25.445312 6.601562 35 14.238281c1.664062 1.328125 3.382812 2.601563 5.085938 3.898438 0 .3125-.023438.625-.023438.933593v35.394532c-14.734375 8.511718-24 24.289062-24 41.527344 0 26.472656 21.527344 48 48 48s48-21.527344 48-48c0-17.238282-9.265625-33.015626-24-41.527344v-22.25c0-.214844.007812-.421875.007812-.640625 17.671876-1.917969 27.832032-10.046875 36.929688-17.328125 9.558594-7.644532 17.804688-14.246094 34.992188-14.246094 15.460937 0 23.664062 5.3125 32.070312 11.910156v39.050782c-5.128906 5.832031-8 13.3125-8 21.039062 0 17.648438 14.351562 32 32 32s32-14.351562 32-32c0-7.726562-2.871094-15.207031-8-21.039062v-18.960938c22.792969-.007812 34.574219-9.433594 44.984375-17.753906 7.925781-6.34375 15.03125-11.902344 27.015625-13.636719v95.804687c-17.710938 1.90625-27.894531 10.042969-37.007812 17.328126-9.558594 7.65625-17.824219 14.257812-35.03125 14.257812-17.199219 0-25.464844-6.601562-35.015626-14.246094-10.410156-8.320312-22.203124-17.753906-45.015624-17.753906-13.074219 0-23.953126 3.105469-34.242188 9.761719l8.6875 13.4375c5.496094-3.566407 12.832031-7.199219 25.554688-7.199219 17.199218 0 25.460937 6.601562 35.015624 14.246094 10.40625 8.320312 22.207032 17.753906 45.015626 17.753906 22.824218 0 34.605468-9.433594 45.023437-17.753906 7.925781-6.34375 15.03125-11.902344 27.015625-13.636719v47.390625zm464-175.585938c-17.710938 1.90625-27.894531 10.042969-37.007812 17.328126-9.550782 7.648437-17.808594 14.242187-34.992188 14.257812v-48h72zm0 0" fill="url(#a)"/></svg>