<svg height="496pt" viewBox="-112 0 496 496" width="496pt" xmlns="http://www.w3.org/2000/svg" xmlns:xlink="http://www.w3.org/1999/xlink"><linearGradient id="a" gradientUnits="userSpaceOnUse" x1="136" x2="136" y1="496" y2="0"><stop offset="0" stop-color="#9f2fff"/><stop offset="1" stop-color="#0bb1d3"/></linearGradient><path d="m160 80h17.472656c3.3125 9.289062 12.113282 16 22.527344 16h72v-48h-23.015625c-11.03125 0-20.609375-7.480469-23.28125-18.175781l-3.457031-13.824219h-22.246094c-10.414062 0-19.214844 6.710938-22.527344 16h-17.472656v-32h-48v32h-17.472656c-3.3125-9.289062-12.113282-16-22.527344-16h-22.246094l-3.449218 13.824219c-2.679688 10.695312-12.257813 18.175781-23.289063 18.175781h-23.015625v48h72c10.414062 0 19.214844-6.710938 22.527344-16h17.472656v48h-17.472656c-3.3125-9.289062-12.113282-16-22.527344-16h-22.246094l-3.449218 13.824219c-2.679688 10.695312-12.257813 18.175781-23.289063 18.175781h-23.015625v48h72c10.414062 0 19.214844-6.710938 22.527344-16h17.472656v48h-17.472656c-3.3125-9.289062-12.113282-16-22.527344-16h-22.246094l-3.449218 13.824219c-2.679688 10.695312-12.257813 18.175781-23.289063 18.175781h-23.015625v48h72c10.414062 0 19.214844-6.710938 22.527344-16h17.472656v48h-17.472656c-3.3125-9.289062-12.113282-16-22.527344-16h-22.246094l-3.449218 13.824219c-2.679688 10.695312-12.257813 18.175781-23.289063 18.175781h-23.015625v48h72c10.414062 0 19.214844-6.710938 22.527344-16h17.472656v48h-17.472656c-3.3125-9.289062-12.113282-16-22.527344-16h-22.246094l-3.449218 13.824219c-2.679688 10.695312-12.257813 18.175781-23.289063 18.175781h-23.015625v48h72c10.414062 0 19.214844-6.710938 22.527344-16h17.472656v32h48v-32h17.472656c3.3125 9.289062 12.113282 16 22.527344 16h72v-48h-23.015625c-11.03125 0-20.609375-7.480469-23.28125-18.175781l-3.457031-13.824219h-22.246094c-10.414062 0-19.214844 6.710938-22.527344 16h-17.472656v-48h17.472656c3.3125 9.289062 12.113282 16 22.527344 16h72v-48h-23.015625c-11.03125 0-20.609375-7.480469-23.28125-18.175781l-3.457031-13.824219h-22.246094c-10.414062 0-19.214844 6.710938-22.527344 16h-17.472656v-48h17.472656c3.3125 9.289062 12.113282 16 22.527344 16h72v-48h-23.015625c-11.03125 0-20.609375-7.480469-23.28125-18.175781l-3.457031-13.824219h-22.246094c-10.414062 0-19.214844 6.710938-22.527344 16h-17.472656v-48h17.472656c3.3125 9.289062 12.113282 16 22.527344 16h72v-48h-23.015625c-11.03125 0-20.609375-7.480469-23.28125-18.175781l-3.457031-13.824219h-22.246094c-10.414062 0-19.214844 6.710938-22.527344 16h-17.472656zm-64-16v-16h80v16zm96-24c0-4.40625 3.585938-8 8-8h9.753906l.429688 1.703125c4.457031 17.839844 20.410156 30.296875 38.800781 30.296875h7.015625v16h-56c-4.414062 0-8-3.59375-8-8zm-64-24h16v16h-16zm-48 56c0 4.40625-3.585938 8-8 8h-56v-16h7.015625c18.390625 0 34.34375-12.457031 38.816406-30.304688l.414063-1.695312h9.753906c4.414062 0 8 3.59375 8 8zm48 8h16v48h-16zm48 64v16h-80v-16zm-96 24c0 4.40625-3.585938 8-8 8h-56v-16h7.015625c18.390625 0 34.34375-12.457031 38.816406-30.304688l.414063-1.695312h9.753906c4.414062 0 8 3.59375 8 8zm96 72v16h-80v-16zm-96 24c0 4.40625-3.585938 8-8 8h-56v-16h7.015625c18.390625 0 34.34375-12.457031 38.816406-30.304688l.414063-1.695312h9.753906c4.414062 0 8 3.59375 8 8zm96 72v16h-80v-16zm-96 24c0 4.40625-3.585938 8-8 8h-56v-16h7.015625c18.390625 0 34.34375-12.457031 38.816406-30.304688l.414063-1.695312h9.753906c4.414062 0 8 3.59375 8 8zm96 72v16h-80v-16zm-96 24c0 4.40625-3.585938 8-8 8h-56v-16h7.015625c18.390625 0 34.34375-12.457031 38.816406-30.304688l.414063-1.695312h9.753906c4.414062 0 8 3.59375 8 8zm64 24h-16v-16h16zm48-56c0-4.40625 3.585938-8 8-8h9.753906l.429688 1.703125c4.457031 17.839844 20.410156 30.296875 38.800781 30.296875h7.015625v16h-56c-4.414062 0-8-3.59375-8-8zm-48-8h-16v-48h16zm48-88c0-4.40625 3.585938-8 8-8h9.753906l.429688 1.703125c4.457031 17.839844 20.410156 30.296875 38.800781 30.296875h7.015625v16h-56c-4.414062 0-8-3.59375-8-8zm-48-8h-16v-48h16zm48-88c0-4.40625 3.585938-8 8-8h9.753906l.429688 1.703125c4.457031 17.839844 20.410156 30.296875 38.800781 30.296875h7.015625v16h-56c-4.414062 0-8-3.59375-8-8zm-48-8h-16v-48h16zm48-88c0-4.40625 3.585938-8 8-8h9.753906l.429688 1.703125c4.457031 17.839844 20.410156 30.296875 38.800781 30.296875h7.015625v16h-56c-4.414062 0-8-3.59375-8-8zm0 0" fill="url(#a)"/></svg>