<svg height="496pt" viewBox="0 0 496 496" width="496pt" xmlns="http://www.w3.org/2000/svg" xmlns:xlink="http://www.w3.org/1999/xlink"><linearGradient id="a" gradientUnits="userSpaceOnUse" x1="248" x2="248" y1="496" y2="0"><stop offset="0" stop-color="#9f2fff"/><stop offset="1" stop-color="#0bb1d3"/></linearGradient><path d="m464 304h-16v-16h16zm-144 144c-17.648438 0-32-14.351562-32-32 0-2.433594.121094-4.855469.335938-7.273438l-15.9375-1.453124c-.261719 2.894531-.398438 5.816406-.398438 8.726562 0 26.472656 21.527344 48 48 48 79.398438 0 144-64.601562 144-144h-16c0 70.574219-57.425781 128-128 128zm176-272v144c0 97.046875-78.953125 176-176 176-26.183594 0-49.398438-12.703125-64-32.207031-35.6875-2.144531-64-31.6875-64-67.792969 0-.289062.0625-.566406.070312-.847656-23.613281-9.601563-39.734374-32.640625-40.015624-58.488282-19.734376-13.929687-33.613282-32.191406-44.789063-48.601562-21.679687 22.242188-51.546875 39.9375-99.265625 39.9375h-8v-48h8c35.175781 0 54.695312-12.800781 70.878906-31.9375-16.328125-19.382812-35.503906-32.0625-70.878906-32.0625h-8v-48h8c51.519531 0 81.023438 20.945312 99.335938 39.863281 11.777343-17.199219 25.535156-34.984375 44.71875-48.527343.273437-25.839844 16.394531-48.886719 40.015624-58.488282 0-.289062-.070312-.566406-.070312-.847656 0-36.144531 28.375-65.710938 64-67.800781 14.609375-19.496094 37.816406-32.199219 64-32.199219 97.046875 0 176 78.953125 176 176zm-176-160c-15.289062 0-29.328125 5.398438-40.351562 14.382812 36.847656 63.128907 56.351562 134.914063 56.351562 208.113282v105.503906c0 8.824219 7.175781 16 16 16s16-7.175781 16-16v-22.382812c0-18.335938 6.304688-36.304688 17.753906-50.617188 9.183594-11.480469 14.246094-25.902344 14.246094-40.617188v-16.277343c0-12.882813-3.777344-25.34375-10.921875-36.066407l-7.46875-11.214843c-8.90625-13.34375-13.609375-28.878907-13.609375-44.929688 0-28.535156 3.976562-56.925781 11.816406-84.367187l2.535156-8.871094c-19.175781-8.144531-40.246093-12.65625-62.351562-12.65625zm-16 208v48.023438c0 20.359374-5.007812 40.578124-14.289062 58.632812 18.5625-13.214844 30.289062-34.824219 30.289062-58.65625v-33.503906c0-68.777344-17.894531-136.273438-51.785156-195.953125-7.648438 10.546875-12.214844 23.464843-12.214844 37.457031 0 24.070312 7.953125 47.9375 22.398438 67.199219 16.503906 22.015625 25.601562 49.289062 25.601562 76.800781zm-76.039062 101.390625c-3-3.359375-7.34375-5.390625-11.960938-5.390625-8.824219 0-16 7.175781-16 16 0 6.351562 3.695312 11.847656 9.175781 14.425781zm12.039062-48.535156v-57.695313c-7.585938 3.070313-15.65625 4.839844-24 4.839844-17.496094 0-33.359375-7.070312-44.929688-18.488281-11.71875 10.761719-21.167968 24.894531-31.078124 39.769531-.601563.894531-1.214844 1.816406-1.824219 2.71875l1.800781 2.6875c9.917969 14.871094 19.367188 29.03125 31.101562 39.800781 11.570313-11.417969 27.433594-18.488281 44.929688-18.488281 8.367188 0 16.433594 1.777344 24 4.855469zm-40-116.855469c0 8.824219 7.175781 16 16 16 4.617188 0 8.960938-2.03125 11.960938-5.390625l-18.769532-25.015625c-5.429687 2.597656-9.191406 8.160156-9.191406 14.40625zm-32 0c0 26.472656 21.527344 48 48 48 8.457031 0 16.558594-2.304688 23.800781-6.464844-.28125-5.757812-1.535156-11.40625-3.664062-16.75-5.617188 4.550782-12.695313 7.214844-20.136719 7.214844-17.648438 0-32-14.351562-32-32 0-11.878906 6.375-22.320312 16.160156-27.847656-2.535156-4.738282-4.34375-9.785156-5.710937-14.976563-15.898438 8.046875-26.449219 24.566407-26.449219 42.824219zm-79.128906 75.03125c3.089844-4.335938 6.160156-8.878906 9.296875-13.566406-15.929688-17.265625-39.679688-35.265625-82.167969-37.28125v16.023437c36.566406 1.992188 57.703125 17.632813 72.871094 34.824219zm37.777344 1.417969c10.757812-16.144531 20.992187-31.457031 34.535156-43.585938-2.863282-4.75-5.128906-9.886719-6.6875-15.335937-17.128906 14.128906-29.335938 32.304687-41.152344 50.023437-22.398438 33.59375-43.589844 65.394531-97.351562 68.242188v16.023437c62.335937-2.886718 86.878906-39.710937 110.65625-75.367187zm27.855468 82.007812c1.550782-5.441406 3.824219-10.578125 6.679688-15.320312-12.816406-11.472657-22.65625-25.792969-32.769532-40.9375-3.214843 4.519531-6.597656 9.03125-10.214843 13.488281 9.496093 14.113281 20.9375 30.054688 36.304687 42.769531zm39.945313 60.359375c1.367187-5.191406 3.183593-10.257812 5.71875-14.992187-9.777344-5.527344-16.167969-15.976563-16.167969-27.824219 0-17.648438 14.351562-32 32-32 7.441406 0 14.519531 2.664062 20.144531 7.214844 2.128907-5.351563 3.382813-11 3.65625-16.765625-7.234375-4.160157-15.328125-6.449219-23.800781-6.449219-26.472656 0-48 21.527344-48 48 0 18.257812 10.550781 34.777344 26.449219 42.816406zm51.4375 67.183594c-3.765625-9.273438-5.886719-19.382812-5.886719-30 0-27.527344 9.097656-54.800781 25.601562-76.800781 14.445313-19.246094 22.398438-43.109375 22.398438-67.175781v-48.023438c0-24.070312-7.953125-47.9375-22.398438-67.199219-16.503906-22.015625-25.601562-49.289062-25.601562-76.800781 0-10.617188 2.121094-20.726562 5.886719-30-21.824219 6.167969-37.886719 26.222656-37.886719 50 0 11.175781 3.695312 22.257812 10.398438 31.199219l24 32c8.777343 11.695312 13.601562 26.183593 13.601562 40.800781v88.007812c0 14.625-4.832031 29.121094-13.609375 40.808594l-23.984375 31.96875c-6.710938 8.941406-10.40625 20.023438-10.40625 31.207032 0 23.785156 16.0625 43.839843 37.886719 50.007812zm234.113281-270c0-60.34375-33.601562-112.953125-83.046875-140.207031l-1.753906 6.128906c-7.4375 26.015625-11.199219 52.925781-11.199219 79.972656 0 12.882813 3.777344 25.34375 10.921875 36.066407l7.46875 11.214843c8.90625 13.34375 13.609375 28.878907 13.609375 44.929688v16.277343c0 18.335938-6.304688 36.304688-17.753906 50.617188-9.183594 11.480469-14.246094 25.902344-14.246094 40.617188v22.382812c0 17.648438-14.351562 32-32 32s-32-14.351562-32-32v-21.511719c-11.097656 15.832031-27.328125 27.925781-46.710938 33.734375-11.199218 17.800782-17.289062 38.699219-17.289062 59.753906 0 35.3125 28.710938 64.023438 64 64.023438 88.222656 0 160-71.777344 160-160zm0 0" fill="url(#a)"/></svg>