<svg height="496pt" viewBox="-32 0 496 496" width="496pt" xmlns="http://www.w3.org/2000/svg" xmlns:xlink="http://www.w3.org/1999/xlink"><linearGradient id="a" gradientUnits="userSpaceOnUse" x1="216" x2="216" y1="496" y2="0"><stop offset="0" stop-color="#9f2fff"/><stop offset="1" stop-color="#0bb1d3"/></linearGradient><path d="m361.839844 340.222656 14.105468 7.546875c-3.152343 5.878907-6.59375 11.527344-10.25 16.789063l-13.136718-9.117188c3.296875-4.753906 6.425781-9.882812 9.28125-15.21875zm-116.535156-235.207031c11.167968-5.984375 22.839843-9.015625 34.695312-9.015625 56.375 0 104 69.609375 104 152 0 26.824219-5.160156 53.425781-14.921875 76.929688l14.777344 6.140624c10.558593-25.4375 16.144531-54.167968 16.144531-83.070312 0-91.0625-54.953125-168-120-168-14.519531 0-28.734375 3.671875-42.257812 10.902344-15.6875 8.410156-26.046876 25-27.71875 44.410156l15.9375 1.375c1.222656-14.199219 8.269531-25.75 19.34375-31.671875zm-63.34375 221.015625c1.382812-4.703125 2.039062-9.3125 2.039062-14.03125 0-12.359375-4.511719-23.839844-12.375-31.519531l-4.394531-4.289063 3-5.351562c3.777343-6.726563 5.769531-14.632813 5.769531-22.839844s-1.992188-16.113281-5.769531-22.832031l-3-5.351563 4.394531-4.289062c5.007812-4.886719 8.464844-11.398438 10.453125-18.617188-63.964844-41.933594-102.078125-112.132812-102.078125-188.910156v-8h48v8c0 46.734375 18.128906 90.976562 50.214844 123.9375 2.707031-29.394531 18.570312-55.394531 44.417968-69.242188 18.214844-9.75 37.519532-14.695312 57.367188-14.695312 83.816406 0 152 89.71875 152 200s-68.183594 200-152 200c-19.847656 0-39.152344-4.945312-57.359375-14.695312-1.953125-1.046876-3.839844-2.167969-5.679687-3.335938-14.207032-9.136719-32.074219-13.96875-51.648438-13.96875h-11.71875c-43.472656 0-81.21875 30.9375-89.746094 73.566406l-1.289062 6.433594h-62.558594v-8c0-74.992188 61.007812-136 136-136h11.304688c15.925781 0 30.183593-10.679688 34.65625-25.96875zm1.671874-147.328125c-.304687-2.863281-.777343-5.695313-1.578124-8.40625-1.574219-5.34375-2.695313-10.695313-3.398438-16.015625-40.367188-35-64.320312-84.832031-66.488281-138.28125h-16.015625c2.421875 65.304688 34.519531 124.832031 87.480468 162.703125zm-36.328124 189.296875h-11.304688c-63.480469 0-115.601562 49.542969-119.734375 112h33.382813c12.375-46.734375 55.078124-80 103.9375-80h11.71875c22.664062 0 43.503906 5.710938 60.296874 16.503906 1.46875.945313 3 1.839844 4.574219 2.6875 15.878907 8.503906 32.640625 12.808594 49.824219 12.808594 74.992188 0 136-82.535156 136-184s-61.007812-184-136-184c-17.183594 0-33.945312 4.304688-49.808594 12.808594-30.007812 16.070312-43.496094 52.65625-32.792968 88.960937 1.730468 5.847657 2.601562 11.984375 2.601562 18.230469 0 14.496094-4.753906 28.238281-13.199219 38.59375 3.414063 7.832031 5.199219 16.511719 5.199219 25.40625s-1.785156 17.574219-5.199219 25.40625c8.445313 10.355469 13.199219 24.097656 13.199219 38.59375 0 6.246094-.871094 12.382812-2.601562 18.230469-6.542969 22.363281-27.109376 37.769531-50.09375 37.769531zm0 0" fill="url(#a)"/></svg>