<svg height="496pt" viewBox="0 -1 496 496" width="496pt" xmlns="http://www.w3.org/2000/svg" xmlns:xlink="http://www.w3.org/1999/xlink"><linearGradient id="a" gradientUnits="userSpaceOnUse" x1="248" x2="248" y1="494.692" y2=".0008"><stop offset="0" stop-color="#9f2fff"/><stop offset="1" stop-color="#0bb1d3"/></linearGradient><path d="m106.28125 429.976562-4.5625 15.335938c-40.398438-12.007812-69.71875-61.34375-69.71875-117.3125 0-31.257812 9.542969-62.144531 26.183594-84.742188l12.886718 9.484376c-14.65625 19.914062-23.070312 47.347656-23.070312 75.257812 0 48.257812 25.054688 92.097656 58.28125 101.976562zm318.640625-177.234374c14.664063 19.914062 23.078125 47.347656 23.078125 75.257812 0 48.257812-25.054688 92.097656-58.28125 101.976562l4.5625 15.335938c40.398438-12.007812 69.71875-61.34375 69.71875-117.3125 0-31.257812-9.542969-62.144531-26.183594-84.742188zm71.078125 75.257812c0 81.054688-50.390625 147.304688-113.558594 151.585938-1.378906 3.695312-3.570312 7.0625-6.671875 9.660156-4.21875 3.554687-9.480469 5.449218-14.898437 5.449218-1.335938 0-2.671875-.109374-4.007813-.34375-50.933593-8.878906-92.214843-52.824218-108.863281-110.199218-16.648438 57.375-57.929688 101.320312-108.863281 110.199218-1.335938.222657-2.671875.34375-4.007813.34375-5.417968 0-10.679687-1.894531-14.898437-5.4375-3.09375-2.609374-5.292969-5.976562-6.671875-9.664062-63.167969-4.289062-113.558594-70.539062-113.558594-151.59375s50.390625-147.304688 113.558594-151.585938c1.378906-3.695312 3.570312-7.0625 6.671875-9.660156 5.257812-4.417968 12.167969-6.25 18.90625-5.097656 25.535156 4.449219 49.34375 17.960938 68.863281 38.480469v-14.441407c0-13.398437-6.65625-25.839843-17.816406-33.28125l-30.183594-20.132812v-67.234375l35.558594 23.714844c3.609375 2.40625 6.945312 1.070312 8.210937.390625 1.277344-.671875 4.230469-2.71875 4.230469-7.046875v-82.105469h80v82.105469c0 4.328125 2.953125 6.367187 4.222656 7.046875 1.257813.671875 4.601563 2.007812 8.210938-.390625l35.566406-23.714844v67.234375l-30.183594 20.125c-11.160156 7.441406-17.816406 19.882812-17.816406 33.28125v14.441406c19.527344-20.519531 43.335938-34.023437 68.863281-38.480468 6.769531-1.160157 13.648438.671874 18.90625 5.09375 3.09375 2.609374 5.292969 5.976562 6.671875 9.664062 63.167969 4.289062 113.558594 70.539062 113.558594 151.59375zm-208-103.007812v30.902343c15.902344-33.085937 42.351562-56.957031 73.550781-62.605469 3.800781-.679687 6.449219-3.578124 6.449219-7.023437v-1.867187c0-2.855469-1.574219-4.605469-2.519531-5.398438-1.632813-1.367188-3.761719-1.960938-5.855469-1.574219-27.386719 4.757813-52.703125 21.671875-71.625 47.566407zm-160-38.726563c0 3.453125 2.648438 6.34375 6.449219 7.03125 31.199219 5.640625 57.65625 29.511719 73.550781 62.605469v-30.902344c-18.921875-25.902344-44.238281-42.808594-71.617188-47.574219-2.09375-.386719-4.230468.207031-5.855468 1.574219-.953125.785156-2.527344 2.535156-2.527344 5.390625zm3.601562 260.695313c43.550782-7.882813 76.398438-59.023438 76.398438-118.960938s-32.839844-111.078125-76.398438-118.960938c-9.167968-1.65625-16.21875-8.246093-18.632812-16.574218-54.066406 4.765625-96.96875 63.648437-96.96875 135.535156s42.902344 130.769531 96.96875 135.535156c2.414062-8.328125 9.464844-14.917968 18.632812-16.574218zm108.398438-118.960938v-312h-16v66.105469c0 8.863281-4.855469 16.972656-12.671875 21.160156-7.816406 4.183594-17.257813 3.726563-24.640625-1.1875l-10.6875-7.125v28.765625l23.0625 15.378906c15.617188 10.40625 24.9375 27.824219 24.9375 46.589844v142.3125c0 67.558594-38.496094 125.472656-89.550781 134.703125-3.800781.6875-6.449219 3.585937-6.449219 7.03125v1.867187c0 2.855469 1.574219 4.605469 2.519531 5.398438 1.625 1.367188 3.769531 1.945312 5.855469 1.574219 59.082031-10.277344 103.625-75.023438 103.625-150.574219zm128 141.734375c0-3.453125-2.648438-6.34375-6.449219-7.03125-51.054687-9.230469-89.550781-67.144531-89.550781-134.703125v-142.3125c0-18.765625 9.320312-36.183594 24.9375-46.589844l23.0625-15.378906v-28.765625l-10.6875 7.125c-7.375 4.90625-16.824219 5.386719-24.640625 1.1875-7.816406-4.1875-12.671875-12.289063-12.671875-21.160156v-66.105469h-16v312c0 75.550781 44.542969 140.296875 103.617188 150.585938 2.101562.367187 4.222656-.210938 5.855468-1.578126.953125-.792968 2.527344-2.542968 2.527344-5.398437zm112-141.734375c0-71.886719-42.902344-130.769531-96.96875-135.535156-2.414062 8.328125-9.464844 14.910156-18.632812 16.574218-43.558594 7.882813-76.398438 59.023438-76.398438 118.960938s32.839844 111.078125 76.398438 118.960938c9.167968 1.65625 16.21875 8.246093 18.632812 16.574218 54.066406-4.765625 96.96875-63.648437 96.96875-135.535156zm0 0" fill="url(#a)"/></svg>