<svg height="496pt" viewBox="0 0 496 496" width="496pt" xmlns="http://www.w3.org/2000/svg" xmlns:xlink="http://www.w3.org/1999/xlink"><linearGradient id="a" gradientUnits="userSpaceOnUse" x1="248" x2="248" y1="496" y2="0"><stop offset="0" stop-color="#9f2fff"/><stop offset="1" stop-color="#0bb1d3"/></linearGradient><path d="m420.191406 103.328125-13.976562-9.671875c-12.285156-8.511719-26.628906-13.082031-41.542969-13.496094l-56.519531-80.160156h-120.304688l-56.527344 80.160156c-14.914062.414063-29.25 4.976563-41.535156 13.496094l-13.992187 9.671875c-47.457031 32.863281-75.792969 86.945313-75.792969 144.671875s28.335938 111.808594 75.800781 144.671875l13.230469 9.160156c13.394531 9.273438 29.082031 14.167969 45.367188 14.167969 26.34375 0 50.839843-13.230469 65.601562-34.753906v114.753906h96v-114.753906c14.761719 21.523437 39.257812 34.753906 65.601562 34.753906 16.285157 0 31.972657-4.894531 45.367188-14.167969l13.230469-9.160156c47.464843-32.863281 75.800781-86.945313 75.800781-144.671875s-28.335938-111.808594-75.808594-144.671875zm-9.09375 13.160156c22.847656 15.816407 40.75 37.078125 52.605469 61.34375-5.144531-1.152343-10.40625-1.832031-15.703125-1.832031-22.472656 0-42.558594 10.359375-55.777344 26.542969-19.4375-9.152344-32.222656-28.71875-32.222656-50.542969 0-20.808594 11.6875-39.761719 29.929688-49.40625 2.460937 1.246094 4.886718 2.621094 7.191406 4.214844zm60.613282 182.136719c-7.382813 3.464844-15.496094 5.375-23.710938 5.375-30.871094 0-56-25.128906-56-56s25.128906-56 56-56c8.207031 0 16.320312 1.910156 23.703125 5.367188 5.394531 16.128906 8.296875 33.183593 8.296875 50.632812s-2.902344 34.503906-8.289062 50.625zm-100.277344-3.191406c-10.648438-15.578125-27-26.433594-45.503906-30.074219 1.246093-5.640625 2.070312-11.414063 2.070312-17.359375 0-.632812-.113281-1.246094-.128906-1.878906 5.257812 1.207031 10.640625 1.878906 16.128906 1.878906 11.503906 0 22.511719-2.726562 32.433594-7.761719-.273438 2.554688-.433594 5.136719-.433594 7.761719 0 13.992188 4.078125 27.023438 11.015625 38.089844-5.632813 2.476562-10.863281 5.613281-15.582031 9.34375zm-91.433594 58.695312v29.871094h-64v-64h64zm-64 77.871094h64v16h-64zm0-16v-16h64v16zm62.808594-112h-61.609375c-20.488281-11.28125-33.199219-32.527344-33.199219-56 0-23.558594 12.71875-44.726562 33.257812-56h61.496094c20.527344 11.273438 33.246094 32.441406 33.246094 56 0 23.464844-12.710938 44.710938-33.191406 56zm-155.992188-8.566406c-4.71875-3.730469-9.953125-6.875-15.585937-9.34375 6.9375-11.066406 11.007812-24.097656 11.007812-38.089844 0-2.625-.160156-5.207031-.429687-7.761719 9.917968 5.027344 20.925781 7.761719 32.429687 7.761719 6.113281 0 12.097657-.847656 17.921875-2.34375-.023437.792969-.160156 1.550781-.160156 2.34375 0 5.863281.808594 11.566406 2.023438 17.136719-19.183594 3.304687-36.238282 14.253906-47.207032 30.296875zm-106.816406-47.433594c0-17.792969 3.023438-35.183594 8.625-51.59375 6.816406-2.847656 14.175781-4.40625 21.613281-4.40625 30.875 0 56 25.128906 56 56s-25.125 56-56 56c-7.445312 0-14.804687-1.558594-21.613281-4.414062-5.601562-16.410157-8.625-33.792969-8.625-51.585938zm154.601562-19.878906c-6.488281 2.527344-13.320312 3.878906-20.363281 3.878906-14.8125 0-28.605469-5.710938-39.125-16.03125 23.71875-12.199219 39.125-36.753906 39.125-63.96875 0-21.671875-9.839843-41.808594-26.015625-55.296875 3.050782-.464844 6.136719-.703125 9.265625-.703125 23.167969 0 44.007813 12.871094 54.375 33.601562l4.136719 8.285157v30.113281c0 6.609375 2.6875 12.59375 7.015625 16.9375-14.09375 10.902344-24.046875 26.007812-28.414063 43.183594zm53.398438-71.175782v19.054688h-8c-4.414062 0-8-3.585938-8-8v-19.054688zm56 19.054688h-8v-19.054688l16-8v19.054688c0 4.414062-3.585938 8-8 8zm16.984375 8.9375c4.328125-4.34375 7.015625-10.328125 7.015625-16.9375v-30.113281l4.144531-8.285157c10.367188-20.730468 31.199219-33.601562 54.375-33.601562 2.585938 0 5.136719.257812 7.671875.574219-16.28125 13.488281-26.191406 33.683593-26.191406 55.425781 0 27.207031 15.414062 51.769531 39.128906 63.96875-10.519531 10.320312-24.3125 16.03125-39.128906 16.03125-6.351562 0-12.535156-1.113281-18.449219-3.175781-4.269531-17.457031-14.285156-32.832031-28.566406-43.886719zm-64.984375-168.9375h32v67.71875l-16 10.664062-16-10.664062zm-35.847656 0h19.847656v76.28125l32 21.335938 32-21.335938v-76.28125h19.847656l46.464844 65.886719c-22.519531 4.816406-41.871094 19.34375-52.488281 40.5625l-3.792969 7.589843-34.03125 17.015626v28.945312h-16v-28.945312l-34.03125-17.015626-3.792969-7.589843c-10.609375-21.21875-29.96875-35.746094-52.488281-40.5625zm-111.257813 100.488281 13.992188-9.671875c2.035156-1.410156 4.183593-2.585937 6.34375-3.71875 17.714843 9.78125 29.007812 28.445313 29.007812 48.902344 0 21.824219-12.789062 41.390625-32.222656 50.542969-13.207031-16.183594-33.296875-26.542969-55.777344-26.542969-4.636719 0-9.238281.585938-13.765625 1.464844 11.855469-24.113282 29.695313-45.242188 52.421875-60.976563zm.007813 263.023438c-22.734375-15.742188-40.574219-36.863281-52.429688-60.976563 4.535156.878906 9.128906 1.464844 13.765625 1.464844 19.632813 0 37.433594-7.910156 50.433594-20.695312 22.28125 7.785156 37.566406 28.734374 37.566406 52.695312 0 17.3125-8.039062 33.441406-21.566406 44.03125-5.085937-1.855469-10-4.214844-14.535156-7.359375zm104.792968-11.609375c-11.3125 19.800781-32.503906 32.097656-55.296874 32.097656-.789063 0-1.558594-.152344-2.351563-.175781 11.585937-13.03125 18.191406-29.96875 18.191406-47.824219 0-16.816406-5.855469-32.527344-15.804687-44.976562 8.796875-14.488282 23.695312-24.214844 40.503906-26.421876 5.476562 12.300782 14.085938 23.039063 25.0625 31.261719v38.007813zm26.304688 112.097656v-16h64v16zm90.304688-112.097656-10.304688-18.03125v-38c10.910156-8.183594 19.472656-18.847656 24.953125-31.0625 16.136719 2.605468 30.335937 12.199218 38.855469 26.214844-9.953125 12.449218-15.808594 28.160156-15.808594 44.976562 0 17.910156 6.640625 34.894531 18.296875 47.945312-.234375.007813-.464844.054688-.695313.054688-22.792968 0-43.984374-12.296875-55.296874-32.097656zm104.792968 11.609375-13.234375 9.160156c-4.878906 3.382813-10.175781 5.9375-15.695312 7.824219-13.886719-10.574219-22.167969-26.9375-22.167969-44.496094 0-23.960938 15.296875-44.910156 37.566406-52.695312 13 12.785156 30.800782 20.695312 50.433594 20.695312 5.296875 0 10.558594-.679688 15.703125-1.824219-11.855469 24.265625-29.757813 45.519531-52.605469 61.335938zm0 0" fill="url(#a)"/></svg>