<svg height="496pt" viewBox="-32 0 496 496" width="496pt" xmlns="http://www.w3.org/2000/svg" xmlns:xlink="http://www.w3.org/1999/xlink"><linearGradient id="a" gradientUnits="userSpaceOnUse" x1="216" x2="216" y1="496" y2="0"><stop offset="0" stop-color="#9f2fff"/><stop offset="1" stop-color="#0bb1d3"/></linearGradient><path d="m32.382812 200.726562c26.417969 64.578126 44.203126 132.417969 52.847657 201.648438l8.570312 68.5625c1.792969 14.285156 14 25.0625 28.390625 25.0625 11.640625 0 22.023438-6.960938 26.457032-17.71875l41.609374-101.042969c4.308594-10.46875 14.414063-17.238281 25.742188-17.238281s21.433594 6.769531 25.734375 17.238281l41.609375 101.042969c4.433594 10.757812 14.824219 17.71875 26.464844 17.71875 14.398437 0 26.605468-10.777344 28.390625-25.0625l8.570312-68.5625c8.65625-69.222656 26.429688-137.070312 52.847657-201.648438l24.824218-60.664062c5.015625-12.269531 7.558594-25.214844 7.558594-38.46875 0-56.019531-45.574219-101.59375-101.59375-101.59375h-1.550781c-17.648438 0-35.078125 4.632812-50.40625 13.382812l-6.632813 3.792969c-33.945312 19.390625-77.6875 19.390625-111.632812 0l-6.640625-3.792969c-15.320313-8.75-32.75-13.382812-50.398438-13.382812h-1.550781c-56.019531 0-101.59375 45.574219-101.59375 101.59375 0 13.253906 2.542969 26.199219 7.566406 38.46875zm-.710937-148.335937 24.328125 30.417969v35.304687l-15.160156 30.3125 14.3125 7.160157 16.847656-33.699219v-30.070313l25.953125 10.375 22.695313 52.960938 14.703124-6.304688-20.296874-47.359375 25.890624-6.472656 17.710938-26.574219-13.3125-8.875-14.289062 21.425782-26.496094 6.625-35.628906-14.257813-26.65625-33.320313c15.398437-14.855468 36.292968-24.039062 59.320312-24.039062h1.550781c14.871094 0 29.550781 3.894531 42.464844 11.28125l6.636719 3.789062c38.769531 22.152344 88.738281 22.152344 127.515625 0l6.628906-3.789062c12.914063-7.386719 27.59375-11.28125 42.464844-11.28125h1.550781c47.195312 0 85.59375 38.398438 85.59375 85.59375 0 11.167969-2.144531 22.070312-6.367188 32.414062l-8.066406 19.703126-33.566406 11.183593v-31.109375l-25.144531-41.90625-13.71875 8.234375 22.863281 38.101563v26.6875l-41.601562-13.863282-43.398438 34.722657 9.992188 12.496093 27.007812-21.617187v34.671875l26.34375 26.34375 11.3125-11.3125-21.65625-21.65625v-33.589844l40 13.335938 33.574219-11.195313-8.765625 21.433594c-17.046875 41.679687-30.550782 84.703125-40.425782 128.566406l-36.167968-18.085937-28.214844-21.152344v-36h-16v44l24.847656 18.632812-36.421875 18.207032 7.160157 14.3125 44.414062-22.207032 36.984375 18.496094c-4.105469 20.175782-7.535156 40.496094-10.097656 60.949219l-8.566407 68.5625c-.792968 6.292969-6.167968 11.046875-12.511718 11.046875-5.136719 0-9.703125-3.0625-11.664063-7.816406l-41.609375-101.039063c-6.792968-16.488281-22.703125-27.144531-40.535156-27.144531s-33.742188 10.65625-40.535156 27.144531l-41.609375 101.046875c-1.953125 4.746094-6.527344 7.808594-11.664063 7.808594-6.34375 0-11.726562-4.753906-12.511718-11.046875l-8.566407-68.5625c-2.816406-22.566406-6.699219-44.976563-11.402343-67.191406l36.136718-12.046875 23.703125 23.703125 36.394531-9.09375-3.882812-15.523438-27.605469 6.90625-17.304687-17.304687 12.617187-37.839844h50.230469v-16h-44.183594l14.023438-35.054688-29.398438-19.601562-8.875 13.3125 18.601563 12.398438-11.582031 28.945312h-.347657l-16.558593 49.671875-35.414063 11.800781c-9.746094-41.863281-22.769531-82.953125-39.066406-122.800781l-24.824219-60.664063c-4.230469-10.34375-6.375-21.246093-6.375-32.414062 0-18.3125 5.832031-35.265625 15.671875-49.203125zm0 0" fill="url(#a)"/></svg>