<svg height="496pt" viewBox="0 0 496 496" width="496pt" xmlns="http://www.w3.org/2000/svg" xmlns:xlink="http://www.w3.org/1999/xlink"><linearGradient id="a" gradientUnits="userSpaceOnUse" x1="248" x2="248" y1="496" y2="0"><stop offset="0" stop-color="#9f2fff"/><stop offset="1" stop-color="#0bb1d3"/></linearGradient><path d="m58.128906 237.28125c7.703125 24.480469 36.0625 42.71875 69.871094 42.71875 18.335938 0 35.046875-5.40625 47.769531-14.214844-1.074219 21.679688-6.089843 42.726563-14.953125 62.6875l-8.425781 18.941406c-5.566406 12.539063-8.390625 25.84375-8.390625 39.5625 0 26.015626 10.136719 50.472657 28.527344 68.863282l40.160156 40.160156h70.625l40.160156-40.160156c18.390625-18.390625 28.527344-42.847656 28.527344-68.863282 0-13.710937-2.824219-27.023437-8.390625-39.5625l-8.425781-18.941406c-8.871094-19.960937-13.878906-41.007812-14.953125-62.6875 12.722656 8.808594 29.433593 14.214844 47.769531 14.214844 33.808594 0 62.167969-18.238281 69.871094-42.71875 35.417968-17.441406 58.128906-53.601562 58.128906-93.28125 0-57.34375-46.65625-104-104-104-12.945312 0-25.464844 2.472656-37.367188 7.070312-26.984374-29.40625-65.488281-47.070312-106.632812-47.070312s-79.648438 17.664062-106.632812 47.070312c-11.902344-4.597656-24.421876-7.070312-37.367188-7.070312-57.34375 0-104 46.65625-104 104 0 39.679688 22.710938 75.839844 58.128906 93.28125zm-10.128906-93.28125c0-30.878906 25.121094-56 56-56 3.511719 0 6.976562.382812 10.382812 1.023438l-3.359374 7.390624 41.761718 73.089844c.4375.769532.816406 1.574219 1.238282 2.34375-8.078126-2.457031-16.839844-3.847656-26.023438-3.847656-22.953125 0-43.375 8.425781-56.566406 21.472656-14.5625-10.457031-23.433594-27.328125-23.433594-45.472656zm80 120c-30.878906 0-56-17.945312-56-40s25.121094-40 56-40 56 17.945312 56 40-25.121094 40-56 40zm55.839844 180.527344c-15.375-15.375-23.839844-35.816406-23.839844-57.550782 0-11.464843 2.359375-22.585937 7.007812-33.054687l8.425782-18.945313c10.992187-24.738281 16.566406-50.992187 16.566406-78.066406 0-2.367187-.097656-4.726562-.183594-7.078125 5.199219-7.734375 8.183594-16.511719 8.183594-25.832031 0-16.023438-8.753906-30.464844-22.671875-40.679688-3.097656-7.457031-6.664063-14.777343-10.65625-21.761718l-37.695313-65.972656 1.886719-4.171876c1.703125-3.75 3.640625-7.351562 5.671875-10.878906 40.832032 21.007813 69.433594 59.945313 77.03125 105.535156l10.433594 62.585938c-.160156 31.304688-11.34375 62.640625-31.550781 88.320312-10.609375 13.464844-16.449219 30.167969-16.449219 47.023438 0 20.894531 9.078125 40.726562 24.921875 54.40625 12.574219 10.867188 20.503906 25.707031 22.527344 41.59375h-4.136719zm107.144531-97.664063c8.390625 10.664063 13.015625 23.855469 13.015625 37.136719 0 16.238281-7.0625 31.664062-19.375 42.296875-16.113281 13.917969-26.097656 33.152344-28.175781 53.703125h-16.890625c-2.078125-20.542969-12.070313-39.785156-28.175782-53.703125-12.320312-10.632813-19.382812-26.058594-19.382812-42.296875 0-13.28125 4.625-26.472656 13.015625-37.136719 22.558594-28.664062 34.984375-63.773437 34.984375-98.863281l-10.648438-64.550781c-6.261718-37.570313-25.398437-71.050781-53.375-95.359375 20.703126-15.5625 45.910157-24.089844 72.023438-24.089844 26.105469 0 51.320312 8.519531 72.023438 24.078125-27.976563 24.3125-47.113282 57.792969-53.375 95.363281l-10.535157 63.238282-.113281 1.320312c0 35.089844 12.425781 70.199219 34.984375 98.863281zm38 7.046875c4.65625 10.472656 7.015625 21.601563 7.015625 33.058594 0 21.742188-8.464844 42.175781-23.839844 57.550781l-35.472656 35.480469h-4.136719c2.023438-15.886719 9.953125-30.734375 22.527344-41.59375 15.84375-13.679688 24.921875-33.511719 24.921875-54.40625 0-16.855469-5.839844-33.558594-16.449219-47.03125-20.207031-25.671875-31.398437-57.015625-31.550781-88.320312l10.433594-62.578126c7.597656-45.589843 36.199218-84.527343 77.03125-105.535156 2.03125 3.527344 3.96875 7.128906 5.671875 10.878906l1.886719 4.160157-37.695313 65.976562c-3.984375 6.976563-7.503906 14.289063-10.585937 21.714844-13.964844 10.222656-22.742188 24.679687-22.742188 40.734375 0 9.304688 2.976562 18.0625 8.160156 25.792969-.089844 2.367187-.160156 4.742187-.160156 7.117187 0 27.066406 5.574219 53.328125 16.566406 78.058594zm55.992187-257.496094-3.359374-7.390624c3.40625-.640626 6.871093-1.023438 10.382812-1.023438 30.878906 0 56 25.121094 56 56 0 18.144531-8.871094 35.015625-23.433594 45.472656-13.191406-13.046875-33.613281-21.472656-56.566406-21.472656-9.183594 0-17.9375 1.390625-26.015625 3.839844.421875-.769532.800781-1.574219 1.230469-2.34375zm-16.976562 167.585938c-30.878906 0-56-17.945312-56-40s25.121094-40 56-40 56 17.945312 56 40-25.121094 40-56 40zm24-208c48.519531 0 88 39.480469 88 88 0 30.183594-15.519531 57.992188-40.425781 74.023438-.757813-5.558594-2.558594-10.886719-5.269531-15.847657 18.472656-13.457031 29.695312-35.023437 29.695312-58.175781 0-39.695312-32.304688-72-72-72-6.015625 0-11.9375.769531-17.695312 2.222656-2.730469-4.894531-5.753907-9.574218-9-14.0625 8.582031-2.734375 17.511718-4.160156 26.695312-4.160156zm-144-40c40.726562 0 78.601562 19.398438 102.609375 51.078125-6.167969 3.257813-12.082031 6.882813-17.707031 10.851563-24.0625-19.273438-53.910156-29.929688-84.902344-29.929688s-60.839844 10.65625-84.894531 29.929688c-5.625-3.96875-11.539063-7.59375-17.707031-10.851563 24-31.679687 61.875-51.078125 102.601562-51.078125zm-144 40c9.175781 0 18.113281 1.425781 26.695312 4.160156-3.238281 4.496094-6.261718 9.167969-9 14.0625-5.757812-1.453125-11.679687-2.222656-17.695312-2.222656-39.695312 0-72 32.304688-72 72 0 23.152344 11.222656 44.71875 29.695312 58.175781-2.710937 4.960938-4.511718 10.28125-5.269531 15.847657-24.90625-16.03125-40.425781-43.839844-40.425781-74.023438 0-48.519531 39.480469-88 88-88zm0 0" fill="url(#a)"/></svg>