<svg height="496pt" viewBox="0 0 496 496" width="496pt" xmlns="http://www.w3.org/2000/svg" xmlns:xlink="http://www.w3.org/1999/xlink"><linearGradient id="a" gradientUnits="userSpaceOnUse" x1="248" x2="248" y1="496" y2="0"><stop offset="0" stop-color="#9f2fff"/><stop offset="1" stop-color="#0bb1d3"/></linearGradient><path d="m450.945312 231.617188 2.824219-12.695313 10.320313 4.125c7.183594 2.882813 15.285156 2 21.6875-2.335937 6.398437-4.335938 10.222656-11.542969 10.222656-19.269532 0-8.867187-4.929688-16.839844-12.863281-20.824218l-13.25-6.625c-3.078125-1.542969-4.832031-4.871094-4.335938-8.289063l3.875-27.144531c.957031-6.679688-1.035156-13.4375-5.457031-18.535156-4.425781-5.09375-10.824219-8.023438-17.578125-8.023438h-1.710937c-11.191407 0-20.816407 7.984375-22.871094 18.984375l-13.503906 72.03125c-4.023438 21.433594-22.769532 36.984375-44.578126 36.984375-10.816406 0-21.292968-3.871094-29.503906-10.910156l-26-22.289063 3.777344-2.519531v-44.28125h-16v-160h-96v160h-16v44.28125l3.777344 2.519531-26 22.289063c-8.21875 7.039062-18.699219 10.910156-29.503906 10.910156-21.808594 0-40.546876-15.550781-44.5625-36.984375l-13.503907-72.03125c-2.070312-11-11.695312-18.984375-22.878906-18.984375h-1.71875c-6.753906 0-13.160156 2.929688-17.585937 8.023438-4.421876 5.097656-6.40625 11.855468-5.457032 18.535156l3.875 27.152344c.488282 3.417968-1.257812 6.746093-4.34375 8.289062l-13.25 6.625c-7.917968 3.976562-12.847656 11.949219-12.847656 20.816406 0 7.726563 3.824219 14.933594 10.222656 19.269532 6.402344 4.335937 14.503906 5.210937 21.699219 2.335937l10.308594-4.125 2.824219 12.695313c6.746093 30.335937 31.464843 52.320312 61.632812 55.871093l-19.960938 35.9375c-7.054687 12.695313-20.453124 20.574219-34.964843 20.574219h-27.761719c-13.230469 0-24 10.769531-24 24s10.769531 24 24 24h23.734375c2.738281 0 5.167969 1.3125 6.679687 3.601562 1.515626 2.285157 1.753907 5.03125.675782 7.550782l-4.882813 11.390625c-3.183593 7.441406-2.429687 15.914062 2.023438 22.664062 4.449219 6.761719 11.9375 10.792969 20.035156 10.792969h4.644531c9.953125 0 18.984375-6.257812 22.480469-15.574219l11.679687-31.144531c2.90625-7.761719 9.273438-13.601562 16.9375-16.042969v94.761719c0 8.824219 7.175782 16 16 16h16c8.824219 0 16-7.175781 16-16v-129.609375c0-27.773437 10.816407-53.894531 30.464844-73.535156l36.839844-36.855469h9.375l36.847656 36.847656c19.648438 19.648438 30.464844 45.769532 30.464844 73.542969v113.609375c0 8.824219 7.175781 16 16 16h16c8.824219 0 16-7.175781 16-16v-78.761719c7.664062 2.441407 14.023438 8.289063 16.9375 16.042969l11.679688 31.144531c3.496093 9.316407 12.527343 15.574219 22.472656 15.574219h4.644531c8.097656 0 15.585937-4.03125 20.035156-10.792969 4.453125-6.75 5.207031-15.222656 2.023438-22.664062l-4.890625-11.398438c-1.078125-2.511719-.832032-5.265625.671875-7.550781 1.503906-2.289062 3.953125-3.59375 6.691406-3.59375h23.734375c13.230469 0 24-10.769531 24-24s-10.769531-24-24-24h-27.761719c-14.511719 0-27.910156-7.878906-34.964843-20.574219l-19.960938-35.9375c30.167969-3.550781 54.886719-25.527343 61.632812-55.871093zm-170.945312-167.617188h-64v-16h64zm0 16v16h-64v-16zm0 32v16h-64v-16zm0-96v16h-64v-16zm-64 128h64v16h-64zm-16 32h96v19.71875l-42.425781 28.28125h-11.160157l-42.414062-28.28125zm-4.847656 89.535156c-22.671875 22.664063-35.152344 52.800782-35.152344 84.855469v129.609375h-16v-112h-8c-17.671875 0-33.710938 11.121094-39.921875 27.664062l-11.671875 31.144532c-1.167969 3.101562-4.183594 5.191406-7.496094 5.191406h-4.644531c-2.738281 0-5.167969-1.3125-6.679687-3.601562-1.515626-2.285157-1.753907-5.03125-.675782-7.550782l4.882813-11.390625c3.183593-7.441406 2.429687-15.914062-2.023438-22.664062-4.449219-6.761719-11.9375-10.792969-20.035156-10.792969h-23.734375c-4.40625 0-8-3.59375-8-8s3.59375-8 8-8h27.761719c20.328125 0 39.078125-11.03125 48.949219-28.800781l32.890624-59.199219h-18.257812c-26.449219 0-48.929688-18.03125-54.664062-43.847656l-6.902344-31.074219-27.792969 11.113281c-2.28125.921875-4.753906.648438-6.785156-.726562s-3.199219-3.570313-3.199219-6.023438c0-2.777344 1.542969-5.273437 4.015625-6.503906l13.242187-6.625c9.261719-4.625 14.496094-14.617188 13.023438-24.855469l-3.875-27.152343c-.300781-2.121094.304688-4.175782 1.707031-5.792969 1.398438-1.617188 3.359375-2.511719 5.496094-2.511719h1.710937c3.496094 0 6.503907 2.496094 7.152344 5.9375l13.503906 72.023438c5.4375 29 30.792969 50.039062 60.296876 50.039062 14.628906 0 28.804687-5.238281 39.917968-14.769531l29.417969-25.214844 25.839844 17.222656zm185.511718 6.464844h-18.265624l32.890624 59.199219c9.863282 17.769531 28.621094 28.800781 48.949219 28.800781h27.761719c4.40625 0 8 3.59375 8 8s-3.59375 8-8 8h-23.734375c-8.097656 0-15.585937 4.03125-20.035156 10.792969-4.453125 6.75-5.207031 15.222656-2.023438 22.664062l4.890625 11.398438c1.078125 2.511719.832032 5.265625-.671875 7.550781-1.503906 2.289062-3.953125 3.59375-6.691406 3.59375h-4.644531c-3.320313 0-6.328125-2.089844-7.496094-5.191406l-11.683594-31.144532c-6.199218-16.542968-22.238281-27.664062-39.910156-27.664062h-8v96h-16v-113.609375c0-32.046875-12.480469-62.183594-35.152344-84.847656l-32.296875-32.296875 25.839844-17.222656 29.417969 25.214843c11.113281 9.523438 25.289062 14.769531 39.917968 14.769531 29.503907 0 54.859376-21.039062 60.289063-50.039062l13.503906-72.023438c.648438-3.449218 3.65625-5.945312 7.152344-5.945312h1.710937c2.144532 0 4.089844.886719 5.496094 2.503906 1.410156 1.617188 2.007813 3.671875 1.707032 5.800782l-3.875 27.144531c-1.472657 10.246093 3.769531 20.238281 13.023437 24.863281l13.242187 6.617188c2.480469 1.238281 4.023438 3.734374 4.023438 6.511718 0 2.453125-1.167969 4.648438-3.191406 6.015625-2.023438 1.375-4.496094 1.648438-6.777344.726563l-27.800781-11.113282-6.902344 31.074219c-5.734375 25.824219-28.214844 43.855469-54.664063 43.855469zm0 0" fill="url(#a)"/></svg>