<svg height="498pt" viewBox="-57 0 498 498.6" width="498pt" xmlns="http://www.w3.org/2000/svg" xmlns:xlink="http://www.w3.org/1999/xlink"><linearGradient id="a" gradientUnits="userSpaceOnUse" x1="192.3" x2="192.3" y1="498.6016" y2="0"><stop offset="0" stop-color="#9f2fff"/><stop offset="1" stop-color="#0bb1d3"/></linearGradient><path d="m.300781 282.246094c0 31.402344 13.582031 61.210937 37.269531 81.808594l154.730469 134.546874 155.238281-134.984374c23.359376-20.320313 36.761719-49.730469 36.761719-80.6875 0-43.882813-26.59375-81.640626-64.488281-98.105469-3.746094-11.664063-8.617188-22.9375-14.679688-33.585938l25.894532-69.054687-87.535156-19.449219-19.191407 46.066406v-108.800781h-17.535156l-46.464844 18.585938v90.214843l-19.191406-46.066406-87.53125 19.449219 22.722656 60.585937c1.648438 4.382813.566407 9.351563-2.746093 12.664063-9.023438 9.023437-14.6875 20.476562-16.535157 32.878906-34.574219 18.28125-56.71875 54.65625-56.71875 93.933594zm252.808594-200.980469 56.46875 12.550781-22.125 58.992188 1.992187 3.3125c4.3125 7.183594 7.976563 14.726562 11.109376 22.488281-7.480469-1.664063-15.214844-2.609375-23.183594-2.609375h-7.117188c-18.859375 0-37.167968 4.953125-53.402344 14.320312 1.214844-17.304687 5.0625-34.199218 11.777344-50.328124zm-44.808594-64.648437v132.671874c-5.214843 16.726563-7.90625 34.0625-7.96875 51.742188l-8.03125 5.351562-8.191406-5.460937c.078125-1.273437.191406-2.539063.191406-3.832031 0-16.609375-2.785156-32.832032-8-48.464844v-119.210938zm-123.433593 150.125c7.738281-7.734376 10.25-19.34375 6.417968-29.589844l-16.257812-43.34375 56.472656-12.550782 26.238281 62.964844c7 16.832032 10.5625 34.625 10.5625 52.867188 0 23.664062-19.25 42.910156-42.914062 42.910156h-10.175781c-23.664063 0-42.910157-19.246094-42.910157-42.910156 0-11.464844 4.464844-22.242188 12.566407-30.347656zm-27.703126 39.992187c3.953126 23.832031 22.199219 42.875 45.648438 47.921875l-5.503906 27.519531-35.976563 14.390625 5.945313 14.859375 33.167968-13.265625 11.855469 23.726563v38.113281h16v-41.886719l-15.617187-31.234375 6.175781-30.878906h6.527344c25.210937 0 46.714843-15.945312 55.105469-38.257812l3.808593 2.539062v50.078125l-24 55.992187v38.976563l-22.402343 29.871094 12.800781 9.59375 25.601562-34.136719v-41.023438l18.695313-43.632812 29.304687 29.3125v52.6875h16v-50.585938l34.976563-13.988281-5.945313-14.859375-35.105469 14.042969-33.925781-33.921875v-48.40625l19.511719-13.007812c14.984375-9.992188 32.429688-15.273438 50.441406-15.273438h7.117188c49.144531 0 89.207031 39.222656 90.777344 88h-34.90625l-24-48h-52.941407v16h43.054688l24 48h43.886719c-3.109376 21.398438-13.664063 41.160156-30.199219 55.535156l-136.742188 118.90625v-28.226562l22.855469-38.101563-13.71875-8.234375-19.691406 32.808594-17.015625-11.34375-8.871094 13.3125 20.441406 13.625v26.160156l-136.226562-118.464844c-20.191407-17.542968-31.773438-42.96875-31.773438-69.730468 0-30.511719 15.71875-58.972656 40.863281-75.511719zm0 0" fill="url(#a)"/></svg>