<svg id="Capa_1" enable-background="new 0 0 512.005 512.005" height="512" viewBox="0 0 512.005 512.005" width="512" xmlns="http://www.w3.org/2000/svg" xmlns:xlink="http://www.w3.org/1999/xlink"><linearGradient id="SVGID_1_" gradientUnits="userSpaceOnUse" x1="256.003" x2="256.003" y1="512.005" y2="0"><stop offset="0" stop-color="#fd5900"/><stop offset="1" stop-color="#ffde00"/></linearGradient><g><g><g><path d="m245.538 60.504c-53.011 5.063-94.536 53.799-94.536 110.953v53.555c0 8.284 6.716 15 15 15 24.813 0 45 20.187 45 45 0 24.814-20.187 45.001-45 45.001-8.284 0-15 6.716-15 15s6.716 15 15 15c41.355 0 75-33.645 75-75.001 0-36.218-25.809-66.524-60-73.493v-40.062c0-41.861 29.601-77.479 67.333-81.083 46.016-4.222 82.667 31.647 82.667 74.638 0 24.287-11.293 46.427-30.983 60.744-6.701 4.872-8.184 14.253-3.313 20.953 4.872 6.7 14.254 8.184 20.953 3.312 27.545-20.026 43.343-51.01 43.343-85.008.001-59.947-51.152-110.414-115.464-104.509zm-5.694-59.72c-85.09 8.114-148.841 83.907-148.841 170.673v244.618c0 51.047 41.333 95.93 94.121 95.93 50.349 0 88.697-42.978 93.735-90.843 5.055-48.019 31.358-91.561 74.066-122.605 20.627-14.993 37.743-34.847 49.498-57.414 12.154-23.333 18.579-49.659 18.579-76.132.001-94.647-81.013-173.78-181.158-164.227zm95.443 273.507c-23.955 17.413-43.605 38.468-58.405 62.582-15.47 25.206-24.843 52.508-27.857 81.149-3.565 33.872-29.841 61.919-59.819 63.852-37.487 2.42-68.203-29.307-68.203-65.798v-244.619c0-72.451 53.452-134.302 121.689-140.809 81.888-7.809 148.311 56.722 148.311 134.363 0 43.067-20.829 83.92-55.716 109.28z" fill="url(#SVGID_1_)"/></g></g></g></svg>