<svg id="Capa_1" enable-background="new 0 0 512 512" height="512" viewBox="0 0 512 512" width="512" xmlns="http://www.w3.org/2000/svg" xmlns:xlink="http://www.w3.org/1999/xlink"><linearGradient id="SVGID_1_" gradientUnits="userSpaceOnUse" x1="256" x2="256" y1="512" y2="0"><stop offset="0" stop-color="#00b59c"/><stop offset="1" stop-color="#9cffac"/></linearGradient><g><g><g><path d="m376 241c24.813 0 45-20.187 45-45s-20.187-45-45-45h-17.57c-1.982-5.589-5.042-10.669-8.924-15 3.881-4.331 6.942-9.411 8.924-15h17.57c24.813 0 45-20.187 45-45s-20.187-45-45-45h-17.502c-2.166-6.296-5.698-12.117-10.442-17.079-8.582-8.977-19.966-13.921-32.056-13.921h-120c-12.09 0-23.474 4.944-32.056 13.921-4.744 4.962-8.276 10.783-10.442 17.079h-17.502c-24.813 0-45 20.187-45 45s20.187 45 45 45h17.57c1.982 5.589 5.042 10.669 8.924 15-3.881 4.331-6.942 9.411-8.924 15h-17.57c-24.813 0-45 20.187-45 45s20.187 45 45 45h17.57c1.982 5.589 5.042 10.669 8.924 15-3.881 4.331-6.942 9.411-8.924 15h-17.57c-24.813 0-45 20.187-45 45s20.187 45 45 45h17.57c1.982 5.589 5.042 10.669 8.924 15-3.881 4.331-6.942 9.411-8.924 15h-17.57c-24.813 0-45 20.187-45 45s20.187 45 45 45h17.502c2.166 6.295 5.698 12.116 10.441 17.078 8.583 8.978 19.968 13.922 32.057 13.922h120c12.089 0 23.474-4.944 32.056-13.922 4.743-4.962 8.275-10.783 10.441-17.078h17.503c24.813 0 45-20.187 45-45s-20.187-45-45-45h-17.57c-1.982-5.589-5.042-10.669-8.924-15 3.881-4.331 6.942-9.411 8.924-15h17.57c24.813 0 45-20.187 45-45s-20.187-45-45-45h-17.57c-1.982-5.589-5.042-10.669-8.924-15 3.881-4.331 6.942-9.411 8.924-15zm-240-150c-8.271 0-15-6.729-15-15s6.729-15 15-15h30c8.284 0 15-6.716 15-15 0-8.523 7.009-16 15-16h120c7.991 0 15 7.477 15 16 0 8.284 6.716 15 15 15h30c8.271 0 15 6.729 15 15s-6.729 15-15 15h-30c-8.284 0-15 6.716-15 15 0 8.271-6.729 15-15 15h-120c-8.271 0-15-6.729-15-15 0-8.284-6.716-15-15-15zm240 330c8.271 0 15 6.729 15 15s-6.729 15-15 15h-30c-8.284 0-15 6.716-15 15 0 8.523-7.009 16-15 16h-120c-7.991 0-15-7.477-15-16 0-8.284-6.716-15-15-15h-30c-8.271 0-15-6.729-15-15s6.729-15 15-15h30c8.284 0 15-6.716 15-15 0-8.271 6.729-15 15-15h120c8.271 0 15 6.729 15 15 0 8.284 6.716 15 15 15zm0-120c8.271 0 15 6.729 15 15s-6.729 15-15 15h-30c-8.284 0-15 6.716-15 15 0 8.271-6.729 15-15 15h-120c-8.271 0-15-6.729-15-15 0-8.284-6.716-15-15-15h-30c-8.271 0-15-6.729-15-15s6.729-15 15-15h30c8.284 0 15-6.716 15-15 0-8.271 6.729-15 15-15h120c8.271 0 15 6.729 15 15 0 8.284 6.716 15 15 15zm-30-90c-8.284 0-15 6.716-15 15 0 8.271-6.729 15-15 15h-120c-8.271 0-15-6.729-15-15 0-8.284-6.716-15-15-15h-30c-8.271 0-15-6.729-15-15s6.729-15 15-15h30c8.284 0 15-6.716 15-15 0-8.271 6.729-15 15-15h120c8.271 0 15 6.729 15 15 0 8.284 6.716 15 15 15h30c8.271 0 15 6.729 15 15s-6.729 15-15 15z" fill="url(#SVGID_1_)"/></g></g></g></svg>