<svg id="Capa_1" enable-background="new 0 0 512 512" height="512" viewBox="0 0 512 512" width="512" xmlns="http://www.w3.org/2000/svg" xmlns:xlink="http://www.w3.org/1999/xlink"><linearGradient id="SVGID_1_" gradientUnits="userSpaceOnUse" x1="256" x2="256" y1="512" y2="0"><stop offset="0" stop-color="#fd5900"/><stop offset="1" stop-color="#ffde00"/></linearGradient><g><g><g><path d="m375.968 210.988c9.433-12.541 15.032-28.122 15.032-44.988 0-36.219-25.809-66.524-60-73.493v-77.507c0-8.284-6.716-15-15-15h-120c-8.284 0-15 6.716-15 15v77.507c-34.191 6.969-60 37.275-60 73.493 0 16.866 5.599 32.447 15.032 44.988-9.665 12.883-15.032 28.653-15.032 45.012s5.367 32.129 15.032 45.012c-9.433 12.541-15.032 28.122-15.032 44.988 0 36.219 25.809 66.524 60 73.493v77.507c0 8.284 6.716 15 15 15h120c8.284 0 15-6.716 15-15v-77.507c34.191-6.969 60-37.275 60-73.493 0-16.866-5.599-32.447-15.032-44.988 9.665-12.883 15.032-28.653 15.032-45.012s-5.367-32.129-15.032-45.012zm-59.968 180.012c-8.284 0-15 6.716-15 15v76h-90v-76c0-8.284-6.716-15-15-15-24.813 0-45-20.187-45-45s20.187-45 45-45c6.559 0 12.874 1.375 18.771 4.086 26.201 12.047 56.256 12.048 82.459 0 5.896-2.711 12.211-4.086 18.77-4.086 24.813 0 45 20.187 45 45s-20.187 45-45 45zm37.386-109.975c-11.015-6.363-23.777-10.025-37.386-10.025-10.917 0-21.448 2.298-31.304 6.829-18.237 8.386-39.156 8.386-57.393 0-9.855-4.531-20.386-6.829-31.303-6.829-13.609 0-26.372 3.662-37.386 10.025-4.911-7.34-7.614-16.035-7.614-25.025s2.703-17.685 7.614-25.025c11.014 6.363 23.777 10.025 37.386 10.025 10.917 0 21.448-2.298 31.304-6.829 18.238-8.385 39.157-8.385 57.393 0 9.855 4.531 20.386 6.829 31.303 6.829 13.609 0 26.372-3.662 37.386-10.025 4.911 7.34 7.614 16.035 7.614 25.025s-2.703 17.685-7.614 25.025zm-56.157-74.111c-13.101-6.024-27.165-9.036-41.229-9.036s-28.128 3.012-41.229 9.036c-29.553 13.589-63.771-8.026-63.771-40.914 0-24.813 20.187-45 45-45 8.284 0 15-6.716 15-15v-76h90v76c0 8.284 6.716 15 15 15 24.813 0 45 20.187 45 45 0 32.888-34.213 54.506-63.771 40.914z" fill="url(#SVGID_1_)"/></g></g></g></svg>