<svg id="Capa_1" enable-background="new 0 0 512 512" height="512" viewBox="0 0 512 512" width="512" xmlns="http://www.w3.org/2000/svg" xmlns:xlink="http://www.w3.org/1999/xlink"><linearGradient id="SVGID_1_" gradientUnits="userSpaceOnUse" x1="256" x2="256" y1="451" y2="61"><stop offset="0" stop-color="#a93aff"/><stop offset="1" stop-color="#ff81ff"/></linearGradient><g><g><g><path d="m320.627 145.45c-4.996-3.103-11.343-3-16.235.261-29.397 19.598-67.387 19.598-96.784 0-4.893-3.262-11.24-3.364-16.235-.261s-7.716 8.837-6.961 14.669c5.977 46.146 19.896 87.828 38.19 114.359 7.456 10.811 14.201 22.08 20.048 33.494 2.565 5.009 7.719 8.16 13.346 8.161h.004c5.626 0 10.779-3.148 13.347-8.155 5.849-11.405 12.597-22.678 20.051-33.501 18.293-26.53 32.213-68.211 38.19-114.357.755-5.833-1.966-11.568-6.961-14.67zm-55.93 112.002c-3.005 4.363-5.907 8.794-8.694 13.276-2.79-4.486-5.694-8.918-8.704-13.282-11.821-17.144-21.851-43.323-28.285-73.032 24.011 8.015 49.961 8.016 73.972-.001-6.434 29.709-16.465 55.891-28.289 73.039zm247.303-96.599c0-55.059-45.242-99.853-100.853-99.853h-5.147c-31.688 0-56.084 8.006-79.677 15.748-22.335 7.329-43.432 14.252-70.323 14.252s-47.988-6.923-70.323-14.252c-23.593-7.742-47.99-15.748-79.677-15.748h-5.147c-55.611 0-100.853 44.794-100.853 99.853 0 19.824 5.944 39.148 16.876 55.502-9.163 21.064 1.417 46.578 18.058 63.219 21.714 21.714 54.985 29.868 74.246 10.606 19.973-19.973 10.206-53.433-10.607-74.246-15.286-15.287-38.322-25.793-58.901-19.634-6.287-10.682-9.672-22.924-9.672-35.447 0-38.517 31.784-69.853 70.853-69.853 3.347.059 10.097-.258 20.351.758-2.043 71.948 11.509 158.024 51.98 216.754 24.739 35.901 37.816 74.459 37.816 111.508v15.98c0 8.284 6.716 15 15 15h60c8.284 0 15-6.716 15-15v-15.98c0-37.048 13.077-75.607 37.816-111.507 40.57-58.873 54.015-145.092 51.98-216.754 10.24-1.014 16.934-.697 20.351-.758 39.069-.001 70.853 31.335 70.853 69.852 0 12.524-3.385 24.765-9.672 35.446-20.547-6.15-43.578 4.312-58.901 19.635-20.901 20.901-30.487 54.367-10.607 74.246 19.811 19.812 53.272 10.367 74.246-10.606 16.601-16.601 27.239-42.114 18.058-63.219 10.932-16.354 16.876-35.678 16.876-55.502zm-466.471 65.701c.018-.017.036-.033.054-.051 4.733-4.622 19.63-1.504 31.776 10.643 11.554 11.554 15.551 26.875 10.607 31.82-4.324 4.325-18.871 2.343-31.82-10.606-11.439-11.44-15.589-26.799-10.617-31.806zm268.584 64.935c-28.205 40.93-43.113 85.375-43.113 128.531v.98h-30v-.98c0-43.156-14.908-87.601-43.113-128.53-29.359-42.605-46.887-111.947-46.887-185.49 0-2.845.036-5.696.087-8.547 8.489 2.306 16.774 5.022 25.236 7.799 23.593 7.742 47.989 15.748 79.677 15.748 31.687 0 56.084-8.006 79.677-15.748 8.462-2.777 16.747-5.493 25.236-7.799.052 2.851.087 5.702.087 8.547 0 73.543-17.528 142.885-46.887 185.489zm141.741-33.129c-12.95 12.95-27.496 14.93-31.82 10.606-4.538-4.539-1.759-19.453 10.607-31.82 11.522-11.522 26.786-15.516 31.776-10.643.018.017.036.034.054.051 4.671 4.704 1.48 19.707-10.617 31.806z" fill="url(#SVGID_1_)"/></g></g></g></svg>