<svg id="Capa_1" enable-background="new 0 0 512 512" height="512" viewBox="0 0 512 512" width="512" xmlns="http://www.w3.org/2000/svg" xmlns:xlink="http://www.w3.org/1999/xlink"><linearGradient id="SVGID_1_" gradientUnits="userSpaceOnUse" x1="256" x2="256" y1="512" y2="0"><stop offset="0" stop-color="#fd3a84"/><stop offset="1" stop-color="#ffa68d"/></linearGradient><g><g><g><path d="m256 211c-8.284 0-15 6.716-15 15v60c0 8.284 6.716 15 15 15s15-6.716 15-15v-60c0-8.284-6.716-15-15-15zm35.765-74.4c-7.698-7.279-14.665-15.108-20.765-23.32v-22.28c0-8.284-6.716-15-15-15s-15 6.716-15 15v22.286c-6.073 8.185-13.038 16.005-20.76 23.295-9.205 8.696-39.24 43.01-39.24 119.419 0 76.428 30.038 110.72 39.235 119.4 7.698 7.278 14.665 15.108 20.765 23.32v22.28c0 8.284 6.716 15 15 15s15-6.716 15-15v-22.286c6.073-8.184 13.038-16.004 20.76-23.294 9.205-8.697 39.24-43.011 39.24-119.42 0-76.428-30.038-110.72-39.235-119.4zm-20.603 217.008c-5.371 5.071-10.438 10.373-15.165 15.865-4.731-5.502-9.797-10.809-15.16-15.88-13.764-12.992-29.837-46.346-29.837-97.593 0-51.239 16.076-84.606 29.838-97.608 5.371-5.071 10.438-10.372 15.165-15.864 4.731 5.502 9.797 10.808 15.16 15.88 13.764 12.991 29.837 46.345 29.837 97.592 0 51.239-16.076 84.606-29.838 97.608zm61.788-260.653c-20.304-19.17-31.95-43.978-31.95-68.065v-9.89c0-8.284-6.716-15-15-15h-60c-8.284 0-15 6.716-15 15v9.89c0 24.087-11.646 48.896-31.95 68.065-36.892 34.827-58.05 94.255-58.05 163.045s21.158 128.218 58.05 163.045c20.304 19.169 31.95 43.978 31.95 68.065v9.89c0 8.284 6.716 15 15 15h60c8.284 0 15-6.716 15-15v-9.89c0-24.087 11.646-48.896 31.95-68.065 36.892-34.827 58.05-94.255 58.05-163.045s-21.158-128.218-58.05-163.045zm-20.594 304.276c-24.898 23.505-39.737 54.14-41.231 84.769h-30.25c-1.494-30.629-16.333-61.264-41.231-84.769-30.914-29.185-48.644-80.661-48.644-141.231s17.73-112.046 48.644-141.231c24.898-23.505 39.737-54.14 41.231-84.769h30.25c1.494 30.629 16.333 61.264 41.231 84.769 30.914 29.185 48.644 80.661 48.644 141.231s-17.73 112.046-48.644 141.231z" fill="url(#SVGID_1_)"/></g></g></g></svg>