<svg id="Capa_1" enable-background="new 0 0 512 512" height="512" viewBox="0 0 512 512" width="512" xmlns="http://www.w3.org/2000/svg" xmlns:xlink="http://www.w3.org/1999/xlink"><linearGradient id="SVGID_1_" gradientUnits="userSpaceOnUse" x1="256" x2="256" y1="512" y2="0"><stop offset="0" stop-color="#a93aff"/><stop offset="1" stop-color="#ff81ff"/></linearGradient><g><g><g><path d="m361 271h-210c-8.271 0-15-6.729-15-15s6.729-15 15-15h210c57.897 0 105-47.103 105-105s-47.103-105-105-105h-180c-7.991 0-15-7.477-15-16 0-8.284-6.716-15-15-15h-60c-8.284 0-15 6.716-15 15 0 28.028 10.904 54.534 30.702 74.636 19.92 20.225 46.306 31.364 74.298 31.364h180c8.271 0 15 6.729 15 15s-6.729 15-15 15h-210c-57.897 0-105 47.103-105 105s47.103 105 105 105h210c8.271 0 15 6.729 15 15s-6.729 15-15 15h-90c-27.992 0-54.378 11.139-74.298 31.364-19.798 20.102-30.702 46.608-30.702 74.636 0 8.284 6.716 15 15 15h60c8.284 0 15-6.716 15-15 0-8.523 7.009-16 15-16h90c57.897 0 105-47.103 105-105s-47.103-105-105-105zm0 180h-90c-19.283 0-36.201 13.167-42.442 31h-31.091c6.892-34.748 37.244-61 73.533-61h90c24.813 0 45-20.187 45-45s-20.187-45-45-45h-210c-41.355 0-75-33.645-75-75s33.645-75 75-75h210c24.813 0 45-20.187 45-45s-20.187-45-45-45h-180c-36.289 0-66.642-26.252-73.533-61h31.091c6.241 17.833 23.16 31 42.442 31h180c41.355 0 75 33.645 75 75s-33.645 75-75 75h-210c-24.813 0-45 20.187-45 45s20.187 45 45 45h210c41.355 0 75 33.645 75 75s-33.645 75-75 75z" fill="url(#SVGID_1_)"/></g></g></g></svg>