<svg id="Capa_1" enable-background="new 0 0 512 512" height="512" viewBox="0 0 512 512" width="512" xmlns="http://www.w3.org/2000/svg" xmlns:xlink="http://www.w3.org/1999/xlink"><linearGradient id="SVGID_1_" gradientUnits="userSpaceOnUse" x1="256" x2="256" y1="512" y2="0"><stop offset="0" stop-color="#5558ff"/><stop offset="1" stop-color="#00c0ff"/></linearGradient><g><g><g><path d="m495.945 270.763c-29.16-83.137-43.945-162.095-43.945-234.68v-21.083c0-8.284-6.716-15-15-15h-60c-8.284 0-15 6.716-15 15v42.505c0 57.094 6.32 110.029 18.839 158.206-6.138-2.449-12.441-3.711-18.839-3.711-25.002 0-48.577 19.148-66.384 53.917-14.788 28.874-23.616 64.793-23.616 96.083 0 31.573 9.175 55.356 27.27 70.69 6.57 5.567 14.272 9.938 23.053 13.106-3.393 6.322-5.323 13.541-5.323 21.204 0 24.813 20.187 45 45 45 44.925 0 82.732-14.062 109.335-40.665s40.665-64.41 40.665-109.335c0-29.32-5.701-61.722-16.055-91.237zm-177.28 139.039c-11.059-9.37-16.665-25.453-16.665-47.802 0-26.36 7.785-57.938 20.318-82.409 12.055-23.538 26.889-37.591 39.682-37.591s27.627 14.053 39.682 37.591c12.533 24.472 20.318 56.049 20.318 82.409 0 22.349-5.606 38.432-16.665 47.802-8.953 7.587-22.324 11.668-39.781 12.149-1.167.03-2.348.048-3.554.048-19.204.001-33.784-4.103-43.335-12.197zm43.335 72.198c-8.271 0-15-6.729-15-15s6.729-15 15-15c65.484 0 93.654-38.343 89.61-101.644.737-3.222.4-6.396-.8-9.218-2.429-22.044-8.509-44.95-17.498-65.233-27.413-61.847-41.312-135.328-41.312-218.4v-27.505h30c.759 8.12-5.857 103.882 45.637 250.693 9.262 26.406 14.363 55.281 14.363 81.307 0 75.14-44.859 120-120 120zm-212-270c-6.398 0-12.701 1.262-18.839 3.71 12.519-48.177 18.839-101.112 18.839-158.205v-42.505c0-8.284-6.716-15-15-15h-60c-8.284 0-15 6.716-15 15v21.083c0 72.585-14.786 151.543-43.946 234.681-10.353 29.516-16.054 61.918-16.054 91.236 0 44.925 14.062 82.732 40.665 109.335s64.41 40.665 109.335 40.665c24.813 0 45-20.187 45-45 0-7.663-1.93-14.882-5.323-21.204 8.781-3.167 16.483-7.539 23.053-13.106 18.095-15.334 27.27-39.117 27.27-70.69 0-31.291-8.829-67.209-23.616-96.083-17.806-34.769-41.382-53.917-66.384-53.917zm0 270c-75.14 0-120-44.86-120-120 0-26.024 5.101-54.9 14.363-81.307 51.319-146.315 44.91-242.914 45.637-250.693h30v27.505c0 83.071-13.899 156.552-41.311 218.4-8.989 20.283-15.07 43.188-17.499 65.233-1.2 2.823-1.537 5.999-.8 9.218-4.045 63.441 24.246 101.644 89.61 101.644 8.271 0 15 6.729 15 15s-6.729 15-15 15zm43.335-72.198c-9.551 8.094-24.131 12.198-43.335 12.198-1.206 0-2.387-.019-3.554-.048-17.457-.481-30.829-4.563-39.782-12.149-11.057-9.371-16.664-25.454-16.664-47.803 0-26.36 7.785-57.938 20.318-82.409 12.055-23.538 26.89-37.591 39.682-37.591s27.627 14.053 39.682 37.591c12.533 24.472 20.318 56.049 20.318 82.409 0 22.349-5.607 38.432-16.665 47.802z" fill="url(#SVGID_1_)"/></g></g></g></svg>