<svg id="Capa_1" enable-background="new 0 0 512 512" height="512" viewBox="0 0 512 512" width="512" xmlns="http://www.w3.org/2000/svg" xmlns:xlink="http://www.w3.org/1999/xlink"><linearGradient id="SVGID_1_" gradientUnits="userSpaceOnUse" x1="256" x2="256" y1="512" y2="0"><stop offset="0" stop-color="#fd5900"/><stop offset="1" stop-color="#ffde00"/></linearGradient><g><g><g><path d="m438.238 106.838c-44.561-59.863-108.589-106.838-182.238-106.838-73.664 0-137.691 46.993-182.238 106.838-46.188 62.048-73.762 140.239-73.762 209.162 0 64.414 24.353 117.808 77.562 152.744 43.712 28.703 103.748 43.256 178.438 43.256s134.726-14.553 178.438-43.256c53.208-34.935 77.562-88.328 77.562-152.744 0-68.923-27.574-147.114-73.762-209.162zm-20.265 336.829c-38.193 25.078-94.202 38.333-161.973 38.333s-123.78-13.255-161.973-38.333c-42.485-27.896-64.027-70.85-64.027-127.667 0-62.699 25.355-134.194 67.826-191.249 45.484-61.101 101.656-94.751 158.174-94.751s112.69 33.65 158.174 94.751c42.471 57.055 67.826 128.55 67.826 191.249 0 56.817-21.542 99.771-64.027 127.667zm-113.005-274.673c-20.635 7.142-33.968 25.937-33.968 47.881 0 13.924 5.729 27.242 15.717 36.539 12.061 11.227 16.871 27.703 12.868 44.075-3.917 16.019-17.452 29.066-33.68 32.467-13.921 2.919-27.507-.278-38.248-9.001-10.586-8.598-16.657-21.338-16.657-34.955 0-12.15 4.872-23.533 13.72-32.052 10.499-10.109 16.28-23.275 16.28-37.073 0-21.945-13.333-40.74-33.968-47.882-20.978-7.262-43.456-.605-57.27 16.957-36.794 46.783-58.762 106.615-58.762 160.05 0 36.611 14.595 63.932 43.38 81.203 26.687 16.013 66.47 23.797 121.62 23.797s94.933-7.784 121.62-23.797c28.785-17.271 43.38-44.592 43.38-81.203 0-53.435-21.968-113.267-58.763-160.05-13.813-17.562-36.297-24.218-57.269-16.956zm-48.968 252.006c-118.961 0-135-37.913-135-75 0-46.232 20.057-100.454 52.343-141.504 6.298-8.006 15.707-9.979 23.877-7.153 3.232 1.119 13.78 5.834 13.78 19.532 0 5.569-2.518 11.061-7.088 15.462-14.775 14.226-22.912 33.284-22.912 53.663 0 22.694 10.112 43.922 27.745 58.243 17.631 14.319 40.707 19.814 63.314 15.076 27.292-5.72 50.064-27.704 56.666-54.704 6.621-27.076-1.442-54.425-21.569-73.16-3.912-3.642-6.156-8.956-6.156-14.58 0-13.697 10.548-18.413 13.78-19.532 6.937-2.402 16.849-1.782 23.877 7.153 32.286 41.05 52.343 95.272 52.343 141.504 0 37.087-16.039 75-135 75z" fill="url(#SVGID_1_)"/></g></g></g></svg>