<svg id="Capa_1" enable-background="new 0 0 512 512" height="512" viewBox="0 0 512 512" width="512" xmlns="http://www.w3.org/2000/svg" xmlns:xlink="http://www.w3.org/1999/xlink"><linearGradient id="SVGID_1_" gradientUnits="userSpaceOnUse" x1="256" x2="256" y1="496" y2="16"><stop offset="0" stop-color="#00b59c"/><stop offset="1" stop-color="#9cffac"/></linearGradient><g><g><g><path d="m316 106c-8.284 0-15 6.716-15 15v53.787l-30-30v-113.787c0-8.284-6.716-15-15-15s-15 6.716-15 15v113.787l-30 30v-53.787c0-8.284-6.716-15-15-15-108.075 0-196 87.477-196 195v180c0 8.284 6.716 15 15 15 108.075 0 196-87.477 196-195v-83.787l45-45 45 45v83.787c0 107.523 87.925 195 196 195 8.284 0 15-6.716 15-15v-180c0-107.523-87.925-195-196-195zm-135 98.787-85.606 85.606c-5.858 5.858-5.858 15.355 0 21.213 5.857 5.858 15.355 5.858 21.213 0l64.393-64.393v53.787c0 85.956-66.47 156.771-151 164.333v-164.333c0-85.956 66.47-156.771 151-164.333zm301 260.546c-84.53-7.562-151-78.377-151-164.333v-53.787l64.394 64.393c5.857 5.857 15.355 5.858 21.213 0s5.858-15.355 0-21.213l-85.607-85.606v-68.12c84.53 7.561 151 78.376 151 164.333z" fill="url(#SVGID_1_)"/></g></g></g></svg>