<svg id="Capa_1" enable-background="new 0 0 511.978 511.978" height="512" viewBox="0 0 511.978 511.978" width="512" xmlns="http://www.w3.org/2000/svg" xmlns:xlink="http://www.w3.org/1999/xlink"><linearGradient id="SVGID_1_" gradientUnits="userSpaceOnUse" x1="255.989" x2="255.989" y1="471.904" y2="40.075"><stop offset="0" stop-color="#fd3a84"/><stop offset="1" stop-color="#ffa68d"/></linearGradient><g><g><g><path d="m489.408 48.383c-14.133-9.319-31.858-10.9-47.418-4.232-10.951 2.621-84.154 51.284-207.548 13.617-19.396-5.921-39.623-7.376-60.12-4.323-23.577 3.511-45.366 13.552-63.459 28.131l-32.266-32.266c-2.813-2.813-6.628-4.394-10.606-4.394-.002 0-.006 0-.008 0-3.981.002-7.798 1.586-10.61 4.405-31.155 31.222-51.056 71.837-56.032 114.36-6.52 55.55 10.944 111.243 47.914 152.798 38.117 42.842 91.223 65.422 146.561 65.422 12.185 0 23.905 4.721 32.179 12.966 7.729 7.702 11.984 17.961 11.984 28.889v33.147c0 8.284 6.716 15 15 15h60c8.284 0 15-6.716 15-15v-38.23c0-33.818-13.248-65.479-37.303-89.152-9.819-9.663-21.192-17.641-33.555-23.734 24.063-12.958 43.994-33.151 56.638-58.498 84.511-3.356 162.564-56.53 193.078-138.9 2.085-5.625 3.142-11.711 3.142-18.088-.001-16.929-8.438-32.599-22.571-41.918zm-217.775 302.521c18.279 17.988 28.346 42.056 28.346 67.769v23.23h-30v-18.147c0-18.96-7.39-36.767-20.808-50.139-14.059-14.01-32.991-21.716-53.429-21.716-45.672 0-91.407-18.647-124.073-55.364-31.281-35.161-46.055-82.311-40.532-129.365 3.633-31.035 16.749-60.923 37.335-85.563l20.369 20.369c-12.957 17.253-21.808 36.764-26.021 57.166-16.599 78.894 39.863 162.723 136.625 162.723 27.543.001 53.122 10.274 72.188 29.037zm209.072-252.938c-33.088 89.322-131.45 138.846-224.041 112.39-7.965-2.275-16.268 2.336-18.544 10.302-2.275 7.965 2.337 16.268 10.302 18.543 11.113 3.175 22.278 5.406 33.447 6.742-19.273 28.456-51.494 45.96-86.891 45.96-18.727 0-36.93-5.024-52.816-14.264-29.452-17.135-47.785-46.778-51.579-79.218-.849-7.931-.818-16.053.144-24.265 5.382-45.958 42.396-84.246 88.015-91.04 16.038-2.389 31.833-1.268 46.941 3.344 34.834 10.633 69.582 15.87 103.345 15.528 70.925-.694 110.677-25.471 124.78-30.264 6.354-2.724 13.313-2.104 19.085 1.704 8.634 5.693 10.918 16.156 7.812 24.538z" fill="url(#SVGID_1_)"/></g></g></g></svg>