<svg id="Capa_1" enable-background="new 0 0 512 512" height="512" viewBox="0 0 512 512" width="512" xmlns="http://www.w3.org/2000/svg" xmlns:xlink="http://www.w3.org/1999/xlink"><linearGradient id="SVGID_1_" gradientUnits="userSpaceOnUse" x1="256" x2="256" y1="512" y2="0"><stop offset="0" stop-color="#5558ff"/><stop offset="1" stop-color="#00c0ff"/></linearGradient><g><g><g><path d="m346 330h-30c-16.542 0-30-13.458-30-30v-37.259c38.813-14.163 60-48.427 60-97.741 0-35.357-10.563-75.416-28.259-107.157-20.794-37.301-48.048-57.843-76.741-57.843s-55.947 20.542-76.741 57.843c-17.696 31.741-28.259 71.8-28.259 107.157 0 49.313 21.188 83.578 60 97.741v22.259c0 41.355 33.645 75 75 75h75c16.542 0 30 13.458 30 30s-13.458 30-30 30h-180c-33.084 0-60 26.916-60 60v17c0 8.284 6.716 15 15 15s15-6.716 15-15v-17c0-16.542 13.458-30 30-30h180c33.084 0 60-26.916 60-60s-26.916-60-60-60zm-78.576-92.934c-6.708 1.646-11.424 7.661-11.424 14.567v48.367c0 10.678 2.805 20.715 7.715 29.411-21.362-3.492-37.715-22.077-37.715-44.411v-33.366c0-6.907-4.716-12.921-11.424-14.567-32.686-8.025-48.576-31.598-48.576-72.067 0-30.475 9.145-65.072 24.462-92.549 15.039-26.978 33.46-42.451 50.538-42.451s35.499 15.473 50.538 42.451c15.317 27.477 24.462 62.074 24.462 92.549 0 40.469-15.89 64.042-48.576 72.066z" fill="url(#SVGID_1_)"/></g></g></g></svg>