<svg id="Capa_1" enable-background="new 0 0 512 512" height="512" viewBox="0 0 512 512" width="512" xmlns="http://www.w3.org/2000/svg" xmlns:xlink="http://www.w3.org/1999/xlink"><linearGradient id="SVGID_1_" gradientUnits="userSpaceOnUse" x1="256" x2="256" y1="512" y2="0"><stop offset="0" stop-color="#fd5900"/><stop offset="1" stop-color="#ffde00"/></linearGradient><g><g><g><path d="m445.518 58.504c-17.184-35.54-54.227-58.504-94.374-58.504h-36.164c-41.355 0-75 33.645-75 75v32c0 24.813 20.187 45 45 45h69.563c-15.517 52.497-23.745 106.698-24.505 161.506-24.563-7.343-45.626-10.563-67.121-9.656-9.862-29.079-29.699-54.475-55.871-71.024-30.573-19.333-67.321-25.462-103.476-17.265-49.102 11.137-88.783 50.746-99.985 99.829-9.402 41.197 0 83.376 25.797 115.724 25.788 32.339 64.278 50.886 105.598 50.886h25.866c13.061 7.499 56.631 30 109.134 30 18.496 0 37.713-2.811 57.116-8.355 48.946-13.985 94.866-21.107 140.383-21.774 11.931-.175 23.105-4.907 31.468-13.324 8.404-8.46 13.033-19.704 13.033-31.659v-94.96c0-95.487-22.982-193.494-66.462-283.424zm36.462 378.384c0 8.281-6.563 14.863-14.94 14.986-48.192.707-96.664 8.205-148.186 22.925-16.723 4.778-33.166 7.201-48.874 7.201-52.656 0-96.517-27.382-96.931-27.645-2.41-1.538-5.21-2.355-8.069-2.355h-30c-32.139 0-62.079-14.43-82.144-39.59-20.072-25.169-27.363-58.099-20.004-90.344 8.595-37.657 39.688-68.701 77.373-77.248 28.257-6.409 56.966-1.711 80.806 13.364 18.651 11.794 33.166 29.347 41.37 49.579-13.14 2.73-27.033 6.837-42.434 12.322-7.804 2.779-11.878 11.359-9.099 19.163 2.78 7.804 11.36 11.876 19.163 9.099 56.974-20.291 87.221-18.772 139.936 0 4.594 1.635 9.693.938 13.679-1.874 3.984-2.811 6.354-7.382 6.354-12.257.611-8.34-4.888-90.117 29.23-192.47 1.524-4.574.758-9.602-2.062-13.514s-7.347-6.23-12.168-6.23h-90c-8.271 0-15-6.729-15-15v-17h60c8.284 0 15-6.716 15-15s-6.716-15-15-15h-57.42c6.192-17.458 22.865-30 42.42-30h36.164c28.715 0 55.157 16.314 67.365 41.563 41.522 85.882 63.471 179.374 63.471 270.365z" fill="url(#SVGID_1_)"/></g></g></g></svg>