<svg id="Capa_1" enable-background="new 0 0 512 512" height="512" viewBox="0 0 512 512" width="512" xmlns="http://www.w3.org/2000/svg" xmlns:xlink="http://www.w3.org/1999/xlink"><linearGradient id="SVGID_1_" gradientUnits="userSpaceOnUse" x1="256" x2="256" y1="512" y2="0"><stop offset="0" stop-color="#a93aff"/><stop offset="1" stop-color="#ff81ff"/></linearGradient><g><g><g><path d="m479.67 165.258c7.723-42.64-18.587-87.051-62.636-100.296-11.533-38.325-46.59-64.962-86.034-64.962-31.086 0-58.607 16.032-75 40.881-16.345-24.777-43.832-40.881-75-40.881-39.404 0-74.488 26.595-86.034 64.962-44.019 13.237-70.364 57.63-62.636 100.296-19.95 14.134-32.33 36.888-32.33 60.742v60c0 23.854 12.38 46.608 32.33 60.742-7.718 42.61 18.559 87.043 62.636 100.297 11.534 38.329 46.596 64.961 86.034 64.961 24.031 0 46.667-9.574 63.736-26.957 4.24-4.318 8.004-8.983 11.264-13.924 3.26 4.941 7.023 9.606 11.264 13.924 17.069 17.383 39.705 26.957 63.736 26.957 39.406 0 74.49-26.598 86.034-64.961 44.017-13.236 70.365-57.627 62.636-100.297 19.95-14.134 32.33-36.888 32.33-60.742v-60c0-23.854-12.38-46.608-32.33-60.742zm-238.67.783c-12.544-9.438-28.129-15.041-45-15.041-8.284 0-15 6.716-15 15s6.716 15 15 15c24.813 0 45 20.187 45 45v60c0 24.813-20.187 45-45 45-8.284 0-15 6.716-15 15s6.716 15 15 15c16.871 0 32.456-5.603 45-15.041v75.041c0 33.636-26.916 61-60 61-28.308 0-53.618-21.534-58.875-50.089-1.127-6.121-5.916-10.91-12.036-12.036-28.444-5.236-49.089-29.996-49.089-58.875 0-4.101.576-8.366 1.773-13.173l23.193-20.616c6.191-5.503 6.749-14.984 1.245-21.176-5.504-6.191-14.984-6.751-21.177-1.246l-18.166 16.147c-11.079-8.601-17.868-21.523-17.868-34.936v-60c0-13.413 6.789-26.335 17.869-34.936l18.166 16.147c6.231 5.538 15.709 4.906 21.177-1.246 5.504-6.192 4.946-15.673-1.245-21.176l-23.193-20.616c-1.198-4.807-1.774-9.072-1.774-13.173 0-28.878 20.645-53.639 49.089-58.875 6.12-1.126 10.909-5.916 12.036-12.037 5.257-28.554 30.567-50.088 58.875-50.088 33.084 0 60 27.364 60 61zm241 119.959c0 13.413-6.789 26.335-17.869 34.936l-18.166-16.147c-6.194-5.505-15.675-4.945-21.177 1.246-5.504 6.192-4.946 15.673 1.245 21.176l23.193 20.616c1.198 4.807 1.774 9.072 1.774 13.173 0 28.878-20.645 53.639-49.089 58.875-6.12 1.126-10.909 5.916-12.036 12.036-5.257 28.555-30.567 50.089-58.875 50.089-33.084 0-60-27.364-60-61v-75.041c12.544 9.438 28.129 15.041 45 15.041 8.284 0 15-6.716 15-15s-6.716-15-15-15c-24.813 0-45-20.187-45-45v-60c0-24.813 20.187-45 45-45 8.284 0 15-6.716 15-15s-6.716-15-15-15c-16.871 0-32.456 5.603-45 15.041v-75.041c0-33.636 26.916-61 60-61 28.308 0 53.618 21.534 58.875 50.089 1.127 6.121 5.916 10.91 12.036 12.037 28.444 5.235 49.089 29.996 49.089 58.874 0 4.101-.576 8.366-1.773 13.173l-23.193 20.616c-6.191 5.503-6.749 14.984-1.245 21.176 5.486 6.172 14.966 6.767 21.177 1.246l18.166-16.147c11.079 8.601 17.868 21.523 17.868 34.936z" fill="url(#SVGID_1_)"/></g></g></g></svg>