<svg id="Capa_1" enable-background="new 0 0 512 512" height="512" viewBox="0 0 512 512" width="512" xmlns="http://www.w3.org/2000/svg" xmlns:xlink="http://www.w3.org/1999/xlink"><linearGradient id="SVGID_1_" gradientUnits="userSpaceOnUse" x1="256" x2="256" y1="512" y2="0"><stop offset="0" stop-color="#fd3a84"/><stop offset="1" stop-color="#ffa68d"/></linearGradient><g><g><g><path d="m348.159 53.271c-17.568-20.961-51.288-53.271-92.159-53.271-40.872 0-74.591 32.31-92.159 53.271-63.516 34.123-102.841 99.636-102.841 171.729 0 55.223 23.084 106.481 62.663 143.02 36.438 33.64 57.337 78.766 57.337 123.807v5.173c0 8.284 6.716 15 15 15h120c8.284 0 15-6.716 15-15v-5.173c0-45.041 20.898-90.167 57.337-123.807 39.617-36.575 62.663-87.852 62.663-143.02 0-72.093-39.325-137.606-102.841-171.729zm19.828 292.706c-39.957 36.889-63.921 85.988-66.713 136.023h-90.549c-2.792-50.036-26.756-99.134-66.713-136.023-33.69-31.102-53.012-75.197-53.012-120.977 0-61.871 34.25-118.021 89.384-146.537 1.828-.945 3.441-2.256 4.74-3.852 10.923-13.413 39.695-44.611 70.876-44.611s59.953 31.198 70.877 44.612c1.299 1.595 2.912 2.906 4.74 3.851 55.133 28.516 89.383 84.666 89.383 146.537 0 45.78-19.322 89.875-53.013 120.977zm-111.987-255.977c-74.439 0-135 60.561-135 135s60.561 135 135 135 135-60.561 135-135-60.561-135-135-135zm0 240c-57.897 0-105-47.103-105-105s47.103-105 105-105 105 47.103 105 105-47.103 105-105 105zm0-180c-33.645 0-60 19.766-60 45s26.355 45 60 45 60-19.766 60-45-26.355-45-60-45zm0 60c-18.313 0-30-8.884-30-15s11.687-15 30-15 30 8.884 30 15-11.687 15-30 15z" fill="url(#SVGID_1_)"/></g></g></g></svg>