<svg id="Capa_1" enable-background="new 0 0 512 512" height="512" viewBox="0 0 512 512" width="512" xmlns="http://www.w3.org/2000/svg" xmlns:xlink="http://www.w3.org/1999/xlink"><linearGradient id="SVGID_1_" gradientUnits="userSpaceOnUse" x1="256" x2="256" y1="512" y2="0"><stop offset="0" stop-color="#00b59c"/><stop offset="1" stop-color="#9cffac"/></linearGradient><g><g><g><path d="m271 75c0-8.284-6.716-15-15-15-41.355 0-75 33.645-75 75v60c0 8.284 6.716 15 15 15s15-6.716 15-15v-60c0-24.813 20.187-45 45-45 8.284 0 15-6.716 15-15zm-15 45c-8.284 0-15 6.716-15 15v60c0 8.284 6.716 15 15 15s15-6.716 15-15v-60c0-8.284-6.716-15-15-15zm60 0c-8.284 0-15 6.716-15 15v60c0 24.813-20.187 45-45 45-8.284 0-15 6.716-15 15s6.716 15 15 15c41.355 0 75-33.645 75-75v-60c0-8.284-6.716-15-15-15zm-60-120c-74.439 0-135 60.561-135 135v362c0 8.284 6.716 15 15 15h240c8.284 0 15-6.716 15-15v-362c0-74.439-60.561-135-135-135zm105 482h-210v-347c0-57.897 47.103-105 105-105s105 47.103 105 105z" fill="url(#SVGID_1_)"/></g></g></g></svg>