<svg id="Capa_1" enable-background="new 0 0 511.983 511.983" height="512" viewBox="0 0 511.983 511.983" width="512" xmlns="http://www.w3.org/2000/svg" xmlns:xlink="http://www.w3.org/1999/xlink"><linearGradient id="SVGID_1_" gradientUnits="userSpaceOnUse" x1="255.991" x2="255.991" y1="511.983" y2="0"><stop offset="0" stop-color="#fd3a84"/><stop offset="1" stop-color="#ffa68d"/></linearGradient><g id="Tongue"><g><g><path d="m478.279 94.168c-9.359-44.583-44.833-80.785-89.026-90.941-23.341-5.364-47.23-4.021-69.081 3.881-41.988 15.187-86.373 15.187-128.361 0-21.852-7.904-45.739-9.245-69.081-3.881-44.229 10.164-79.674 46.389-89.027 90.941-6.212 29.588-1.836 58.792 12.654 84.451 38.063 67.397 58.943 128.703 63.832 187.372l3.977 49.712c4.539 54.466 50.063 96.28 104.637 96.28h74.377c54.536 0 100.094-41.762 104.641-96.329l3.969-49.613c4.893-58.718 25.773-120.024 63.836-187.421 14.489-25.66 18.865-54.863 12.653-84.452zm-38.777 69.699c-40.234 71.244-62.35 136.561-67.613 199.731l-3.969 49.613c-3.213 38.563-36.043 68.771-74.74 68.771h-74.377c-38.697 0-71.527-30.208-74.736-68.722l-3.977-49.711c-5.26-63.122-27.375-128.438-67.609-199.682-10.853-19.217-14.109-41.188-9.418-63.535 6.942-33.063 33.62-60.337 66.386-67.867 7.157-1.645 14.365-2.463 21.501-2.463 10.52 0 20.878 1.78 30.657 5.317 48.664 17.601 100.106 17.602 148.769 0 16.414-5.937 34.45-6.924 52.159-2.854 32.766 7.529 59.443 34.803 66.386 67.867 4.69 22.348 1.434 44.318-9.419 63.535zm-183.511-43.884c-8.284 0-15 6.716-15 15v240c0 8.284 6.716 15 15 15s15-6.716 15-15v-240c0-8.285-6.715-15-15-15z" fill="url(#SVGID_1_)"/></g></g></g></svg>