<svg id="Capa_1" enable-background="new 0 0 512 512" height="512" viewBox="0 0 512 512" width="512" xmlns="http://www.w3.org/2000/svg" xmlns:xlink="http://www.w3.org/1999/xlink"><linearGradient id="SVGID_1_" gradientUnits="userSpaceOnUse" x1="256" x2="256" y1="512" y2="0"><stop offset="0" stop-color="#fd3a84"/><stop offset="1" stop-color="#ffa68d"/></linearGradient><g><g><g><path d="m391 45c0-24.813-20.187-45-45-45s-45 20.187-45 45v16h-90v-16c0-24.813-20.187-45-45-45s-45 20.187-45 45v42.836c0 33.912 6.774 66.832 20.135 97.846 11.234 26.077 26.644 49.66 45.878 70.311-42.023 45.18-66.013 104.944-66.013 168.171v42.836c0 24.813 20.187 45 45 45s45-20.187 45-45v-16h90v16c0 24.813 20.187 45 45 45s45-20.187 45-45v-42.836c0-63.155-23.918-122.96-66.013-168.156 42.023-45.181 66.013-104.945 66.013-168.172zm-90.049 46c-.203 10.193-1.378 20.232-3.478 30h-82.943c-2.105-9.784-3.283-19.824-3.487-30zm-13.183 60c-7.615 17.358-18.35 33.268-31.776 46.917-13.457-13.681-24.168-29.601-31.762-46.917zm-136.768-63.164v-42.836c0-8.271 6.729-15 15-15s15 6.729 15 15v42.836c0 48.139 18.496 94.515 51.952 129.404-7.181 4.943-13.85 9.339-24.198 18.058-36.847-39.841-57.754-92.828-57.754-147.462zm60.049 333.164c.203-10.193 1.378-20.232 3.478-30h82.943c2.105 9.784 3.283 19.824 3.487 30zm13.183-60c7.615-17.358 18.35-33.268 31.776-46.917 13.457 13.681 24.168 29.601 31.762 46.917zm136.768 63.164v42.836c0 8.271-6.729 15-15 15s-15-6.729-15-15v-42.836c0-17.781-2.528-35.246-7.343-51.948-.086-.332-.178-.661-.286-.984-8.394-28.526-23.516-54.774-44.323-76.472 7.181-4.943 13.85-9.339 24.198-18.058 36.847 39.841 57.754 92.828 57.754 147.462zm0-336.328c0 72.746-36.143 140.277-96.68 180.644-6.132 4.088-11.962 8.511-17.497 13.216-.031.024-.06.052-.091.076-27.883 23.73-47.96 54.89-58.138 89.557-.056.171-.106.344-.156.518-4.872 16.775-7.438 34.36-7.438 52.318v42.835c0 8.271-6.729 15-15 15s-15-6.729-15-15v-42.836c0-72.746 36.143-140.277 96.68-180.644 6.134-4.089 11.965-8.513 17.501-13.219.022-.017.043-.037.065-.054 41.95-35.69 65.754-87.741 65.754-142.411v-42.836c0-8.271 6.729-15 15-15s15 6.729 15 15z" fill="url(#SVGID_1_)"/></g></g></g></svg>