<svg id="Capa_1" enable-background="new 0 0 512 512" height="512" viewBox="0 0 512 512" width="512" xmlns="http://www.w3.org/2000/svg" xmlns:xlink="http://www.w3.org/1999/xlink"><linearGradient id="SVGID_1_" gradientUnits="userSpaceOnUse" x1="256" x2="256" y1="512" y2="0"><stop offset="0" stop-color="#a93aff"/><stop offset="1" stop-color="#ff81ff"/></linearGradient><g><g><g><path d="m414.598 62.849c-44.457-40.529-100.782-62.849-158.598-62.849s-114.141 22.32-158.598 62.849c-41.579 37.905-66.402 87.307-66.402 132.151 0 44.75 24.074 80.847 69.62 104.391 35.62 18.413 83.923 28.837 140.38 30.396v167.213c0 8.284 6.716 15 15 15s15-6.716 15-15v-167.212c56.457-1.56 104.76-11.983 140.38-30.396 45.546-23.545 69.62-59.642 69.62-104.392 0-44.844-24.823-94.246-66.402-132.151zm-173.598 155.478-47.83-48.685c11.956-7.992 28.106-15.832 47.83-18.594zm156.604 54.414c-31.488 16.277-75.034 25.545-126.604 27.04v-38.645l70.72-71.963c10 10.93 16.475 22.154 18.583 30.755 1.972 8.045 10.089 12.969 18.139 10.998 8.047-1.972 12.971-10.093 10.998-18.14-9.294-37.922-62.161-92.786-133.44-92.786-65.626 0-122.253 49.452-133.222 92.73-2.035 8.03 2.824 16.19 10.854 18.226 8.028 2.034 16.19-2.821 18.226-10.854 2.407-9.495 9.196-20.592 18.517-30.854l70.625 71.887v38.646c-51.57-1.494-95.116-10.762-126.604-27.04-35.431-18.315-53.396-44.471-53.396-77.741 0-36.549 21.164-77.664 56.613-109.981 38.918-35.479 88.066-55.019 138.387-55.019s99.469 19.54 138.387 55.019c35.449 32.317 56.613 73.432 56.613 109.981 0 33.27-17.965 59.426-53.396 77.741zm-126.604-54.405v-67.279c18.213 2.566 34.409 9.597 47.869 18.568z" fill="url(#SVGID_1_)"/></g></g></g></svg>