<svg id="Capa_1" enable-background="new 0 0 512 512" height="512" viewBox="0 0 512 512" width="512" xmlns="http://www.w3.org/2000/svg" xmlns:xlink="http://www.w3.org/1999/xlink"><linearGradient id="SVGID_1_" gradientUnits="userSpaceOnUse" x1="256" x2="256" y1="512" y2="0"><stop offset="0" stop-color="#fd5900"/><stop offset="1" stop-color="#ffde00"/></linearGradient><g><g><g><path d="m380.267 129.806c7.046-16.613 10.733-34.644 10.733-52.806v-62c0-8.284-6.716-15-15-15h-60c-8.284 0-15 6.716-15 15v62c0 8.48-2.294 16.54-6.673 23.603-13.562 2.417-26.742 8.056-38.327 16.641-11.584-8.585-24.764-14.224-38.327-16.642-4.379-7.063-6.673-15.122-6.673-23.602v-62c0-8.284-6.716-15-15-15h-60c-8.284 0-15 6.716-15 15v62c0 18.162 3.687 36.193 10.733 52.806-27.056 25.081-40.733 62.613-40.733 112.194 0 56.533 17.097 121.958 45.734 175.011 33.064 61.255 75.42 94.989 119.266 94.989 96.974 0 165-161.361 165-270 0-49.581-13.677-87.113-40.733-112.194zm-49.267-52.806v-47h30v47c0 11.95-2.048 23.822-5.99 35.009-5.576-2.955-11.484-5.596-17.76-7.887-3.369-1.229-6.798-2.221-10.266-2.98 2.628-7.734 4.016-15.894 4.016-24.142zm-180-47h30v47c0 8.248 1.388 16.408 4.016 24.141-3.468.76-6.898 1.751-10.266 2.981-6.276 2.291-12.184 4.932-17.76 7.887-3.942-11.187-5.99-23.059-5.99-35.009zm135 362c21.106 0 41.309 6.781 58.003 19.246-24.376 41.653-55.749 70.754-88.003 70.754-45.586 0-89.422-58.112-114.21-127.668 29.293-10.793 53.44-32.25 67.627-60.624 3.705-7.41.701-16.419-6.708-20.125-7.409-3.705-16.42-.701-20.125 6.708-10.505 21.011-28.224 37.01-49.744 45.349-7.545-28.021-11.84-56.825-11.84-83.64 0-58.896 20.348-93.752 64.035-109.696 19.112-6.975 40.613-1.611 56.183 11.483 1.117 18.449 6.763 36.349 16.521 52.138 20.051 32.444 48.277 42.332 51.553 44.492 7.439 3.719 16.434.672 20.125-6.708 3.705-7.41.701-16.42-6.708-20.125-1.635-1.377-47.416-17.306-51.457-70.193 16.201-13.365 37.464-17.746 55.714-11.086 43.686 15.943 64.034 50.799 64.034 109.695 0 46.271-12.769 98.466-33.01 142.339-21.056-14.506-46.006-22.339-71.99-22.339-8.284 0-15 6.716-15 15s6.716 15 15 15z" fill="url(#SVGID_1_)"/></g></g></g></svg>