<svg id="Capa_1" enable-background="new 0 0 512 512" height="512" viewBox="0 0 512 512" width="512" xmlns="http://www.w3.org/2000/svg" xmlns:xlink="http://www.w3.org/1999/xlink"><linearGradient id="SVGID_1_" gradientUnits="userSpaceOnUse" x1="256" x2="256" y1="512" y2="0"><stop offset="0" stop-color="#fd3a84"/><stop offset="1" stop-color="#ffa68d"/></linearGradient><g><g><g><path d="m256 0c-121.182 0-225 110.612-225 255 0 47.557 12.858 99.935 36.205 147.484 23.898 48.671 56.275 86.824 91.167 107.432 5.146 3.038 11.601 2.734 16.436-.773s7.129-9.55 5.839-15.382c-14.757-66.702-29.647-167.539-29.647-242.454v-11.307h75c47.042 0 88.543-24.188 112.719-60.778 14.476 21.089 22.281 46.054 22.281 72.085 0 74.918-14.89 175.754-29.646 242.453-1.291 5.833 1.003 11.875 5.839 15.383 4.803 3.484 11.258 3.831 16.435.773 34.892-20.608 67.269-58.761 91.167-107.432 23.347-47.549 36.205-99.927 36.205-147.484 0-145.658-104.938-255-225-255zm161.865 389.261c-13.92 28.351-30.767 52.533-49.098 70.827 12.004-64.712 22.233-145.561 22.233-208.781 0-37.677-13.234-73.541-37.461-102.018 4.834-13.88 7.461-28.782 7.461-44.289 0-8.284-6.716-15-15-15s-15 6.716-15 15c0 57.897-47.103 105-105 105h-90c-8.284 0-15 6.716-15 15v26.307c0 63.218 10.229 144.068 22.232 208.782-18.331-18.294-35.178-42.476-49.098-70.827-21.367-43.516-33.134-91.198-33.134-134.262 0-124.065 87.477-225 195-225s195 100.935 195 225c0 43.064-11.768 90.746-33.135 134.261z" fill="url(#SVGID_1_)"/></g></g></g></svg>