<svg id="Capa_1" enable-background="new 0 0 512 512" height="512" viewBox="0 0 512 512" width="512" xmlns="http://www.w3.org/2000/svg" xmlns:xlink="http://www.w3.org/1999/xlink"><linearGradient id="SVGID_1_" gradientUnits="userSpaceOnUse" x1="256" x2="256" y1="466" y2="46"><stop offset="0" stop-color="#5558ff"/><stop offset="1" stop-color="#00c0ff"/></linearGradient><g><g><g><path d="m211 301c0 24.813 20.187 45 45 45s45-20.187 45-45c0-7.896-2.079-15.67-6.014-22.482l-23.986-41.538v-31.128c0-50.711 19.748-98.387 55.606-134.246 5.858-5.858 5.858-15.355 0-21.213-5.857-5.858-15.355-5.858-21.213 0-20.519 20.519-36.553 44.516-47.658 71.325-11.104 26.81-16.735 55.117-16.735 84.135v31.128l-23.987 41.539c-3.934 6.812-6.013 14.586-6.013 22.48zm31.993-7.48 13.007-22.524 13.007 22.524c1.322 2.29 1.993 4.807 1.993 7.48 0 8.271-6.729 15-15 15s-15-6.729-15-15c0-2.673.67-5.19 1.993-7.48zm254.007-97.52h-75.746c2.387-47.009 21.826-90.867 55.353-124.394 5.858-5.858 5.858-15.355 0-21.213-5.857-5.858-15.355-5.858-21.213 0-20.519 20.519-36.554 44.516-47.658 71.325-9.844 23.766-15.376 48.71-16.508 74.281h-83.263c-5.359 0-10.313 2.86-12.991 7.501-2.68 4.642-2.679 10.361.003 15.001l25.975 44.964c6.572 11.457 10.048 24.435 10.048 37.535 0 41.355-33.645 75-75 75s-75-33.645-75-75c0-13.103 3.454-26.039 9.971-37.38l26.06-45.117c2.681-4.641 2.682-10.359.002-15.001-2.679-4.642-7.632-7.501-12.991-7.501h-82.788c2.387-47.01 21.826-90.867 55.353-124.394 5.858-5.858 5.858-15.355 0-21.213-5.857-5.858-15.355-5.858-21.213 0-20.519 20.519-36.554 44.516-47.658 71.325-9.845 23.765-15.377 48.709-16.509 74.281h-76.227c-8.284 0-15 6.716-15 15v240c0 8.284 6.716 15 15 15h482c8.284 0 15-6.716 15-15v-240c0-8.284-6.716-15-15-15zm-15 240h-452v-210h148.056l-13.079 22.644c-9.144 15.911-13.977 34.016-13.977 52.356 0 57.897 47.103 105 105 105s105-47.103 105-105c0-18.333-4.853-36.475-14.053-52.503l-12.995-22.497h148.048z" fill="url(#SVGID_1_)"/></g></g></g></svg>