<svg id="Capa_1" enable-background="new 0 0 512 512" height="512" viewBox="0 0 512 512" width="512" xmlns="http://www.w3.org/2000/svg" xmlns:xlink="http://www.w3.org/1999/xlink"><linearGradient id="SVGID_1_" gradientUnits="userSpaceOnUse" x1="256" x2="256" y1="512" y2="0"><stop offset="0" stop-color="#a93aff"/><stop offset="1" stop-color="#ff81ff"/></linearGradient><g><g><g><path d="m417.031 107.033c-18.733-8.947-40.413-7.67-57.991 3.416-17.558 11.072-28.04 30.056-28.04 50.783 0 22.783 13.304 43.247 35.589 54.74 10.422 5.376 18.105 14.382 21.852 25.028h-12.441c-41.355 0-75-33.645-75-75v-151c0-8.284-6.716-15-15-15s-15 6.716-15 15v151c0 38.151 20.455 71.612 50.971 90-30.516 18.388-50.971 51.849-50.971 90v151c0 8.284 6.716 15 15 15s15-6.716 15-15v-151c0-41.355 33.645-75 75-75h12.441c-3.747 10.646-11.43 19.652-21.852 25.028-22.285 11.493-35.589 31.957-35.589 54.74 0 20.727 10.482 39.711 28.04 50.783 9.819 6.192 20.914 9.323 32.063 9.323 8.813 0 17.659-1.958 25.929-5.908 57.691-27.553 94.968-86.027 94.968-148.966s-37.277-121.413-94.969-148.967zm-12.928 270.863c-9.523 4.548-20.115 3.921-29.061-1.721-8.924-5.627-14.042-14.888-14.042-25.407 0-11.335 7.23-21.832 19.341-28.078 25.079-12.936 40.659-38.49 40.659-66.69s-15.58-53.754-40.659-66.69c-12.111-6.247-19.341-16.743-19.341-28.078 0-10.519 5.118-19.78 14.042-25.407 4.988-3.146 10.487-4.732 16.028-4.732 4.397 0 8.819 1 13.032 3.012 47.321 22.601 77.898 70.447 77.898 121.895s-30.577 99.294-77.897 121.896zm-178.103-377.896c-8.284 0-15 6.716-15 15v151c0 41.355-33.645 75-75 75h-12.441c3.747-10.646 11.43-19.652 21.852-25.028 22.285-11.493 35.589-31.957 35.589-54.74 0-20.727-10.482-39.711-28.04-50.783-17.58-11.086-39.259-12.363-57.992-3.416-57.691 27.554-94.968 86.028-94.968 148.967s37.277 121.413 94.969 148.967c8.271 3.95 17.115 5.907 25.928 5.907 11.148 0 22.246-3.132 32.063-9.323 17.558-11.072 28.04-30.056 28.04-50.783 0-22.783-13.304-43.247-35.589-54.74-10.422-5.376-18.105-14.382-21.852-25.028h12.441c41.355 0 75 33.645 75 75v151c0 8.284 6.716 15 15 15s15-6.716 15-15v-151c0-38.151-20.455-71.612-50.971-90 30.516-18.388 50.971-51.849 50.971-90v-151c0-8.284-6.716-15-15-15zm-94.341 322.69c12.111 6.247 19.341 16.743 19.341 28.078 0 10.519-5.118 19.78-14.042 25.407-8.946 5.642-19.539 6.268-29.06 1.721-47.321-22.602-77.898-70.448-77.898-121.896s30.577-99.294 77.897-121.896c4.214-2.013 8.635-3.012 13.033-3.012 5.54 0 11.041 1.587 16.028 4.732 8.924 5.627 14.042 14.888 14.042 25.407 0 11.335-7.23 21.832-19.341 28.078-25.079 12.937-40.659 38.491-40.659 66.691s15.58 53.754 40.659 66.69z" fill="url(#SVGID_1_)"/></g></g></g></svg>