<svg id="Capa_1" enable-background="new 0 0 512 512" height="512" viewBox="0 0 512 512" width="512" xmlns="http://www.w3.org/2000/svg" xmlns:xlink="http://www.w3.org/1999/xlink"><linearGradient id="SVGID_1_" gradientUnits="userSpaceOnUse" x1="256" x2="256" y1="512" y2="0"><stop offset="0" stop-color="#00b59c"/><stop offset="1" stop-color="#9cffac"/></linearGradient><g><g><g><path d="m497 150c8.284 0 15-6.716 15-15v-30c0-24.813-20.187-45-45-45h-15v-15c0-8.271 6.729-15 15-15 8.284 0 15-6.716 15-15s-6.716-15-15-15c-24.813 0-45 20.187-45 45v30c0 8.271-6.729 15-15 15h-30c-.013 0-.026.002-.04.002-13.696-18.205-35.475-30.002-59.96-30.002h-16v-45c0-8.284-6.716-15-15-15h-60c-8.284 0-15 6.716-15 15v165h-46c-24.813 0-45-20.187-45-45v-45h15c24.813 0 45-20.187 45-45v-30c0-8.284-6.716-15-15-15s-15 6.716-15 15v30c0 8.271-6.729 15-15 15h-16.509c-6.969-34.192-37.272-60-73.491-60h-30c-8.284 0-15 6.716-15 15s6.716 15 15 15h30c24.813 0 45 20.187 45 45v45h-15c-24.813 0-45 20.187-45 45v30c0 8.271-6.729 15-15 15-8.284 0-15 6.716-15 15s6.716 15 15 15c24.813 0 45-20.187 45-45v-30c0-8.271 6.729-15 15-15h16.509c6.968 34.192 37.272 60 73.491 60h46v212h-16c-24.813 0-45-20.187-45-45v-30c0-41.355-33.645-75-75-75-8.284 0-15 6.716-15 15s6.716 15 15 15c24.813 0 45 20.187 45 45v30c0 5.136.521 10.152 1.509 15h-16.509c-19.555 0-36.228 12.542-42.42 30h-17.58c-8.271 0-15-6.729-15-15v-30c0-8.284-6.716-15-15-15s-15 6.716-15 15v30c0 24.813 20.187 45 45 45h15v15c0 8.271-6.729 15-15 15-8.284 0-15 6.716-15 15s6.716 15 15 15c24.813 0 45-20.187 45-45v-30c0-8.271 6.729-15 15-15h30c.013 0 .026-.002.04-.002 13.696 18.205 35.475 30.002 59.96 30.002h16v45c0 8.284 6.716 15 15 15h60c8.284 0 15-6.716 15-15v-165h46c24.813 0 45 20.187 45 45v45h-15c-24.813 0-45 20.187-45 45v30c0 8.284 6.716 15 15 15s15-6.716 15-15v-30c0-8.271 6.729-15 15-15h16.509c6.968 34.192 37.271 60 73.491 60h30c8.284 0 15-6.716 15-15s-6.716-15-15-15h-30c-24.813 0-45-20.187-45-45v-45h15c24.813 0 45-20.187 45-45v-30c0-8.271 6.729-15 15-15 8.284 0 15-6.716 15-15s-6.716-15-15-15c-24.813 0-45 20.187-45 45v30c0 8.271-6.729 15-15 15h-16.509c-6.968-34.192-37.271-60-73.491-60h-46v-212h16c24.813 0 45 20.187 45 45v30c0 41.355 33.645 75 75 75 8.284 0 15-6.716 15-15s-6.716-15-15-15c-24.813 0-45-20.187-45-45v-30c0-5.136-.521-10.152-1.509-15h16.509c19.555 0 36.228-12.542 42.42-30h17.58c8.271 0 15 6.729 15 15v30c0 8.284 6.716 15 15 15zm-226 332h-30v-452h30z" fill="url(#SVGID_1_)"/></g></g></g></svg>