<svg id="Capa_1" enable-background="new 0 0 512 512" height="512" viewBox="0 0 512 512" width="512" xmlns="http://www.w3.org/2000/svg" xmlns:xlink="http://www.w3.org/1999/xlink"><linearGradient id="SVGID_1_" gradientUnits="userSpaceOnUse" x1="256" x2="256" y1="512" y2="0"><stop offset="0" stop-color="#fd3a84"/><stop offset="1" stop-color="#ffa68d"/></linearGradient><g><g><g><path d="m296.444 195c0-24.813-20.187-45-45-45s-45 20.187-45 45 20.187 45 45 45c24.814 0 45-20.187 45-45zm-45 15c-8.271 0-15-6.729-15-15s6.729-15 15-15 15 6.729 15 15-6.729 15-15 15zm195 227c0-8.284-6.716-15-15-15s-15 6.716-15 15c0 8.271-6.729 15-15 15h-60c-41.355 0-75-33.645-75-75v-29.111l16.836-42.091c7.743-19.358 27.558-30.804 48.2-27.828l37.939 5.466 8.421 31.427c2.142 7.992 10.362 12.755 18.371 10.606 8.002-2.144 12.751-10.369 10.607-18.371l-7.099-26.492 26.492-7.099c8.002-2.144 12.75-10.369 10.606-18.371s-10.368-12.752-18.372-10.606l-31.426 8.421-23.704-30.124c-12.894-16.385-12.894-39.271 0-55.655l23.704-30.124 31.426 8.421c8.053 2.158 16.241-2.655 18.372-10.606 2.144-8.002-2.604-16.227-10.606-18.371l-26.492-7.099 7.099-26.492c2.144-8.002-2.605-16.227-10.607-18.371-7.992-2.144-16.227 2.604-18.371 10.606l-8.421 31.427-37.94 5.466c-20.634 2.974-40.455-8.47-48.199-27.828l-14.236-35.59 23.006-23.006c5.858-5.858 5.858-15.355 0-21.213-5.857-5.858-15.355-5.858-21.213 0l-19.394 19.393-19.392-19.391c-5.857-5.858-15.355-5.858-21.213 0s-5.858 15.355 0 21.213l23.006 23.006-14.236 35.59c-7.743 19.358-27.564 30.801-48.199 27.828l-37.939-5.466-8.421-31.427c-2.144-8.001-10.367-12.753-18.371-10.606-8.002 2.144-12.75 10.369-10.606 18.371l7.099 26.492-26.492 7.099c-8.002 2.144-12.75 10.369-10.606 18.371 2.137 7.977 10.345 12.758 18.371 10.606l31.427-8.421 23.704 30.124c12.893 16.384 12.893 39.271 0 55.655l-23.704 30.124-31.427-8.421c-8.005-2.145-16.228 2.605-18.371 10.606-2.144 8.002 2.604 16.227 10.606 18.371l26.492 7.099-7.099 26.492c-2.144 8.002 2.604 16.227 10.606 18.371 8.051 2.158 16.24-2.654 18.371-10.606l8.421-31.427 37.939-5.466c20.635-2.97 40.456 8.47 48.199 27.828l16.836 42.091v29.109c0 57.897 47.103 105 105 105h60c8.271 0 15 6.729 15 15 0 8.284 6.716 15 15 15s15-6.716 15-15c0-11.517-4.354-22.032-11.495-30 7.142-7.968 11.495-18.483 11.495-30zm-195-132.389-3.982-9.955c-12.929-32.322-46-51.328-80.332-46.379l-10.612 1.529 6.63-8.426c21.488-27.308 21.488-65.451 0-92.759l-6.63-8.426 10.612 1.529c34.391 4.955 67.427-14.116 80.332-46.379l3.982-9.955 3.982 9.955c12.928 32.321 45.999 51.329 80.332 46.379l10.613-1.529-6.631 8.426c-21.488 27.308-21.488 65.451 0 92.759l6.631 8.426-10.612-1.529c-34.399-4.955-67.428 14.116-80.333 46.379z" fill="url(#SVGID_1_)"/></g></g></g></svg>