<svg id="Capa_1" enable-background="new 0 0 512 512" height="512" viewBox="0 0 512 512" width="512" xmlns="http://www.w3.org/2000/svg" xmlns:xlink="http://www.w3.org/1999/xlink"><linearGradient id="SVGID_1_" gradientUnits="userSpaceOnUse" x1="256" x2="256" y1="481" y2="31"><stop offset="0" stop-color="#fd3a84"/><stop offset="1" stop-color="#ffa68d"/></linearGradient><g><g><g><path d="m505.523 136c4.302-9.589 6.477-19.646 6.477-30 0-20.038-8.022-38.914-22.588-53.153-14.413-14.088-33.382-21.847-53.412-21.847-10.353 0-20.411 2.175-30 6.477-9.589-4.302-19.647-6.477-30-6.477s-20.411 2.175-30 6.477c-9.589-4.302-19.647-6.477-30-6.477s-20.411 2.175-30 6.477c-9.589-4.302-19.647-6.477-30-6.477s-20.411 2.175-30 6.477c-9.589-4.302-19.647-6.477-30-6.477s-20.411 2.175-30 6.477c-9.589-4.302-19.647-6.477-30-6.477s-20.411 2.175-30 6.477c-9.589-4.302-19.647-6.477-30-6.477-20.03 0-38.999 7.759-53.412 21.847-14.566 14.239-22.588 33.115-22.588 53.153 0 10.353 2.175 20.411 6.477 30-4.302 9.589-6.477 19.647-6.477 30s2.175 20.411 6.477 30c-4.302 9.589-6.477 19.647-6.477 30s2.175 20.411 6.477 30c-4.302 9.589-6.477 19.647-6.477 30s2.175 20.411 6.477 30c-4.302 9.589-6.477 19.647-6.477 30 0 41.465 34.542 75 76 75 41.355 0 75-33.645 75-75 0-10.353-2.175-20.411-6.477-30 4.302-9.589 6.477-19.647 6.477-30s-2.175-20.411-6.477-30c4.302-9.589 6.477-19.647 6.477-30s-2.175-20.411-6.477-30c2.378-5.3 4.106-10.744 5.176-16.301 5.558-1.07 11.001-2.798 16.301-5.176 9.589 4.302 19.646 6.477 30 6.477s20.411-2.174 30-6.477c9.589 4.302 19.646 6.477 30 6.477s20.411-2.174 30-6.477c9.589 4.302 19.646 6.477 30 6.477s20.411-2.174 30-6.477c5.3 2.378 10.744 4.105 16.301 5.176 1.07 5.557 2.798 11 5.176 16.301-4.302 9.589-6.477 19.647-6.477 30s2.175 20.411 6.477 30c-4.302 9.589-6.477 19.647-6.477 30 0 5.078.523 10.085 1.564 15h-16.564c-74.439 0-135 60.561-135 135v30c0 8.284 6.716 15 15 15h60c8.284 0 15-6.716 15-15v-30c0-24.813 20.187-45 45-45h30.311c14.085 18.694 36.235 30 59.689 30 41.465 0 76-33.542 76-75 0-10.354-2.174-20.411-6.477-30 4.302-9.589 6.477-19.646 6.477-30s-2.174-20.411-6.477-30c4.302-9.589 6.477-19.646 6.477-30s-2.174-20.411-6.477-30c4.302-9.589 6.477-19.646 6.477-30s-2.174-20.411-6.477-30zm-29.809 7.546c4.171 7.165 6.286 14.72 6.286 22.454s-2.115 15.289-6.286 22.454c-2.715 4.665-2.715 10.428 0 15.093 4.171 7.164 6.286 14.719 6.286 22.453s-2.115 15.289-6.286 22.454c-2.715 4.665-2.715 10.428 0 15.093 4.171 7.164 6.286 14.719 6.286 22.453s-2.115 15.289-6.286 22.454c-2.715 4.665-2.715 10.428 0 15.093 4.171 7.164 6.286 14.719 6.286 22.453 0 24.393-21.065 45-46 45-16.025 0-30.498-8.428-38.713-22.545-2.686-4.616-7.624-7.455-12.964-7.455h-38.323c-41.355 0-75 33.645-75 75v15h-30v-15c0-57.897 47.103-105 105-105h38.322c5.369 0 10.328-2.869 13.003-7.523 2.676-4.654 2.661-10.383-.04-15.023-4.17-7.166-6.285-14.721-6.285-22.454s2.115-15.288 6.286-22.454c2.715-4.664 2.715-10.428 0-15.092-4.171-7.166-6.286-14.721-6.286-22.454s2.115-15.288 6.286-22.454c2.715-4.664 2.715-10.428 0-15.092-4.171-7.166-6.286-14.721-6.286-22.454 0-8.284-6.716-15-15-15-7.734 0-15.289-2.115-22.454-6.286-4.664-2.716-10.429-2.716-15.093 0-7.164 4.171-14.719 6.286-22.453 6.286s-15.289-2.115-22.454-6.286c-4.664-2.716-10.429-2.716-15.093 0-7.164 4.171-14.719 6.286-22.453 6.286s-15.289-2.115-22.454-6.286c-4.664-2.716-10.429-2.716-15.093 0-7.164 4.171-14.719 6.286-22.453 6.286s-15.289-2.115-22.454-6.286c-4.664-2.716-10.429-2.716-15.093 0-7.164 4.171-14.719 6.286-22.453 6.286-8.284 0-15 6.716-15 15 0 7.733-2.115 15.288-6.286 22.454-2.715 4.664-2.715 10.428 0 15.092 4.171 7.166 6.286 14.721 6.286 22.454s-2.115 15.288-6.286 22.454c-2.715 4.664-2.715 10.428 0 15.092 4.171 7.166 6.286 14.721 6.286 22.454s-2.115 15.288-6.286 22.454c-2.715 4.664-2.715 10.428 0 15.092 4.171 7.166 6.286 14.721 6.286 22.454 0 24.813-20.187 45-45 45-24.935 0-46-20.607-46-45 0-7.733 2.115-15.288 6.286-22.454 2.715-4.664 2.715-10.428 0-15.092-4.171-7.166-6.286-14.721-6.286-22.454s2.115-15.288 6.286-22.454c2.715-4.664 2.715-10.428 0-15.092-4.171-7.166-6.286-14.721-6.286-22.454s2.115-15.288 6.286-22.454c2.715-4.664 2.715-10.428 0-15.092-4.171-7.166-6.286-14.721-6.286-22.454s2.115-15.288 6.286-22.454c2.715-4.664 2.715-10.428 0-15.092-4.171-7.166-6.286-14.721-6.286-22.454 0-24.393 21.065-45 46-45 7.733 0 15.288 2.115 22.454 6.286 4.664 2.715 10.428 2.715 15.092 0 7.166-4.171 14.721-6.286 22.454-6.286s15.288 2.115 22.454 6.286c4.664 2.715 10.428 2.715 15.092 0 7.166-4.171 14.721-6.286 22.454-6.286s15.288 2.115 22.454 6.286c4.664 2.715 10.428 2.715 15.092 0 7.166-4.171 14.721-6.286 22.454-6.286s15.288 2.115 22.454 6.286c4.664 2.715 10.428 2.715 15.092 0 7.166-4.171 14.721-6.286 22.454-6.286s15.288 2.115 22.454 6.286c4.664 2.715 10.428 2.715 15.092 0 7.166-4.171 14.721-6.286 22.454-6.286s15.288 2.115 22.454 6.286c4.664 2.715 10.428 2.715 15.092 0 7.166-4.171 14.721-6.286 22.454-6.286 24.935 0 46 20.607 46 45 0 7.734-2.115 15.289-6.286 22.454-2.715 4.664-2.715 10.428 0 15.092z" fill="url(#SVGID_1_)"/></g></g></g></svg>