<svg id="Capa_1" enable-background="new 0 0 512 512" height="512" viewBox="0 0 512 512" width="512" xmlns="http://www.w3.org/2000/svg" xmlns:xlink="http://www.w3.org/1999/xlink"><linearGradient id="SVGID_1_" gradientUnits="userSpaceOnUse" x1="256" x2="256" y1="512" y2="0"><stop offset="0" stop-color="#fd3a84"/><stop offset="1" stop-color="#ffa68d"/></linearGradient><g><g><g><path d="m256 181c8.284 0 15-6.716 15-15s-6.716-15-15-15-15 6.716-15 15 6.716 15 15 15zm87.1-89.071c-37.922-51.758-75.351-86.498-76.926-87.952-5.746-5.304-14.602-5.304-20.348 0-1.575 1.454-39.003 36.193-76.926 87.952-40.405 55.147-77.9 125.078-77.9 194.071 0 64.771 32.982 121.035 79.585 166 38.608 37.25 76.854 57.45 78.463 58.292 2.177 1.139 4.564 1.708 6.952 1.708s4.774-.569 6.952-1.708c1.609-.842 39.855-21.041 78.463-58.292 46.612-44.973 79.585-101.238 79.585-166 0-68.979-37.48-138.903-77.9-194.071zm-21.957 337.942c-26.26 25.458-52.89 42.591-65.143 49.874-12.259-7.286-38.885-24.417-65.144-49.874-46.352-44.937-69.856-93.342-69.856-143.871 0-104.756 101.993-216.559 135.006-249.997 33.03 33.419 134.994 145.099 134.994 249.997 0 50.529-23.503 98.934-69.857 143.871zm-65.142-210.316c-5.246 0-10.11 2.739-12.829 7.225-21.348 35.22-32.172 65.238-32.172 89.22 0 22.532 11.463 46.151 34.071 70.201 2.835 3.016 6.79 4.726 10.929 4.726s8.094-1.71 10.929-4.726c22.608-24.049 34.071-47.669 34.071-70.201 0-23.971-10.824-53.988-32.171-89.219-2.719-4.485-7.582-7.226-12.828-7.226zm-.001 133.134c-9.859-13.258-15-25.756-15-36.688 0-13.266 5.135-30.436 14.999-50.433 9.865 20.003 15.001 37.172 15.001 50.432 0 10.932-5.141 23.431-15 36.689z" fill="url(#SVGID_1_)"/></g></g></g></svg>