<svg id="Capa_1" enable-background="new 0 0 512 512" height="512" viewBox="0 0 512 512" width="512" xmlns="http://www.w3.org/2000/svg" xmlns:xlink="http://www.w3.org/1999/xlink"><linearGradient id="SVGID_1_" gradientUnits="userSpaceOnUse" x1="256" x2="256" y1="512" y2="0"><stop offset="0" stop-color="#a93aff"/><stop offset="1" stop-color="#ff81ff"/></linearGradient><g><g><g><path d="m421.014 0h-60c-8.284 0-15 6.716-15 15v136h-15.004c-41.913 0-83.462 13.849-116.995 38.996l-95.948 71.956c-52.621 39.464-56.078 115.85-9.322 160.222 41.046 38.952 108.23 40.138 149.213-6.572 18.092-20.619 28.055-47.146 28.055-74.696v-54.906c0-24.813 20.187-45 45-45h15v256c0 8.284 6.716 15 15 15h60c8.284 0 15-6.716 15-15v-482c.001-8.284-6.715-15-14.999-15zm-15 482h-30v-256c0-8.284-6.716-15-15-15h-30c-41.355 0-75 33.645-75 75v45.905c-4.973-.591-9.98-.905-15-.905-8.284 0-15 6.716-15 15s6.716 15 15 15c4.122 0 8.233.271 12.311.791-8.428 32.444-35.826 57.403-68.256 59.102-14.45.758-28.386-2.517-40.599-9.362 7.96-8.557 14.647-18.195 19.96-28.823 3.705-7.41.701-16.42-6.708-20.125-7.41-3.705-16.42-.702-20.125 6.708-4.195 8.392-9.52 15.968-15.89 22.649-10.186-13.069-15.694-29.022-15.694-45.941 0-23.837 10.954-45.724 30.053-60.048l7.893-5.919c14.184 12.525 26.67 17.318 30.345 19.384 7.439 3.719 16.434.672 20.125-6.708 3.705-7.41.701-16.42-6.708-20.125-4.334-2.318-10.728-4.78-19.067-11.07l63.36-47.516c28.374-21.278 63.532-32.997 98.996-32.997h30.004c8.284 0 15-6.716 15-15v-136h30z" fill="url(#SVGID_1_)"/></g></g></g></svg>