<svg id="Capa_1" enable-background="new 0 0 512.043 512.043" height="512" viewBox="0 0 512.043 512.043" width="512" xmlns="http://www.w3.org/2000/svg" xmlns:xlink="http://www.w3.org/1999/xlink"><linearGradient id="SVGID_1_" gradientUnits="userSpaceOnUse" x1="256.022" x2="256.022" y1="481.032" y2="31.011"><stop offset="0" stop-color="#00b59c"/><stop offset="1" stop-color="#9cffac"/></linearGradient><g><g><g><path d="m153.975 390.793c-4.656 1.255-23.727-.486-43.488-20.248-19.76-19.761-21.502-38.83-20.247-43.487 4.872-5.893 4.55-14.636-.966-20.152-5.857-5.858-15.355-5.858-21.213 0-8.045 8.045-10.234 22.271-6.005 39.031 2.864 11.351 9.91 28.514 27.218 45.823 20.708 20.708 44.259 29.329 61.646 29.329 9.757 0 17.851-2.76 23.206-8.115 5.858-5.858 5.858-15.355 0-21.213-5.515-5.518-14.258-5.841-20.151-.968zm41.365-105.101c-24.945-24.945-55.886-41.14-87.125-45.603-32.835-4.691-62.162 3.971-82.581 24.39s-29.08 49.747-24.389 82.581c4.462 31.238 20.658 62.18 45.603 87.125s55.886 41.14 87.125 45.603c5.83.833 11.547 1.245 17.126 1.245 25.84 0 48.662-8.841 65.455-25.634 20.419-20.418 29.081-49.746 24.39-82.581-4.463-31.239-20.659-62.181-45.604-87.126zm0 148.493c-28.086 28.086-85.153 20.913-127.28-21.213-43.529-43.529-48.307-100.185-21.213-127.279 2.594-2.594 20.244-21.174 57.125-15.905 24.854 3.551 49.769 16.733 70.154 37.118 43.53 43.529 48.308 100.185 21.214 127.279zm195.682-298.174c0-28.876-14.613-55.739-41.147-75.64-25.245-18.933-58.576-29.36-93.853-29.36s-68.608 10.427-93.853 29.36c-26.534 19.901-41.147 46.763-41.147 75.64s14.613 55.739 41.147 75.64c25.245 18.933 58.576 29.36 93.853 29.36s68.608-10.427 93.853-29.36c26.534-19.901 41.147-46.764 41.147-75.64zm-135 75c-61.56 0-105-36.683-105-75 0-38.261 43.472-75 105-75 61.56 0 105 36.683 105 75 0 38.261-43.473 75-105 75zm230.387 53.468c-20.419-20.419-49.746-29.081-82.581-24.39-31.238 4.462-62.18 20.658-87.125 45.603s-41.141 55.886-45.603 87.125c-4.691 32.834 3.971 62.162 24.39 82.581 16.794 16.794 39.612 25.634 65.455 25.634 5.577 0 11.298-.412 17.126-1.245 31.238-4.462 62.18-20.658 87.125-45.603s41.141-55.886 45.603-87.125c4.69-32.833-3.971-62.161-24.39-82.58zm-42.426 148.493c-43.53 43.529-100.186 48.307-127.28 21.213-27.054-27.054-22.292-83.773 21.213-127.279 43.53-43.529 100.186-48.306 127.28-21.213 27.054 27.054 22.292 83.772-21.213 127.279zm-127.961-291.961c-7.801 0-14.211 5.955-14.933 13.567-2.406 4.18-17.122 16.433-45.067 16.433s-42.662-12.253-45.067-16.433c-.722-7.612-7.132-13.567-14.933-13.567-8.284 0-15 6.716-15 15 0 11.377 8.512 22.984 23.352 31.845 10.051 6.001 27.171 13.155 51.648 13.155s41.597-7.154 51.648-13.155c14.84-8.861 23.352-20.468 23.352-31.845 0-8.284-6.716-15-15-15zm106.747 185.894c-5.516 5.516-5.838 14.26-.966 20.152 1.255 4.657-.487 23.727-20.247 43.487-19.763 19.763-38.833 21.503-43.488 20.248-5.893-4.873-14.636-4.55-20.152.966-5.857 5.858-5.857 15.355 0 21.213 5.355 5.355 13.448 8.115 23.206 8.115 17.412 0 40.958-8.64 61.646-29.329 17.308-17.308 24.354-34.472 27.218-45.823 4.229-16.76 2.04-30.986-6.005-39.031-5.856-5.855-15.354-5.855-21.212.002z" fill="url(#SVGID_1_)"/></g></g></g></svg>