<svg id="Capa_1" enable-background="new 0 0 512 512" height="512" viewBox="0 0 512 512" width="512" xmlns="http://www.w3.org/2000/svg" xmlns:xlink="http://www.w3.org/1999/xlink"><linearGradient id="SVGID_1_" gradientUnits="userSpaceOnUse" x1="256" x2="256" y1="512" y2="0"><stop offset="0" stop-color="#fd3a84"/><stop offset="1" stop-color="#ffa68d"/></linearGradient><g><g><g><path d="m408.418 322.532c-30.129-22.265-47.409-54.242-47.409-87.731v-129.801c0-57.897-47.103-105-105-105s-105 47.103-105 105v129.804c0 33.561-17.229 65.498-47.27 87.622-38.338 28.235-52.663 77.672-35.646 123.02 11.358 30.268 37.831 54.29 69.087 62.691 27.208 7.314 55.536 3.965 79.355-9.087 10.682 7.536 23.31 12.95 39.475 12.95 16.169 0 28.798-5.416 39.482-12.955 23.351 12.794 51.661 16.583 79.534 9.042 31.307-8.47 57.757-32.596 69.029-62.963 16.771-45.181 2.449-94.447-35.637-122.592zm7.512 112.152c-7.956 21.432-26.631 38.462-48.739 44.444-16.414 4.441-32.834 3.714-47.689-1.916 15.158-15.635 25.333-25.212 41.507-25.212 8.284 0 15-6.716 15-15s-6.716-15-15-15c-29.784 0-47.575 18.362-63.272 34.562-15.282 15.772-25.474 25.438-41.728 25.438s-26.445-9.666-41.728-25.438c-15.697-16.2-33.488-34.562-63.272-34.562-8.284 0-15 6.716-15 15s6.716 15 15 15c16.174 0 26.349 9.577 41.507 25.211-14.812 5.613-31.182 6.353-47.549 1.953-22.075-5.934-40.769-22.893-48.786-44.259-12.249-32.642-2.063-68.136 25.349-88.324 37.8-27.839 59.48-68.58 59.48-111.778v-129.803c0-41.355 33.645-75 75-75s75 33.645 75 75v129.801c0 43.107 21.716 83.878 59.58 111.858 27.23 20.123 37.414 55.498 25.34 88.025z" fill="url(#SVGID_1_)"/></g></g></g></svg>