<svg id="Capa_1" enable-background="new 0 0 512 512" height="512" viewBox="0 0 512 512" width="512" xmlns="http://www.w3.org/2000/svg" xmlns:xlink="http://www.w3.org/1999/xlink"><linearGradient id="SVGID_1_" gradientUnits="userSpaceOnUse" x1="256" x2="256" y1="512" y2="0"><stop offset="0" stop-color="#00b59c"/><stop offset="1" stop-color="#9cffac"/></linearGradient><g><g><g><path d="m105 180c-24.813 0-45 20.187-45 45s20.187 45 45 45 45-20.187 45-45-20.187-45-45-45zm0 60c-8.271 0-15-6.729-15-15s6.729-15 15-15 15 6.729 15 15-6.729 15-15 15zm398.737-73.769c-8.458-21.527-22.891-40.082-41.74-53.657-30.986-22.316-46.68-57.056-40.958-90.662.044-2.141 3.265-9.666-2.577-16.587-2.85-3.377-7.044-5.325-11.462-5.325h-302c-4.418 0-8.612 1.948-11.462 5.324-5.85 6.93-2.622 14.392-2.577 16.587 5.722 33.606-9.972 68.346-40.958 90.662-18.85 13.576-33.283 32.13-41.74 53.657-8.894 22.639-10.637 47.484-5.042 71.851 9.845 42.871 44.062 77.633 86.779 88.222v41.614c0 42.265-10.092 85.725-28.417 122.374-2.325 4.65-2.076 10.172.657 14.594 2.733 4.423 7.561 7.115 12.76 7.115h362c5.199 0 10.027-2.692 12.76-7.114s2.981-9.944.657-14.594c-18.325-36.649-28.417-80.109-28.417-122.374v-41.614c20.619-5.111 39.61-15.898 55.018-31.313 15.876-15.881 26.859-35.561 31.762-56.91 5.595-24.366 3.851-49.211-5.043-71.85zm-24.197 65.136c-7.39 32.18-33.971 58.771-66.144 66.168-27.555 6.334-55.746.104-77.347-17.093-21.639-17.229-34.049-42.903-34.049-70.442 0-8.284-6.716-15-15-15s-15 6.716-15 15c0 36.729 16.534 70.958 45.363 93.912 21.407 17.043 47.6 26.018 74.637 26.051v37.955c0 38.751 7.68 78.457 21.869 114.082h-315.738c14.189-35.625 21.869-75.331 21.869-114.082v-37.959c27.036-.034 53.231-9.004 74.637-26.047 28.829-22.954 45.363-57.183 45.363-93.912 0-8.284-6.716-15-15-15s-15 6.716-15 15c0 27.539-12.41 53.213-34.049 70.442-21.601 17.198-49.792 23.428-77.346 17.093-32.173-7.397-58.755-33.988-66.145-66.168-8.41-36.62 5.031-72.811 35.075-94.449 36.43-26.238 56.524-66.282 54.448-106.918h268.034c-2.076 40.637 18.018 80.68 54.448 106.917 30.044 21.639 43.485 57.83 35.075 94.45zm-72.54-51.367c-24.813 0-45 20.187-45 45s20.187 45 45 45 45-20.187 45-45-20.187-45-45-45zm0 60c-8.271 0-15-6.729-15-15s6.729-15 15-15 15 6.729 15 15-6.729 15-15 15z" fill="url(#SVGID_1_)"/></g></g></g></svg>