<svg id="Capa_1" enable-background="new 0 0 512 512" height="512" viewBox="0 0 512 512" width="512" xmlns="http://www.w3.org/2000/svg" xmlns:xlink="http://www.w3.org/1999/xlink"><linearGradient id="SVGID_1_" gradientUnits="userSpaceOnUse" x1="256" x2="256" y1="512" y2="0"><stop offset="0" stop-color="#fd5900"/><stop offset="1" stop-color="#ffde00"/></linearGradient><g><g><g><path d="m457.959 253.458c-4.653-19.134-15.597-46.689-32.528-81.899-25.26-52.533-55.688-97.161-51.206-155.408.321-4.166-1.111-8.277-3.95-11.342-2.838-3.066-6.827-4.809-11.005-4.809h-206.532c-4.179 0-8.169 1.744-11.008 4.811s-4.27 7.18-3.947 11.347c3.713 47.999-16.708 87.792-38.064 129.881-19.313 38.064-37.555 74.017-45.677 107.419-20.799 85.531-7.992 174.685 36.062 251.039 2.679 4.643 7.632 7.503 12.993 7.503h93.231c7.081 0 13.197-4.952 14.671-11.877.128-.6 12.346-58.044 21.004-101.613 9.463-7.69 17.568-16.99 23.889-27.481 6.617 10.981 15.182 20.661 25.219 28.552l20.073 100.362c1.402 7.011 7.558 12.058 14.708 12.058h93.014c5.36 0 10.313-2.861 12.993-7.503 44.052-76.355 56.86-165.509 36.06-251.04zm-57.852 228.542h-71.919l-12.912-64.557c9.69 2.959 19.969 4.557 30.615 4.557 8.284 0 15-6.716 15-15s-6.716-15-15-15c-41.355 0-75-33.645-75-75 0-31.739 20.093-60.166 49.999-70.736 7.811-2.761 11.905-11.331 9.144-19.141-2.76-7.811-11.332-11.902-19.141-9.144-23.52 8.313-42.703 24.514-55.001 44.992-12.298-20.478-31.482-36.679-55.001-44.992-7.81-2.76-16.38 1.333-19.141 9.144s1.333 16.38 9.144 19.141c29.906 10.57 49.999 38.997 49.999 70.736 0 41.355-33.645 75-75 75-8.284 0-15 6.716-15 15s6.716 15 15 15c11.068 0 21.739-1.727 31.764-4.916-5.115 25.09-10.451 50.527-13.486 64.916h-72.276c-36.784-67.942-46.995-146.237-28.704-221.454 7.3-30.021 24.777-64.466 43.28-100.934 20.018-39.455 40.98-79.25 41.724-129.613h175.592c.413 33.101 10.117 66.566 31.112 108.561.051.102 43.742 80.177 53.909 121.985 18.292 75.219 8.081 153.514-28.701 221.455z" fill="url(#SVGID_1_)"/></g></g></g></svg>