<svg id="Capa_1" enable-background="new 0 0 511.941 511.941" height="512" viewBox="0 0 511.941 511.941" width="512" xmlns="http://www.w3.org/2000/svg" xmlns:xlink="http://www.w3.org/1999/xlink"><linearGradient id="SVGID_1_" gradientUnits="userSpaceOnUse" x1="255.971" x2="255.971" y1="511.941" y2="0"><stop offset="0" stop-color="#5558ff"/><stop offset="1" stop-color="#00c0ff"/></linearGradient><g><g><g><path d="m398.659 120c-5.258 0-10.305.915-15 2.58v-17.58c0-24.813-20.187-45-45-45-5.258 0-10.305.915-15 2.58v-17.58c0-24.813-20.187-45-45-45s-45 20.187-45 45v17.58c-4.695-1.665-9.742-2.58-15-2.58-24.813 0-45 20.187-45 45v165.458l-.201-.301c-11.052-16.578-28.782-26.991-48.644-28.568-19.869-1.576-39.013 5.907-52.543 20.533-4.561 4.93-5.288 12.29-1.782 18.018l96.896 158.282c27.937 45.635 76.628 73.521 127.862 73.519 23.368 0 47.165-5.058 67.648-16.778 50.149-28.695 80.767-84.534 80.763-142.281v-187.882c.001-24.813-20.186-45-44.999-45zm15 232.883c.003 47.789-25.771 93.416-65.662 116.241-13.824 7.911-30.466 12.206-49.463 12.768-42.038 1.24-82.471-21.416-105.561-59.133l-90.03-147.066c5.861-3.252 12.597-4.745 19.497-4.197 10.639.845 20.137 6.422 26.057 15.302l27.682 41.522c3.667 5.5 10.502 7.953 16.828 6.036 6.327-1.916 10.653-7.747 10.653-14.356v-215c0-8.271 6.729-15 15-15s15 6.729 15 15v155c0 8.284 6.716 15 15 15s15-6.716 15-15c0-11.589 0-206.099 0-215 0-8.271 6.729-15 15-15s15 6.729 15 15v215c0 8.284 6.716 15 15 15s15-6.716 15-15v-155c0-8.271 6.729-15 15-15s15 6.729 15 15v155c0 8.284 6.716 15 15 15s15-6.716 15-15v-95c0-8.271 6.729-15 15-15s15 6.729 15 15v187.883z" fill="url(#SVGID_1_)"/></g></g></g></svg>