<svg id="Capa_1" enable-background="new 0 0 512 512" height="512" viewBox="0 0 512 512" width="512" xmlns="http://www.w3.org/2000/svg" xmlns:xlink="http://www.w3.org/1999/xlink"><linearGradient id="SVGID_1_" gradientUnits="userSpaceOnUse" x1="256" x2="256" y1="512.001" y2="0"><stop offset="0" stop-color="#fd5900"/><stop offset="1" stop-color="#ffde00"/></linearGradient><g><g><g><path d="m488.213 256 19.394-19.394c5.858-5.858 5.858-15.355 0-21.213-5.857-5.858-15.355-5.858-21.213 0l-25.607 25.607h-40.476c-3.102-34.25-16.707-65.512-37.571-90.527l27.965-27.965h36.214c8.284 0 15-6.716 15-15s-6.716-15-15-15h-27.427v-27.427c0-8.284-6.716-15-15-15s-15 6.716-15 15v36.214l-27.965 27.965c-25.015-20.863-56.277-34.469-90.527-37.571v-40.476l25.606-25.606c5.858-5.858 5.858-15.355 0-21.213-5.857-5.858-15.355-5.858-21.213 0l-19.393 19.393-19.393-19.393c-5.857-5.858-15.355-5.858-21.213 0s-5.858 15.355 0 21.213l25.606 25.606v40.476c-34.25 3.102-65.512 16.708-90.527 37.571l-27.965-27.965v-36.214c0-8.284-6.716-15-15-15s-15 6.716-15 15v27.427h-27.427c-8.284 0-15 6.716-15 15s6.716 15 15 15h36.214l27.965 27.965c-20.864 25.016-34.469 56.277-37.571 90.527h-40.476l-25.606-25.606c-5.857-5.858-15.355-5.858-21.213 0s-5.858 15.355 0 21.213l19.393 19.393-19.393 19.394c-5.858 5.858-5.858 15.355 0 21.213 5.857 5.857 15.355 5.858 21.213 0l25.606-25.607h40.476c3.102 34.25 16.707 65.512 37.571 90.527l-27.965 27.965h-36.214c-8.284 0-15 6.716-15 15s6.716 15 15 15h27.427v27.427c0 8.284 6.716 15 15 15s15-6.716 15-15v-36.214l27.965-27.965c25.015 20.863 56.277 34.469 90.527 37.571v40.476l-25.606 25.606c-5.858 5.858-5.858 15.355 0 21.213 5.857 5.858 15.355 5.858 21.213 0l19.393-19.392 19.394 19.393c5.857 5.857 15.355 5.858 21.213 0s5.858-15.355 0-21.213l-25.607-25.607v-40.476c34.25-3.102 65.512-16.708 90.527-37.571l27.965 27.965v36.214c0 8.284 6.716 15 15 15s15-6.716 15-15v-27.427h27.427c8.284 0 15-6.716 15-15s-6.716-15-15-15h-36.214l-27.965-27.965c20.864-25.015 34.469-56.277 37.571-90.527h40.476l25.606 25.606c5.857 5.857 15.355 5.858 21.213 0s5.858-15.355 0-21.213zm-112.213 15h14.162c-2.888 26-13.186 49.792-28.733 69.216l-9.97-9.97c-5.857-5.858-15.355-5.858-21.213 0s-5.858 15.355 0 21.213l9.97 9.97c-19.424 15.547-43.216 25.846-69.216 28.733v-14.162c0-8.284-6.716-15-15-15s-15 6.716-15 15v14.162c-26-2.888-49.792-13.186-69.216-28.733l9.969-9.97c5.858-5.858 5.858-15.355 0-21.213-5.857-5.858-15.355-5.858-21.213 0l-9.969 9.97c-15.547-19.423-25.846-43.216-28.733-69.216h14.162c8.284 0 15-6.716 15-15s-6.716-15-15-15h-14.162c2.888-26 13.186-49.792 28.733-69.216l9.969 9.97c5.857 5.857 15.355 5.858 21.213 0s5.858-15.355 0-21.213l-9.969-9.97c19.424-15.547 43.216-25.845 69.216-28.733v14.162c0 8.284 6.716 15 15 15s15-6.716 15-15v-14.162c26 2.887 49.792 13.186 69.216 28.733l-9.97 9.97c-5.858 5.858-5.858 15.355 0 21.213 5.857 5.858 15.355 5.858 21.213 0l9.97-9.97c15.547 19.424 25.846 43.216 28.733 69.216h-14.162c-8.284 0-15 6.716-15 15s6.716 15 15 15zm-120-60c-24.813 0-45 20.187-45 45s20.187 45 45 45 45-20.187 45-45-20.186-45-45-45zm0 60c-8.271 0-15-6.729-15-15s6.729-15 15-15 15 6.729 15 15-6.729 15-15 15z" fill="url(#SVGID_1_)"/></g></g></g></svg>