<svg id="Capa_1" enable-background="new 0 0 512.002 512.002" height="512" viewBox="0 0 512.002 512.002" width="512" xmlns="http://www.w3.org/2000/svg" xmlns:xlink="http://www.w3.org/1999/xlink"><linearGradient id="SVGID_1_" gradientUnits="userSpaceOnUse" x1="256.001" x2="256.001" y1="434.47" y2="77.533"><stop offset="0" stop-color="#5558ff"/><stop offset="1" stop-color="#00c0ff"/></linearGradient><g><g><g><path d="m507.694 226.383-38.321-38.953c-78.018-83.551-191.164-123.156-302.713-105.939-61.858 9.549-115.529 28.122-159.521 55.205-6.308 3.883-8.837 11.789-5.954 18.612l23.679 56.037c1.73 4.094 5.187 7.21 9.438 8.508 4.25 1.298 8.858.644 12.579-1.785 52.182-34.062 128.039-53.598 208.122-53.598 102.6 0 190.101 52.959 233.127 84.527 6.294 4.618 15.093 3.642 20.217-2.279 5.114-5.912 4.831-14.762-.653-20.335zm-252.692-91.913c-78.364 0-153.45 17.796-209.255 49.222l-11.808-27.943c38.459-21.48 84.575-36.47 137.297-44.608 79.164-12.219 159.236 6.972 224.438 52.041-41.096-16.48-89.005-28.712-140.672-28.712zm-75 165c0 41.355 33.645 75 75 75s75-33.645 75-75-33.645-75-75-75-75 33.645-75 75zm75-45c24.813 0 45 20.187 45 45s-20.187 45-45 45-45-20.187-45-45 20.186-45 45-45zm157.018-4.842c-52.24-36.085-106.536-55.158-157.018-55.158s-104.777 19.073-157.018 55.158c-39.017 26.951-63.149 53.71-64.157 54.835-5.101 5.696-5.101 14.317 0 20.013 1.008 1.126 25.141 27.885 64.157 54.835 52.24 36.085 106.536 55.158 157.018 55.158s104.777-19.073 157.018-55.158c39.017-26.951 63.149-53.71 64.157-54.835 5.101-5.696 5.101-14.317 0-20.013-1.008-1.125-25.141-27.884-64.157-54.835zm-157.018 154.842c-69.303 0-139.514-42.114-188.99-90 49.515-47.926 119.719-90 188.99-90 69.28 0 139.428 42.028 188.99 90-49.558 47.967-119.764 90-188.99 90z" fill="url(#SVGID_1_)"/></g></g></g></svg>