<svg id="Capa_1" enable-background="new 0 0 511.827 511.827" height="512" viewBox="0 0 511.827 511.827" width="512" xmlns="http://www.w3.org/2000/svg" xmlns:xlink="http://www.w3.org/1999/xlink"><linearGradient id="SVGID_1_" gradientUnits="userSpaceOnUse" x1="255.913" x2="255.913" y1="511.827" y2="0"><stop offset="0" stop-color="#5558ff"/><stop offset="1" stop-color="#00c0ff"/></linearGradient><g><g><g><path d="m255.926 150.914c24.813 0 45-20.187 45-45s-20.187-45-45-45-45 20.187-45 45 20.187 45 45 45zm0-60c8.271 0 15 6.729 15 15s-6.729 15-15 15-15-6.729-15-15 6.729-15 15-15zm0 210c-41.355 0-75 33.645-75 75s33.645 75 75 75 75-33.645 75-75-33.644-75-75-75zm0 120c-24.813 0-45-20.187-45-45s20.187-45 45-45 45 20.187 45 45-20.186 45-45 45zm115.812-192.43c-5.544-5.469-6.271-13.485-1.851-20.421 20.403-32.018 26.21-70.378 16.351-108.015-12.419-47.41-50.82-85.212-97.831-96.306-40.917-9.655-83.055-.417-115.608 25.35-32.966 26.091-51.872 65.027-51.872 106.823 0 26.033 7.505 51.338 21.703 73.18 4.036 6.209 3.38 13.654-1.633 18.526-18.714 18.187-33.015 40.783-41.356 65.345-8.876 26.135-11.005 53.493-6.326 81.313 12.53 74.531 77.57 137.549 161.989 137.549 37.681 0 74.274-12.747 103.951-36.84 39.193-31.821 61.672-78.866 61.672-129.072-.001-44.442-17.469-86.146-49.189-117.432zm-31.393 223.212c-31.719 25.752-73.135 35.647-113.639 27.145-52.117-10.939-94.805-55.982-103.809-109.537-7.556-44.936 6.662-88.735 39.007-120.169 15.347-14.915 17.764-38.103 5.877-56.39-11.026-16.964-16.855-36.615-16.855-56.83 0-32.571 14.758-62.933 40.49-83.299 25.815-20.433 58.78-27.067 90.1-19.676 35.785 8.445 66.207 38.468 75.7 74.71 7.719 29.464 3.233 59.399-12.629 84.291-11.957 18.765-9.455 42.575 6.084 57.901 25.959 25.605 40.255 59.724 40.255 96.072 0 41.128-18.435 79.684-50.581 105.782z" fill="url(#SVGID_1_)"/></g></g></g></svg>