<svg id="Capa_1" enable-background="new 0 0 512.004 512.004" height="512" viewBox="0 0 512.004 512.004" width="512" xmlns="http://www.w3.org/2000/svg" xmlns:xlink="http://www.w3.org/1999/xlink"><linearGradient id="SVGID_1_" gradientUnits="userSpaceOnUse" x1="256.002" x2="256.002" y1="512.004" y2="0"><stop offset="0" stop-color="#5558ff"/><stop offset="1" stop-color="#00c0ff"/></linearGradient><g><g><g><path d="m391.005 422h-20c-3.225 0-6.42-1.065-9-3l-85.215-63.911c-12.579-9.434-19.239-24.415-17.814-40.083l26.968-298.657c.792-8.776-6.125-16.349-14.939-16.349h-180c-8.284 0-15 6.716-15 15v30c0 48.365 7.777 86.803 15.298 123.975 7.561 37.369 14.702 72.665 14.702 118.026-.926 12.179 4.821 50.924-16.83 99.533-8.739 19.621-13.17 40.528-13.17 62.141.152.781-2.041 24.819 18.244 45.098 11.76 11.757 27.393 18.231 44.021 18.231.006 0 12.735-.004 12.735-.004 14.673 0 25.84-4.581 35.692-8.622 8.343-3.422 15.549-6.378 24.308-6.378s15.964 2.956 24.308 6.378c9.853 4.042 21.02 8.622 35.692 8.622h120c24.813 0 45-20.187 45-45s-20.187-45-45-45zm0 60h-120c-8.759 0-15.964-2.956-24.308-6.378-9.853-4.041-21.02-8.622-35.692-8.622s-25.84 4.581-35.692 8.622c-8.343 3.422-15.549 6.378-24.312 6.378 0 0-12.726.004-12.73.004-8.616 0-16.718-3.355-22.812-9.447-10.571-10.568-9.355-23.362-9.454-23.882 0-17.38 3.558-34.181 10.574-49.935 24.62-55.273 18.459-99.49 19.426-111.74 0-48.365-7.777-86.803-15.298-123.975-7.56-37.368-14.702-72.664-14.702-118.025v-15h148.584l-25.492 282.298c-2.373 26.098 8.727 51.066 29.692 66.79l85.216 63.912c7.738 5.804 17.327 9 27 9h20c8.271 0 15 6.729 15 15s-6.729 15-15 15zm-195-120h-30c-8.284 0-15 6.716-15 15s6.716 15 15 15h30c8.284 0 15-6.716 15-15s-6.716-15-15-15z" fill="url(#SVGID_1_)"/></g></g></g></svg>