<svg id="Capa_1" enable-background="new 0 0 512 512" height="512" viewBox="0 0 512 512" width="512" xmlns="http://www.w3.org/2000/svg" xmlns:xlink="http://www.w3.org/1999/xlink"><linearGradient id="SVGID_1_" gradientUnits="userSpaceOnUse" x1="256" x2="256" y1="512" y2="0"><stop offset="0" stop-color="#a93aff"/><stop offset="1" stop-color="#ff81ff"/></linearGradient><g><g><g><path d="m457.959 253.458c-9.272-38.128-45.055-108.475-56.226-128.312h-.002c-21.805-43.612-30.029-76.209-27.506-108.995.32-4.166-1.111-8.277-3.95-11.343-2.838-3.065-6.826-4.808-11.005-4.808h-206.532c-4.18 0-8.169 1.744-11.008 4.811s-4.27 7.18-3.947 11.346c2.533 32.748-5.695 65.343-27.517 108.988-22.503 45.015-46.601 88.732-56.226 128.312-20.799 85.531-7.992 174.685 36.063 251.039 2.679 4.643 7.632 7.504 12.992 7.504h93.231c6.774 0 12.707-4.54 14.479-11.079.074-.276 7.559-27.922 14.916-56.432 7.004-27.138 10.789-42.983 12.827-52.489h35.632l27.159 108.638c1.669 6.677 7.669 11.362 14.552 11.362h93.014c5.36 0 10.313-2.861 12.992-7.504 44.055-76.354 56.861-165.508 36.062-251.038zm-57.852 228.542h-72.504l-25.814-103.255 27.519-55.037c3.705-7.41.702-16.42-6.708-20.125-7.409-3.705-16.42-.701-20.124 6.708l-25.855 51.709h-41.46l-25.854-51.708c-3.704-7.41-12.713-10.413-20.124-6.708-7.41 3.705-10.413 12.715-6.708 20.125l27.991 55.982c-2.412 13.39-13.941 58.74-25.632 102.309h-72.941c-36.782-67.942-46.993-146.237-28.702-221.454 8.727-35.887 32.197-78.557 53.909-121.986 15.288-30.579 30.48-66.904 31.096-108.56h175.592c.466 37.319 13.749 74.918 31.112 108.56 2.751 5.498 44.021 81.326 53.909 121.987 18.291 75.216 8.08 153.511-28.702 221.453zm-144.216-300c-8.284 0-15 6.716-15 15s6.716 15 15 15 15-6.716 15-15-6.716-15-15-15z" fill="url(#SVGID_1_)"/></g></g></g></svg>