<svg id="Capa_1" enable-background="new 0 0 512 512" height="512" viewBox="0 0 512 512" width="512" xmlns="http://www.w3.org/2000/svg" xmlns:xlink="http://www.w3.org/1999/xlink"><linearGradient id="SVGID_1_" gradientUnits="userSpaceOnUse" x1="256" x2="256" y1="512" y2="0"><stop offset="0" stop-color="#5558ff"/><stop offset="1" stop-color="#00c0ff"/></linearGradient><g><g><g><path d="m331 52.74v-7.74c0-24.813-20.187-45-45-45h-60c-24.813 0-45 20.187-45 45v7.74c-37.218 24.93-60 67.167-60 112.26v332c0 8.284 6.716 15 15 15h240c8.284 0 15-6.716 15-15v-332c0-45.093-22.782-87.33-60-112.26zm-120-7.74c0-8.271 6.729-15 15-15h60c8.271 0 15 6.729 15 15v90c0 24.813-20.187 45-45 45s-45-20.187-45-45zm150 437h-210v-317c0-27.712 11.073-54.034 30-73.433v43.433c0 41.355 33.645 75 75 75s75-33.645 75-75v-43.433c18.927 19.399 30 45.72 30 73.433zm-45-122h-120c-8.284 0-15 6.716-15 15s6.716 15 15 15h120c8.284 0 15-6.716 15-15s-6.716-15-15-15z" fill="url(#SVGID_1_)"/></g></g></g></svg>