<svg id="Capa_1" enable-background="new 0 0 512 512" height="512" viewBox="0 0 512 512" width="512" xmlns="http://www.w3.org/2000/svg" xmlns:xlink="http://www.w3.org/1999/xlink"><linearGradient id="SVGID_1_" gradientUnits="userSpaceOnUse" x1="256" x2="256" y1="512" y2="0"><stop offset="0" stop-color="#a93aff"/><stop offset="1" stop-color="#ff81ff"/></linearGradient><g><g><g><path d="m275.394 336.394c-5.181 5.18-12.067 8.033-19.394 8.033s-14.213-2.853-19.394-8.033c-5.857-5.859-15.355-5.857-21.213 0-5.858 5.858-5.858 15.355 0 21.213 10.846 10.846 25.268 16.82 40.606 16.82s29.761-5.974 40.606-16.82c5.858-5.858 5.858-15.355 0-21.213-5.856-5.859-15.354-5.858-21.211 0zm115.606-277.56v-43.834c0-8.284-6.716-15-15-15h-240c-8.284 0-15 6.716-15 15v43.834c0 53.74 12.138 108.122 35.103 157.265 3.466 7.416 4.749 15.708 3.71 23.98-5.482 43.647-1.236 80.517 3.291 103.761 1.275 6.546 1.05 13.305-.669 20.09-7.588 29.937-11.435 60.633-11.435 91.236v41.834c0 8.284 6.716 15 15 15h180c8.284 0 15-6.716 15-15v-41.834c0-30.633-3.854-61.357-11.455-91.318-1.709-6.735-1.938-13.446-.681-19.946 4.52-23.359 8.763-60.342 3.312-103.874-1.031-8.239.246-16.494 3.696-23.873 22.981-49.158 35.128-103.559 35.128-157.321zm-62.306 144.616c-5.848 12.51-8.021 26.447-6.286 40.305 4.961 39.616 1.108 73.228-2.998 94.449-2.101 10.866-1.746 21.976 1.056 33.02 6.99 27.552 10.534 55.794 10.534 83.941v26.835h-150v-26.834c0-28.12 3.538-56.336 10.515-83.865 2.815-11.106 3.163-22.275 1.036-33.196-4.109-21.094-7.961-54.576-2.973-94.287 1.745-13.894-.433-27.872-6.297-40.42-21.42-45.839-32.281-94.477-32.281-144.564v-28.834h210v28.834c0 49.401-11.171 99.408-32.306 144.616z" fill="url(#SVGID_1_)"/></g></g></g></svg>