<svg id="Capa_1" enable-background="new 0 0 512 512" height="512" viewBox="0 0 512 512" width="512" xmlns="http://www.w3.org/2000/svg" xmlns:xlink="http://www.w3.org/1999/xlink"><linearGradient id="SVGID_1_" gradientUnits="userSpaceOnUse" x1="256" x2="256" y1="512" y2="0"><stop offset="0" stop-color="#fd5900"/><stop offset="1" stop-color="#ffde00"/></linearGradient><g><g><g><path d="m477.163 145.191c-8.921-36.587-33.548-63.174-71.218-76.885-.001 0-.001 0-.001 0-29.929-10.894-60.158-9.55-87.066 3.501 6.134-32.555 11.522-52.357 11.647-52.813 1.247-4.514.315-9.352-2.521-13.079-2.837-3.727-7.253-5.915-11.937-5.915h-120c-4.684 0-9.097 2.189-11.934 5.916-2.838 3.726-3.771 8.565-2.524 13.08.125.456 5.514 20.257 11.647 52.813-26.911-13.051-57.14-14.396-87.067-3.501-37.696 13.721-62.357 40.244-71.316 76.702-7.45 30.316-3.876 66.979 10.335 106.023 24.35 66.897 88.368 152.119 153.259 159.078-7.928 50.097-16.697 82.312-16.857 82.893-1.249 4.515-.316 9.354 2.52 13.083 2.837 3.728 7.253 5.917 11.938 5.917h120c4.684 0 9.097-2.189 11.934-5.916 2.838-3.726 3.771-8.565 2.524-13.08-.16-.583-8.924-32.778-16.85-82.846 66.761-6.975 129.805-94.786 153.047-158.641 14.246-39.145 17.856-75.912 10.44-106.33zm-274.416 235.142c-42.531-3.612-102.643-66.191-129.349-139.563-12.427-34.144-33.11-116.552 43.052-144.273 27.736-10.094 54.618-6.353 77.741 10.851 1.853 1.379 3.768 2.677 5.717 3.923 6 40.228 11.159 90.563 11.159 144.729 0 45.362-3.62 88.03-8.32 124.333zm12.506 101.667c3.804-16.396 9.294-42.561 14.234-75.468l.354-.13c17.402-6.508 35.049-6.509 52.439-.004l.365.135c4.94 32.907 10.431 59.072 14.234 75.468h-81.626zm63.016-107.989c-14.701-3.245-29.698-3.244-44.405.001 4.163-34.958 7.202-75.155 7.202-118.013 0-48.369-3.872-93.346-8.86-131.229 7.77 1.796 15.784 2.739 23.86 2.739s16.09-.943 23.86-2.739c-4.988 37.883-8.86 82.86-8.86 131.229.001 42.858 3.041 83.055 7.203 118.012zm6.505-282.127c-18.189 7.476-39.227 7.476-57.415 0-4.335-26.546-8.842-47.813-12.106-61.884h81.627c-3.264 14.071-7.77 35.338-12.106 61.884zm153.758 149.372c-26.621 73.138-86.623 135.486-129.146 139.074-4.7-36.302-8.319-78.969-8.319-124.33 0-54.167 5.159-104.501 11.159-144.729 1.95-1.246 3.865-2.544 5.718-3.923 23.113-17.196 49.996-20.948 77.74-10.851 76.142 27.713 55.329 110.467 42.848 144.759z" fill="url(#SVGID_1_)"/></g></g></g></svg>