<svg id="Capa_1" enable-background="new 0 0 512 512" height="512" viewBox="0 0 512 512" width="512" xmlns="http://www.w3.org/2000/svg" xmlns:xlink="http://www.w3.org/1999/xlink"><linearGradient id="SVGID_1_" gradientUnits="userSpaceOnUse" x1="256" x2="256" y1="512" y2="0"><stop offset="0" stop-color="#00b59c"/><stop offset="1" stop-color="#9cffac"/></linearGradient><g><g><g><path d="m481 15c0-8.284-6.716-15-15-15h-60c-8.284 0-15 6.716-15 15 0 27.698-15.186 52.861-39.224 65.902-26.739-13.697-59.653-20.902-95.776-20.902-36.124 0-69.037 7.205-95.776 20.902-24.038-13.041-39.224-38.204-39.224-65.902 0-8.284-6.716-15-15-15h-60c-8.284 0-15 6.716-15 15 0 52.957 25.134 101.721 67.838 132.821-5.207 14.46-7.838 30.273-7.838 47.179 0 38.354 13.419 80.631 36.816 115.992 22.316 33.728 51.528 58.401 83.184 70.508v115.5c0 8.284 6.716 15 15 15h60c8.284 0 15-6.716 15-15v-115.5c31.656-12.107 60.867-36.78 83.184-70.508 23.397-35.361 36.816-77.638 36.816-115.992 0-16.906-2.632-32.719-7.838-47.179 42.704-31.1 67.838-79.864 67.838-132.821zm-94.339 114.509c-6.558 4.057-8.971 12.424-5.582 19.35 6.583 13.452 9.921 28.976 9.921 46.141 0 32.617-11.604 68.861-31.835 99.438-20.908 31.6-48.359 53.567-77.296 61.855-6.434 1.843-10.869 7.727-10.869 14.42v111.287h-30v-111.287c0-6.693-4.435-12.577-10.87-14.42-28.936-8.288-56.387-30.255-77.295-61.855-20.231-30.577-31.835-66.821-31.835-99.438 0-17.165 3.338-32.689 9.921-46.141 3.389-6.926.976-15.293-5.582-19.35-35.937-22.231-58.956-58.69-63.507-99.509h30.238c5.159 35.905 28.618 66.973 62.678 81.544 4.356 1.864 9.336 1.56 13.434-.82 23.342-13.558 53.71-20.724 87.818-20.724 34.107 0 64.476 7.166 87.819 20.724 4.096 2.379 9.076 2.683 13.433.82 34.06-14.571 57.52-45.638 62.678-81.544h30.238c-4.552 40.819-27.569 77.278-63.507 99.509zm-54.945 8.08c-17.753-11.836-42.52-17.589-75.716-17.589s-57.963 5.753-75.716 17.589c-19.158 12.772-29.284 32.624-29.284 57.411 0 30.441 11.633 63.409 31.917 90.451 21.234 28.312 47.873 44.549 73.083 44.549 25.211 0 51.849-16.237 73.084-44.549 20.283-27.042 31.916-60.01 31.916-90.451 0-24.787-10.126-44.639-29.284-57.411zm-26.632 129.861c-15.059 20.078-33.867 32.55-49.084 32.55s-34.025-12.472-49.084-32.55c-16.228-21.635-25.916-48.719-25.916-72.45 0-12.307 0-45 75-45s75 32.693 75 45c0 23.731-9.688 50.815-25.916 72.45z" fill="url(#SVGID_1_)"/></g></g></g></svg>