<svg id="Capa_1" enable-background="new 0 0 512 512" height="512" viewBox="0 0 512 512" width="512" xmlns="http://www.w3.org/2000/svg" xmlns:xlink="http://www.w3.org/1999/xlink"><linearGradient id="SVGID_1_" gradientUnits="userSpaceOnUse" x1="256" x2="256" y1="451.001" y2="60.999"><stop offset="0" stop-color="#a93aff"/><stop offset="1" stop-color="#ff81ff"/></linearGradient><g><g><g><path d="m499.081 61.146c-7.414-1.034-14.449 3.542-16.503 10.734l-10.551 36.925c-20.936 73.277-79.229 130.985-152.053 152.709l10.257-30.771c1.524-4.574.757-9.603-2.062-13.514-2.819-3.912-7.347-6.229-12.168-6.229h-120.001c-4.822 0-9.349 2.318-12.168 6.229s-3.586 8.939-2.062 13.514l10.257 30.771c-72.825-21.724-131.118-79.431-152.053-152.709l-10.551-36.925c-2.055-7.192-9.097-11.772-16.503-10.734-7.409 1.037-12.92 7.374-12.92 14.855v73.68c0 162.986 93.636 301.32 256 301.32 162.34 0 256-138.307 256-301.32v-73.68c0-7.481-5.511-13.818-12.919-14.855zm-243.081 359.855c-149.259 0-220.392-129.965-225.681-256.101 35.863 68.122 102.625 118.251 181.845 132.139 5.207.912 10.505-.98 13.953-4.983 3.449-4.002 4.538-9.523 2.868-14.535l-12.173-36.52h78.377l-12.173 36.52c-1.67 5.012-.581 10.533 2.868 14.535s8.746 5.892 13.953 4.983c79.221-13.888 145.981-64.016 181.845-132.139-5.29 126.136-76.423 256.101-225.682 256.101zm-120-270h60c24.508 0 46.305-11.818 60-30.052 13.695 18.234 35.492 30.052 60 30.052h60c8.284 0 15-6.716 15-15 0-41.355-33.645-75-75-75-14.518 0-105.386 0-120 0-41.355 0-75 33.645-75 75 0 8.284 6.716 15 15 15zm180-60c19.556 0 36.239 12.539 42.43 30h-42.43c-19.556 0-36.239-12.539-42.43-30zm-120 0h42.43c-6.191 17.461-22.874 30-42.43 30h-42.43c6.191-17.461 22.874-30 42.43-30z" fill="url(#SVGID_1_)"/></g></g></g></svg>