<svg id="Capa_1" enable-background="new 0 0 512 512" height="512" viewBox="0 0 512 512" width="512" xmlns="http://www.w3.org/2000/svg" xmlns:xlink="http://www.w3.org/1999/xlink"><linearGradient id="SVGID_1_" gradientUnits="userSpaceOnUse" x1="256" x2="256" y1="480.975" y2="31.025"><stop offset="0" stop-color="#00b59c"/><stop offset="1" stop-color="#9cffac"/></linearGradient><g><g><g><path d="m497 240.975h-80.848c3.269-6.889 7.124-13.392 11.561-19.4 20.677-27.998 27.924-62.477 20.407-97.086-9.949-45.811-47.625-82.496-93.75-91.286-35.234-6.714-71.033 2.296-98.37 24.229-27.337-21.933-63.135-30.944-98.37-24.229-46.125 8.79-83.801 45.474-93.75 91.285-7.517 34.609-.27 69.088 20.407 97.086 4.437 6.008 8.292 12.51 11.561 19.399h-80.848c-8.284 0-15 6.716-15 15v210c0 8.284 6.716 15 15 15h482c8.284 0 15-6.716 15-15v-210c0-8.282-6.716-14.998-15-14.998zm-403.804-110.119c7.431-34.214 35.581-61.615 70.049-68.183 30.609-5.833 60.507 3.446 82.03 25.457 2.821 2.886 6.688 4.513 10.725 4.513s7.903-1.627 10.725-4.513c21.522-22.011 51.419-31.29 82.03-25.457 34.468 6.568 62.618 33.969 70.049 68.183 5.658 26.053.252 51.942-15.224 72.896-17.137 23.204-26.829 51.096-29.443 79.703l-5.609 61.354c-2.834 21.891-18.887 39.287-39.489 44.535l-7.572-60.578c-4.119-32.947-32.264-57.792-65.466-57.792s-61.347 24.845-65.466 57.792l-7.572 60.578c-20.603-5.248-36.655-22.645-39.489-44.535l-5.609-61.354c-2.61-28.551-12.275-56.456-29.443-79.703-15.478-20.954-20.884-46.842-15.226-72.896zm388.804 320.119h-452v-180h75.75c1.006 4.97 1.765 10.044 2.238 15.212 0 0 5.666 61.947 5.687 62.112 5.18 41.432 40.571 72.676 82.325 72.676 7.564 0 13.946-5.633 14.884-13.14l9.418-75.347c2.246-17.966 17.594-31.513 35.698-31.513s33.452 13.548 35.698 31.513l9.418 75.348c.938 7.507 7.319 13.14 14.884 13.14 41.754 0 77.146-31.244 82.325-72.676.021-.165.039-.33.054-.495l5.633-61.616c.473-5.169 1.232-10.243 2.238-15.212h75.75z" fill="url(#SVGID_1_)"/></g></g></g></svg>