<svg id="Capa_1" enable-background="new 0 0 512.002 512.002" height="512" viewBox="0 0 512.002 512.002" width="512" xmlns="http://www.w3.org/2000/svg" xmlns:xlink="http://www.w3.org/1999/xlink"><linearGradient id="SVGID_1_" gradientUnits="userSpaceOnUse" x1="256.001" x2="256.001" y1="512.001" y2=".001"><stop offset="0" stop-color="#00b59c"/><stop offset="1" stop-color="#9cffac"/></linearGradient><g><g><g><path d="m226.001 139.575c-8.284 0-15 6.716-15 15 0 23.353-9.094 45.308-25.606 61.819-5.858 5.858-5.858 15.355 0 21.213 5.857 5.858 15.354 5.858 21.213 0 22.179-22.179 34.394-51.667 34.394-83.033-.001-8.284-6.717-14.999-15.001-14.999zm75 15c0-8.284-6.716-15-15-15s-15 6.716-15 15c0 31.366 12.215 60.854 34.394 83.033 5.857 5.857 15.355 5.858 21.213 0s5.858-15.355 0-21.213c-16.513-16.513-25.607-38.467-25.607-61.82zm210.952 341.229-25.59-319.669c-3.714-48.279-39.665-87.558-87.429-95.519l-51.284-8.547c-26.158-4.36-46.649-29.427-46.649-57.068 0-8.284-6.716-15-15-15h-60c-8.284 0-15 6.716-15 15 0 27.641-20.491 52.708-46.649 57.068l-51.284 8.547c-47.764 7.96-83.715 47.239-87.425 95.472l-25.594 319.716c-.698 8.721 6.197 16.197 14.952 16.197h61c7.333 0 13.591-5.301 14.796-12.534l29.901-179.409 8.084-32.336c1.813 7.789 3.941 15.512 6.382 23.159 9.286 29.094 10.427 61.683 3.392 96.86l-17.264 86.318c-1.852 9.263 5.232 17.942 14.709 17.942h240c9.447 0 16.566-8.65 14.709-17.942l-17.264-86.318c-7.035-35.178-5.895-67.766 3.392-96.86 2.44-7.647 4.568-15.371 6.382-23.159l8.084 32.336 29.901 179.409c1.205 7.233 7.463 12.534 14.796 12.534h61c8.747 0 15.651-7.469 14.952-16.197zm-63.245-13.803c-29.592-177.455-27.884-167.563-28.155-168.638l-30-120c-1.837-7.349-8.859-12.175-16.385-11.25-7.519.926-13.167 7.312-13.167 14.888v22.917c0 27.812-4.287 55.348-12.743 81.841-10.852 34.001-12.274 71.638-4.229 111.865l13.676 68.376h-86.703v-165c0-8.284-6.716-15-15-15s-15 6.716-15 15v165h-86.703l13.676-68.376c8.045-40.228 6.622-77.864-4.229-111.865-8.456-26.494-12.743-54.029-12.743-81.841v-22.917c0-7.576-5.648-13.962-13.167-14.888-7.533-.926-14.548 3.9-16.385 11.25-32.054 128.276-30.064 120.076-30.246 121.172l-27.911 167.466h-32.044l24.301-303.565c2.652-34.485 28.332-62.542 62.448-68.228l51.284-8.547c36-6 64.204-35.598 70.432-71.66h32.572c6.228 36.062 34.432 65.66 70.432 71.66l51.284 8.547c34.116 5.686 59.796 33.742 62.452 68.274l24.297 303.519z" fill="url(#SVGID_1_)"/></g></g></g></svg>