<svg id="Capa_1" enable-background="new 0 0 512.032 512.032" height="512" viewBox="0 0 512.032 512.032" width="512" xmlns="http://www.w3.org/2000/svg" xmlns:xlink="http://www.w3.org/1999/xlink"><linearGradient id="SVGID_1_" gradientUnits="userSpaceOnUse" x1="256.016" x2="256.016" y1="512.032" y2="0"><stop offset="0" stop-color="#5558ff"/><stop offset="1" stop-color="#00c0ff"/></linearGradient><g><g><g><path d="m361.017 337.143v-202.143c0-38.163-30.852-135-105-135-73.322 0-105 95.548-105 135v202.143c-43.383 15.364-70.745 62.449-55.962 112.118 8.544 28.708 31.926 51.454 61.019 59.361 26.55 7.215 53.366 2.899 75.504-12.157 14.39-9.785 34.49-9.785 48.88 0 15.136 10.294 32.458 15.567 50.388 15.567 8.294 0 16.718-1.128 25.116-3.411 29.093-7.907 52.475-30.652 61.019-59.361 14.768-49.626-12.542-96.739-55.964-112.117zm-160.912-266.146c8.312-15.063 21.66-32.446 40.912-38.646v42.649c0 8.284 6.716 15 15 15s15-6.716 15-15v-42.649c19.252 6.199 32.6 23.583 40.912 38.646 13.906 25.2 19.088 52.632 19.088 64.003 0 33.616-36.488 56.739-67.454 38.714-4.663-2.715-10.428-2.715-15.092 0-31.016 18.054-67.454-5.152-67.454-38.714 0-11.371 5.182-38.802 19.088-64.003zm188.12 369.706c-5.52 18.547-21.273 33.843-40.133 38.968-17.96 4.882-35.988 2.036-50.766-8.014-24.709-16.803-57.911-16.803-82.62 0-14.776 10.049-32.806 12.895-50.766 8.014-18.859-5.125-34.612-20.421-40.132-38.968-10.987-36.916 12.051-70.761 45.193-77.491 6.991-1.419 12.015-7.566 12.015-14.7v-153.553c21.217 15.964 49.781 19.878 75 8.564 25.212 11.311 53.777 7.404 75-8.564v153.553c0 7.134 5.024 13.281 12.015 14.7 33.144 6.73 56.192 40.542 45.194 77.491z" fill="url(#SVGID_1_)"/></g></g></g></svg>