<svg id="Capa_1" enable-background="new 0 0 512 512" height="512" viewBox="0 0 512 512" width="512" xmlns="http://www.w3.org/2000/svg" xmlns:xlink="http://www.w3.org/1999/xlink"><linearGradient id="SVGID_1_" gradientUnits="userSpaceOnUse" x1="256" x2="256" y1="451.01" y2="60.99"><stop offset="0" stop-color="#a93aff"/><stop offset="1" stop-color="#ff81ff"/></linearGradient><g><g><g><path d="m467 60.99h-302c-90.981 0-165 74.019-165 165 0 9.715.853 19.458 2.535 28.96l28.156 158.925c5.304 29.941 37.971 45.748 64.595 32.29l144.071-72.844c20.478-10.354 38.517-24.834 53.029-42.449 57.437-1.832 111.396-25.003 152.643-65.714 43.187-42.626 66.971-99.152 66.971-159.168 0-24.813-20.187-45-45-45zm-154.012 238.038c11.169-22.606 17.012-47.553 17.012-73.038 0-36.034-11.41-70.271-32.996-99.009-4.975-6.624-14.377-7.96-21.002-2.985-6.624 4.975-7.96 14.378-2.985 21.002 17.653 23.502 26.983 51.508 26.983 80.992 0 50.145-27.406 96.911-74.178 120.559l-144.07 72.843c-8.784 4.44-19.744-.721-21.521-10.75l-28.155-158.923c-1.378-7.779-2.076-15.762-2.076-23.729 0-74.439 60.561-135 135-135h302c8.271 0 15 6.729 15 15 0 98.119-73.595 179.545-169.012 193.038z" fill="url(#SVGID_1_)"/></g></g></g></svg>