<svg id="Capa_1" enable-background="new 0 0 512.003 512.003" height="512" viewBox="0 0 512.003 512.003" width="512" xmlns="http://www.w3.org/2000/svg" xmlns:xlink="http://www.w3.org/1999/xlink"><linearGradient id="SVGID_1_" gradientUnits="userSpaceOnUse" x1="256.001" x2="256.001" y1="496.001" y2="16.001"><stop offset="0" stop-color="#fd5900"/><stop offset="1" stop-color="#ffde00"/></linearGradient><g><g><g><path d="m322.356 234.943c5.102-9.458 7.479-21.832 7.479-38.942s-2.377-29.484-7.479-38.942c-5.184-9.607-15.9-21.058-37.521-21.058-29.858 0-75 23.93-75 60s45.142 60 75 60c21.621 0 32.338-11.451 37.521-21.058zm-37.521-8.942c-9.371 0-21.479-4.144-30.846-10.557-8.863-6.069-14.154-13.337-14.154-19.443s5.291-13.375 14.154-19.443c9.367-6.413 21.475-10.557 30.846-10.557 7.031 0 15 0 15 30s-7.969 30-15 30zm218.847 192.977-24.199-36.298c-2.782-4.173-7.465-6.679-12.48-6.679h-152.168c-24.813 0-45-20.187-45-45v-8.949c9.854-2.84 19.884-4.717 30-5.547v14.496c0 8.284 6.716 15 15 15h150c5.198 0 10.026-2.692 12.76-7.114 2.733-4.422 2.981-9.944.656-14.594l-30-60c-1.451-2.903-3.805-5.257-6.708-6.708l-41.386-20.693 15.284-15.284c2.813-2.813 4.394-6.628 4.394-10.607v-29.999c0-90.982-74.019-165.001-165-165.001h-51.825c-54.226 0-105.165 21.156-143.436 59.571-38.107 38.251-59.056 88.998-59.032 142.963-3.393 39.81 9.261 79.99 34.773 110.343 22.912 27.259 54.157 43.823 87.982 46.642 19.361 1.614 38.626-.917 56.729-7.334 3.747 71.113 62.779 127.816 134.808 127.816h147.626c27.317 0 49.542-22.224 49.542-49.542.001-9.813-2.876-19.315-8.32-27.482zm-377.894-73.355c-25.801-2.15-49.775-14.952-67.508-36.048-20.558-24.458-30.689-56.918-27.798-89.056.042-.466.063-.933.061-1.401-.174-46.19 17.684-89.65 50.284-122.373s75.992-50.744 122.183-50.744h51.825c74.439 0 135 60.561 135 135.001v23.786l-25.606 25.606c-3.409 3.409-4.973 8.25-4.2 13.01.772 4.759 3.786 8.857 8.099 11.014l55.527 27.764 16.91 33.82h-110.73v-15c0-3.979-1.58-7.794-4.394-10.607-5.518-5.517-12.067-4.202-13.335-4.393-40.445.002-80.103 13.597-114.685 39.316-20.485 15.236-45.912 22.448-71.633 20.305zm336.673 120.378h-147.626c-57.897 0-105-47.103-105-105v-7.762c7.374-4.932 14.744-11.312 30.076-19.241 1.581 39.969 34.573 72.003 74.924 72.003h144.141l19.745 29.617c8.589 12.887-.624 30.383-16.26 30.383z" fill="url(#SVGID_1_)"/></g></g></g></svg>